G04 #@! TF.GenerationSoftware,KiCad,Pcbnew,(5.1.9)-1*
G04 #@! TF.CreationDate,2022-01-10T11:00:18-07:00*
G04 #@! TF.ProjectId,RP2040_minimal,52503230-3430-45f6-9d69-6e696d616c2e,REV1*
G04 #@! TF.SameCoordinates,Original*
G04 #@! TF.FileFunction,Soldermask,Top*
G04 #@! TF.FilePolarity,Negative*
%FSLAX46Y46*%
G04 Gerber Fmt 4.6, Leading zero omitted, Abs format (unit mm)*
G04 Created by KiCad (PCBNEW (5.1.9)-1) date 2022-01-10 11:00:18*
%MOMM*%
%LPD*%
G01*
G04 APERTURE LIST*
%ADD10C,1.802000*%
%ADD11C,3.702000*%
%ADD12C,7.102000*%
%ADD13C,2.802000*%
%ADD14O,1.802000X1.802000*%
G04 APERTURE END LIST*
D10*
X101340000Y-65855000D03*
X98840000Y-65855000D03*
X98840000Y-67855000D03*
X101340000Y-67855000D03*
D11*
X106206000Y-63145000D03*
X93974000Y-63145000D03*
D12*
X27070000Y-137910000D03*
X54070000Y-137910000D03*
X81070000Y-137910000D03*
X69070000Y-137910000D03*
X96070000Y-137910000D03*
X123070000Y-137910000D03*
X54070000Y-211910000D03*
X81070000Y-211910000D03*
X96070000Y-211910000D03*
X27070000Y-211910000D03*
X69070000Y-211910000D03*
X123070000Y-211910000D03*
G36*
G01*
X109441000Y-122024500D02*
X109441000Y-123325500D01*
G75*
G02*
X109265500Y-123501000I-175500J0D01*
G01*
X108914500Y-123501000D01*
G75*
G02*
X108739000Y-123325500I0J175500D01*
G01*
X108739000Y-122024500D01*
G75*
G02*
X108914500Y-121849000I175500J0D01*
G01*
X109265500Y-121849000D01*
G75*
G02*
X109441000Y-122024500I0J-175500D01*
G01*
G37*
G36*
G01*
X108441000Y-122024500D02*
X108441000Y-123325500D01*
G75*
G02*
X108265500Y-123501000I-175500J0D01*
G01*
X107914500Y-123501000D01*
G75*
G02*
X107739000Y-123325500I0J175500D01*
G01*
X107739000Y-122024500D01*
G75*
G02*
X107914500Y-121849000I175500J0D01*
G01*
X108265500Y-121849000D01*
G75*
G02*
X108441000Y-122024500I0J-175500D01*
G01*
G37*
G36*
G01*
X107441000Y-122024500D02*
X107441000Y-123325500D01*
G75*
G02*
X107265500Y-123501000I-175500J0D01*
G01*
X106914500Y-123501000D01*
G75*
G02*
X106739000Y-123325500I0J175500D01*
G01*
X106739000Y-122024500D01*
G75*
G02*
X106914500Y-121849000I175500J0D01*
G01*
X107265500Y-121849000D01*
G75*
G02*
X107441000Y-122024500I0J-175500D01*
G01*
G37*
G36*
G01*
X106441000Y-122024500D02*
X106441000Y-123325500D01*
G75*
G02*
X106265500Y-123501000I-175500J0D01*
G01*
X105914500Y-123501000D01*
G75*
G02*
X105739000Y-123325500I0J175500D01*
G01*
X105739000Y-122024500D01*
G75*
G02*
X105914500Y-121849000I175500J0D01*
G01*
X106265500Y-121849000D01*
G75*
G02*
X106441000Y-122024500I0J-175500D01*
G01*
G37*
G36*
G01*
X111041000Y-124520248D02*
X111041000Y-125879752D01*
G75*
G02*
X110769752Y-126151000I-271248J0D01*
G01*
X110010248Y-126151000D01*
G75*
G02*
X109739000Y-125879752I0J271248D01*
G01*
X109739000Y-124520248D01*
G75*
G02*
X110010248Y-124249000I271248J0D01*
G01*
X110769752Y-124249000D01*
G75*
G02*
X111041000Y-124520248I0J-271248D01*
G01*
G37*
G36*
G01*
X105441000Y-124520248D02*
X105441000Y-125879752D01*
G75*
G02*
X105169752Y-126151000I-271248J0D01*
G01*
X104410248Y-126151000D01*
G75*
G02*
X104139000Y-125879752I0J271248D01*
G01*
X104139000Y-124520248D01*
G75*
G02*
X104410248Y-124249000I271248J0D01*
G01*
X105169752Y-124249000D01*
G75*
G02*
X105441000Y-124520248I0J-271248D01*
G01*
G37*
G36*
G01*
X85514000Y-78481750D02*
X85514000Y-77518250D01*
G75*
G02*
X85783250Y-77249000I269250J0D01*
G01*
X86321750Y-77249000D01*
G75*
G02*
X86591000Y-77518250I0J-269250D01*
G01*
X86591000Y-78481750D01*
G75*
G02*
X86321750Y-78751000I-269250J0D01*
G01*
X85783250Y-78751000D01*
G75*
G02*
X85514000Y-78481750I0J269250D01*
G01*
G37*
G36*
G01*
X83639000Y-78481750D02*
X83639000Y-77518250D01*
G75*
G02*
X83908250Y-77249000I269250J0D01*
G01*
X84446750Y-77249000D01*
G75*
G02*
X84716000Y-77518250I0J-269250D01*
G01*
X84716000Y-78481750D01*
G75*
G02*
X84446750Y-78751000I-269250J0D01*
G01*
X83908250Y-78751000D01*
G75*
G02*
X83639000Y-78481750I0J269250D01*
G01*
G37*
G36*
G01*
X109424000Y-89481750D02*
X109424000Y-88518250D01*
G75*
G02*
X109693250Y-88249000I269250J0D01*
G01*
X110231750Y-88249000D01*
G75*
G02*
X110501000Y-88518250I0J-269250D01*
G01*
X110501000Y-89481750D01*
G75*
G02*
X110231750Y-89751000I-269250J0D01*
G01*
X109693250Y-89751000D01*
G75*
G02*
X109424000Y-89481750I0J269250D01*
G01*
G37*
G36*
G01*
X107549000Y-89481750D02*
X107549000Y-88518250D01*
G75*
G02*
X107818250Y-88249000I269250J0D01*
G01*
X108356750Y-88249000D01*
G75*
G02*
X108626000Y-88518250I0J-269250D01*
G01*
X108626000Y-89481750D01*
G75*
G02*
X108356750Y-89751000I-269250J0D01*
G01*
X107818250Y-89751000D01*
G75*
G02*
X107549000Y-89481750I0J269250D01*
G01*
G37*
G36*
G01*
X90490000Y-114166000D02*
X90490000Y-112066000D01*
G75*
G02*
X90541000Y-112015000I51000J0D01*
G01*
X96141000Y-112015000D01*
G75*
G02*
X96192000Y-112066000I0J-51000D01*
G01*
X96192000Y-114166000D01*
G75*
G02*
X96141000Y-114217000I-51000J0D01*
G01*
X90541000Y-114217000D01*
G75*
G02*
X90490000Y-114166000I0J51000D01*
G01*
G37*
G36*
G01*
X99490000Y-114166000D02*
X99490000Y-112066000D01*
G75*
G02*
X99541000Y-112015000I51000J0D01*
G01*
X105141000Y-112015000D01*
G75*
G02*
X105192000Y-112066000I0J-51000D01*
G01*
X105192000Y-114166000D01*
G75*
G02*
X105141000Y-114217000I-51000J0D01*
G01*
X99541000Y-114217000D01*
G75*
G02*
X99490000Y-114166000I0J51000D01*
G01*
G37*
G36*
G01*
X97249000Y-96975500D02*
X97249000Y-96149500D01*
G75*
G02*
X97324500Y-96074000I75500J0D01*
G01*
X97475500Y-96074000D01*
G75*
G02*
X97551000Y-96149500I0J-75500D01*
G01*
X97551000Y-96975500D01*
G75*
G02*
X97475500Y-97051000I-75500J0D01*
G01*
X97324500Y-97051000D01*
G75*
G02*
X97249000Y-96975500I0J75500D01*
G01*
G37*
G36*
G01*
X97649000Y-96975500D02*
X97649000Y-96149500D01*
G75*
G02*
X97724500Y-96074000I75500J0D01*
G01*
X97875500Y-96074000D01*
G75*
G02*
X97951000Y-96149500I0J-75500D01*
G01*
X97951000Y-96975500D01*
G75*
G02*
X97875500Y-97051000I-75500J0D01*
G01*
X97724500Y-97051000D01*
G75*
G02*
X97649000Y-96975500I0J75500D01*
G01*
G37*
G36*
G01*
X98049000Y-96975500D02*
X98049000Y-96149500D01*
G75*
G02*
X98124500Y-96074000I75500J0D01*
G01*
X98275500Y-96074000D01*
G75*
G02*
X98351000Y-96149500I0J-75500D01*
G01*
X98351000Y-96975500D01*
G75*
G02*
X98275500Y-97051000I-75500J0D01*
G01*
X98124500Y-97051000D01*
G75*
G02*
X98049000Y-96975500I0J75500D01*
G01*
G37*
G36*
G01*
X98449000Y-96975500D02*
X98449000Y-96149500D01*
G75*
G02*
X98524500Y-96074000I75500J0D01*
G01*
X98675500Y-96074000D01*
G75*
G02*
X98751000Y-96149500I0J-75500D01*
G01*
X98751000Y-96975500D01*
G75*
G02*
X98675500Y-97051000I-75500J0D01*
G01*
X98524500Y-97051000D01*
G75*
G02*
X98449000Y-96975500I0J75500D01*
G01*
G37*
G36*
G01*
X98849000Y-96975500D02*
X98849000Y-96149500D01*
G75*
G02*
X98924500Y-96074000I75500J0D01*
G01*
X99075500Y-96074000D01*
G75*
G02*
X99151000Y-96149500I0J-75500D01*
G01*
X99151000Y-96975500D01*
G75*
G02*
X99075500Y-97051000I-75500J0D01*
G01*
X98924500Y-97051000D01*
G75*
G02*
X98849000Y-96975500I0J75500D01*
G01*
G37*
G36*
G01*
X99249000Y-96975500D02*
X99249000Y-96149500D01*
G75*
G02*
X99324500Y-96074000I75500J0D01*
G01*
X99475500Y-96074000D01*
G75*
G02*
X99551000Y-96149500I0J-75500D01*
G01*
X99551000Y-96975500D01*
G75*
G02*
X99475500Y-97051000I-75500J0D01*
G01*
X99324500Y-97051000D01*
G75*
G02*
X99249000Y-96975500I0J75500D01*
G01*
G37*
G36*
G01*
X99649000Y-96975500D02*
X99649000Y-96149500D01*
G75*
G02*
X99724500Y-96074000I75500J0D01*
G01*
X99875500Y-96074000D01*
G75*
G02*
X99951000Y-96149500I0J-75500D01*
G01*
X99951000Y-96975500D01*
G75*
G02*
X99875500Y-97051000I-75500J0D01*
G01*
X99724500Y-97051000D01*
G75*
G02*
X99649000Y-96975500I0J75500D01*
G01*
G37*
G36*
G01*
X100049000Y-96975500D02*
X100049000Y-96149500D01*
G75*
G02*
X100124500Y-96074000I75500J0D01*
G01*
X100275500Y-96074000D01*
G75*
G02*
X100351000Y-96149500I0J-75500D01*
G01*
X100351000Y-96975500D01*
G75*
G02*
X100275500Y-97051000I-75500J0D01*
G01*
X100124500Y-97051000D01*
G75*
G02*
X100049000Y-96975500I0J75500D01*
G01*
G37*
G36*
G01*
X100449000Y-96975500D02*
X100449000Y-96149500D01*
G75*
G02*
X100524500Y-96074000I75500J0D01*
G01*
X100675500Y-96074000D01*
G75*
G02*
X100751000Y-96149500I0J-75500D01*
G01*
X100751000Y-96975500D01*
G75*
G02*
X100675500Y-97051000I-75500J0D01*
G01*
X100524500Y-97051000D01*
G75*
G02*
X100449000Y-96975500I0J75500D01*
G01*
G37*
G36*
G01*
X100849000Y-96975500D02*
X100849000Y-96149500D01*
G75*
G02*
X100924500Y-96074000I75500J0D01*
G01*
X101075500Y-96074000D01*
G75*
G02*
X101151000Y-96149500I0J-75500D01*
G01*
X101151000Y-96975500D01*
G75*
G02*
X101075500Y-97051000I-75500J0D01*
G01*
X100924500Y-97051000D01*
G75*
G02*
X100849000Y-96975500I0J75500D01*
G01*
G37*
G36*
G01*
X101249000Y-96975500D02*
X101249000Y-96149500D01*
G75*
G02*
X101324500Y-96074000I75500J0D01*
G01*
X101475500Y-96074000D01*
G75*
G02*
X101551000Y-96149500I0J-75500D01*
G01*
X101551000Y-96975500D01*
G75*
G02*
X101475500Y-97051000I-75500J0D01*
G01*
X101324500Y-97051000D01*
G75*
G02*
X101249000Y-96975500I0J75500D01*
G01*
G37*
G36*
G01*
X101649000Y-96975500D02*
X101649000Y-96149500D01*
G75*
G02*
X101724500Y-96074000I75500J0D01*
G01*
X101875500Y-96074000D01*
G75*
G02*
X101951000Y-96149500I0J-75500D01*
G01*
X101951000Y-96975500D01*
G75*
G02*
X101875500Y-97051000I-75500J0D01*
G01*
X101724500Y-97051000D01*
G75*
G02*
X101649000Y-96975500I0J75500D01*
G01*
G37*
G36*
G01*
X102049000Y-96975500D02*
X102049000Y-96149500D01*
G75*
G02*
X102124500Y-96074000I75500J0D01*
G01*
X102275500Y-96074000D01*
G75*
G02*
X102351000Y-96149500I0J-75500D01*
G01*
X102351000Y-96975500D01*
G75*
G02*
X102275500Y-97051000I-75500J0D01*
G01*
X102124500Y-97051000D01*
G75*
G02*
X102049000Y-96975500I0J75500D01*
G01*
G37*
G36*
G01*
X102449000Y-96975500D02*
X102449000Y-96149500D01*
G75*
G02*
X102524500Y-96074000I75500J0D01*
G01*
X102675500Y-96074000D01*
G75*
G02*
X102751000Y-96149500I0J-75500D01*
G01*
X102751000Y-96975500D01*
G75*
G02*
X102675500Y-97051000I-75500J0D01*
G01*
X102524500Y-97051000D01*
G75*
G02*
X102449000Y-96975500I0J75500D01*
G01*
G37*
G36*
G01*
X102949000Y-97475500D02*
X102949000Y-97324500D01*
G75*
G02*
X103024500Y-97249000I75500J0D01*
G01*
X103850500Y-97249000D01*
G75*
G02*
X103926000Y-97324500I0J-75500D01*
G01*
X103926000Y-97475500D01*
G75*
G02*
X103850500Y-97551000I-75500J0D01*
G01*
X103024500Y-97551000D01*
G75*
G02*
X102949000Y-97475500I0J75500D01*
G01*
G37*
G36*
G01*
X102949000Y-97875500D02*
X102949000Y-97724500D01*
G75*
G02*
X103024500Y-97649000I75500J0D01*
G01*
X103850500Y-97649000D01*
G75*
G02*
X103926000Y-97724500I0J-75500D01*
G01*
X103926000Y-97875500D01*
G75*
G02*
X103850500Y-97951000I-75500J0D01*
G01*
X103024500Y-97951000D01*
G75*
G02*
X102949000Y-97875500I0J75500D01*
G01*
G37*
G36*
G01*
X102949000Y-98275500D02*
X102949000Y-98124500D01*
G75*
G02*
X103024500Y-98049000I75500J0D01*
G01*
X103850500Y-98049000D01*
G75*
G02*
X103926000Y-98124500I0J-75500D01*
G01*
X103926000Y-98275500D01*
G75*
G02*
X103850500Y-98351000I-75500J0D01*
G01*
X103024500Y-98351000D01*
G75*
G02*
X102949000Y-98275500I0J75500D01*
G01*
G37*
G36*
G01*
X102949000Y-98675500D02*
X102949000Y-98524500D01*
G75*
G02*
X103024500Y-98449000I75500J0D01*
G01*
X103850500Y-98449000D01*
G75*
G02*
X103926000Y-98524500I0J-75500D01*
G01*
X103926000Y-98675500D01*
G75*
G02*
X103850500Y-98751000I-75500J0D01*
G01*
X103024500Y-98751000D01*
G75*
G02*
X102949000Y-98675500I0J75500D01*
G01*
G37*
G36*
G01*
X102949000Y-99075500D02*
X102949000Y-98924500D01*
G75*
G02*
X103024500Y-98849000I75500J0D01*
G01*
X103850500Y-98849000D01*
G75*
G02*
X103926000Y-98924500I0J-75500D01*
G01*
X103926000Y-99075500D01*
G75*
G02*
X103850500Y-99151000I-75500J0D01*
G01*
X103024500Y-99151000D01*
G75*
G02*
X102949000Y-99075500I0J75500D01*
G01*
G37*
G36*
G01*
X102949000Y-99475500D02*
X102949000Y-99324500D01*
G75*
G02*
X103024500Y-99249000I75500J0D01*
G01*
X103850500Y-99249000D01*
G75*
G02*
X103926000Y-99324500I0J-75500D01*
G01*
X103926000Y-99475500D01*
G75*
G02*
X103850500Y-99551000I-75500J0D01*
G01*
X103024500Y-99551000D01*
G75*
G02*
X102949000Y-99475500I0J75500D01*
G01*
G37*
G36*
G01*
X102949000Y-99875500D02*
X102949000Y-99724500D01*
G75*
G02*
X103024500Y-99649000I75500J0D01*
G01*
X103850500Y-99649000D01*
G75*
G02*
X103926000Y-99724500I0J-75500D01*
G01*
X103926000Y-99875500D01*
G75*
G02*
X103850500Y-99951000I-75500J0D01*
G01*
X103024500Y-99951000D01*
G75*
G02*
X102949000Y-99875500I0J75500D01*
G01*
G37*
G36*
G01*
X102949000Y-100275500D02*
X102949000Y-100124500D01*
G75*
G02*
X103024500Y-100049000I75500J0D01*
G01*
X103850500Y-100049000D01*
G75*
G02*
X103926000Y-100124500I0J-75500D01*
G01*
X103926000Y-100275500D01*
G75*
G02*
X103850500Y-100351000I-75500J0D01*
G01*
X103024500Y-100351000D01*
G75*
G02*
X102949000Y-100275500I0J75500D01*
G01*
G37*
G36*
G01*
X102949000Y-100675500D02*
X102949000Y-100524500D01*
G75*
G02*
X103024500Y-100449000I75500J0D01*
G01*
X103850500Y-100449000D01*
G75*
G02*
X103926000Y-100524500I0J-75500D01*
G01*
X103926000Y-100675500D01*
G75*
G02*
X103850500Y-100751000I-75500J0D01*
G01*
X103024500Y-100751000D01*
G75*
G02*
X102949000Y-100675500I0J75500D01*
G01*
G37*
G36*
G01*
X102949000Y-101075500D02*
X102949000Y-100924500D01*
G75*
G02*
X103024500Y-100849000I75500J0D01*
G01*
X103850500Y-100849000D01*
G75*
G02*
X103926000Y-100924500I0J-75500D01*
G01*
X103926000Y-101075500D01*
G75*
G02*
X103850500Y-101151000I-75500J0D01*
G01*
X103024500Y-101151000D01*
G75*
G02*
X102949000Y-101075500I0J75500D01*
G01*
G37*
G36*
G01*
X102949000Y-101475500D02*
X102949000Y-101324500D01*
G75*
G02*
X103024500Y-101249000I75500J0D01*
G01*
X103850500Y-101249000D01*
G75*
G02*
X103926000Y-101324500I0J-75500D01*
G01*
X103926000Y-101475500D01*
G75*
G02*
X103850500Y-101551000I-75500J0D01*
G01*
X103024500Y-101551000D01*
G75*
G02*
X102949000Y-101475500I0J75500D01*
G01*
G37*
G36*
G01*
X102949000Y-101875500D02*
X102949000Y-101724500D01*
G75*
G02*
X103024500Y-101649000I75500J0D01*
G01*
X103850500Y-101649000D01*
G75*
G02*
X103926000Y-101724500I0J-75500D01*
G01*
X103926000Y-101875500D01*
G75*
G02*
X103850500Y-101951000I-75500J0D01*
G01*
X103024500Y-101951000D01*
G75*
G02*
X102949000Y-101875500I0J75500D01*
G01*
G37*
G36*
G01*
X102949000Y-102275500D02*
X102949000Y-102124500D01*
G75*
G02*
X103024500Y-102049000I75500J0D01*
G01*
X103850500Y-102049000D01*
G75*
G02*
X103926000Y-102124500I0J-75500D01*
G01*
X103926000Y-102275500D01*
G75*
G02*
X103850500Y-102351000I-75500J0D01*
G01*
X103024500Y-102351000D01*
G75*
G02*
X102949000Y-102275500I0J75500D01*
G01*
G37*
G36*
G01*
X102949000Y-102675500D02*
X102949000Y-102524500D01*
G75*
G02*
X103024500Y-102449000I75500J0D01*
G01*
X103850500Y-102449000D01*
G75*
G02*
X103926000Y-102524500I0J-75500D01*
G01*
X103926000Y-102675500D01*
G75*
G02*
X103850500Y-102751000I-75500J0D01*
G01*
X103024500Y-102751000D01*
G75*
G02*
X102949000Y-102675500I0J75500D01*
G01*
G37*
G36*
G01*
X102449000Y-103850500D02*
X102449000Y-103024500D01*
G75*
G02*
X102524500Y-102949000I75500J0D01*
G01*
X102675500Y-102949000D01*
G75*
G02*
X102751000Y-103024500I0J-75500D01*
G01*
X102751000Y-103850500D01*
G75*
G02*
X102675500Y-103926000I-75500J0D01*
G01*
X102524500Y-103926000D01*
G75*
G02*
X102449000Y-103850500I0J75500D01*
G01*
G37*
G36*
G01*
X102049000Y-103850500D02*
X102049000Y-103024500D01*
G75*
G02*
X102124500Y-102949000I75500J0D01*
G01*
X102275500Y-102949000D01*
G75*
G02*
X102351000Y-103024500I0J-75500D01*
G01*
X102351000Y-103850500D01*
G75*
G02*
X102275500Y-103926000I-75500J0D01*
G01*
X102124500Y-103926000D01*
G75*
G02*
X102049000Y-103850500I0J75500D01*
G01*
G37*
G36*
G01*
X101649000Y-103850500D02*
X101649000Y-103024500D01*
G75*
G02*
X101724500Y-102949000I75500J0D01*
G01*
X101875500Y-102949000D01*
G75*
G02*
X101951000Y-103024500I0J-75500D01*
G01*
X101951000Y-103850500D01*
G75*
G02*
X101875500Y-103926000I-75500J0D01*
G01*
X101724500Y-103926000D01*
G75*
G02*
X101649000Y-103850500I0J75500D01*
G01*
G37*
G36*
G01*
X101249000Y-103850500D02*
X101249000Y-103024500D01*
G75*
G02*
X101324500Y-102949000I75500J0D01*
G01*
X101475500Y-102949000D01*
G75*
G02*
X101551000Y-103024500I0J-75500D01*
G01*
X101551000Y-103850500D01*
G75*
G02*
X101475500Y-103926000I-75500J0D01*
G01*
X101324500Y-103926000D01*
G75*
G02*
X101249000Y-103850500I0J75500D01*
G01*
G37*
G36*
G01*
X100849000Y-103850500D02*
X100849000Y-103024500D01*
G75*
G02*
X100924500Y-102949000I75500J0D01*
G01*
X101075500Y-102949000D01*
G75*
G02*
X101151000Y-103024500I0J-75500D01*
G01*
X101151000Y-103850500D01*
G75*
G02*
X101075500Y-103926000I-75500J0D01*
G01*
X100924500Y-103926000D01*
G75*
G02*
X100849000Y-103850500I0J75500D01*
G01*
G37*
G36*
G01*
X100449000Y-103850500D02*
X100449000Y-103024500D01*
G75*
G02*
X100524500Y-102949000I75500J0D01*
G01*
X100675500Y-102949000D01*
G75*
G02*
X100751000Y-103024500I0J-75500D01*
G01*
X100751000Y-103850500D01*
G75*
G02*
X100675500Y-103926000I-75500J0D01*
G01*
X100524500Y-103926000D01*
G75*
G02*
X100449000Y-103850500I0J75500D01*
G01*
G37*
G36*
G01*
X100049000Y-103850500D02*
X100049000Y-103024500D01*
G75*
G02*
X100124500Y-102949000I75500J0D01*
G01*
X100275500Y-102949000D01*
G75*
G02*
X100351000Y-103024500I0J-75500D01*
G01*
X100351000Y-103850500D01*
G75*
G02*
X100275500Y-103926000I-75500J0D01*
G01*
X100124500Y-103926000D01*
G75*
G02*
X100049000Y-103850500I0J75500D01*
G01*
G37*
G36*
G01*
X99649000Y-103850500D02*
X99649000Y-103024500D01*
G75*
G02*
X99724500Y-102949000I75500J0D01*
G01*
X99875500Y-102949000D01*
G75*
G02*
X99951000Y-103024500I0J-75500D01*
G01*
X99951000Y-103850500D01*
G75*
G02*
X99875500Y-103926000I-75500J0D01*
G01*
X99724500Y-103926000D01*
G75*
G02*
X99649000Y-103850500I0J75500D01*
G01*
G37*
G36*
G01*
X99249000Y-103850500D02*
X99249000Y-103024500D01*
G75*
G02*
X99324500Y-102949000I75500J0D01*
G01*
X99475500Y-102949000D01*
G75*
G02*
X99551000Y-103024500I0J-75500D01*
G01*
X99551000Y-103850500D01*
G75*
G02*
X99475500Y-103926000I-75500J0D01*
G01*
X99324500Y-103926000D01*
G75*
G02*
X99249000Y-103850500I0J75500D01*
G01*
G37*
G36*
G01*
X98849000Y-103850500D02*
X98849000Y-103024500D01*
G75*
G02*
X98924500Y-102949000I75500J0D01*
G01*
X99075500Y-102949000D01*
G75*
G02*
X99151000Y-103024500I0J-75500D01*
G01*
X99151000Y-103850500D01*
G75*
G02*
X99075500Y-103926000I-75500J0D01*
G01*
X98924500Y-103926000D01*
G75*
G02*
X98849000Y-103850500I0J75500D01*
G01*
G37*
G36*
G01*
X98449000Y-103850500D02*
X98449000Y-103024500D01*
G75*
G02*
X98524500Y-102949000I75500J0D01*
G01*
X98675500Y-102949000D01*
G75*
G02*
X98751000Y-103024500I0J-75500D01*
G01*
X98751000Y-103850500D01*
G75*
G02*
X98675500Y-103926000I-75500J0D01*
G01*
X98524500Y-103926000D01*
G75*
G02*
X98449000Y-103850500I0J75500D01*
G01*
G37*
G36*
G01*
X98049000Y-103850500D02*
X98049000Y-103024500D01*
G75*
G02*
X98124500Y-102949000I75500J0D01*
G01*
X98275500Y-102949000D01*
G75*
G02*
X98351000Y-103024500I0J-75500D01*
G01*
X98351000Y-103850500D01*
G75*
G02*
X98275500Y-103926000I-75500J0D01*
G01*
X98124500Y-103926000D01*
G75*
G02*
X98049000Y-103850500I0J75500D01*
G01*
G37*
G36*
G01*
X97649000Y-103850500D02*
X97649000Y-103024500D01*
G75*
G02*
X97724500Y-102949000I75500J0D01*
G01*
X97875500Y-102949000D01*
G75*
G02*
X97951000Y-103024500I0J-75500D01*
G01*
X97951000Y-103850500D01*
G75*
G02*
X97875500Y-103926000I-75500J0D01*
G01*
X97724500Y-103926000D01*
G75*
G02*
X97649000Y-103850500I0J75500D01*
G01*
G37*
G36*
G01*
X97249000Y-103850500D02*
X97249000Y-103024500D01*
G75*
G02*
X97324500Y-102949000I75500J0D01*
G01*
X97475500Y-102949000D01*
G75*
G02*
X97551000Y-103024500I0J-75500D01*
G01*
X97551000Y-103850500D01*
G75*
G02*
X97475500Y-103926000I-75500J0D01*
G01*
X97324500Y-103926000D01*
G75*
G02*
X97249000Y-103850500I0J75500D01*
G01*
G37*
G36*
G01*
X96074000Y-102675500D02*
X96074000Y-102524500D01*
G75*
G02*
X96149500Y-102449000I75500J0D01*
G01*
X96975500Y-102449000D01*
G75*
G02*
X97051000Y-102524500I0J-75500D01*
G01*
X97051000Y-102675500D01*
G75*
G02*
X96975500Y-102751000I-75500J0D01*
G01*
X96149500Y-102751000D01*
G75*
G02*
X96074000Y-102675500I0J75500D01*
G01*
G37*
G36*
G01*
X96074000Y-102275500D02*
X96074000Y-102124500D01*
G75*
G02*
X96149500Y-102049000I75500J0D01*
G01*
X96975500Y-102049000D01*
G75*
G02*
X97051000Y-102124500I0J-75500D01*
G01*
X97051000Y-102275500D01*
G75*
G02*
X96975500Y-102351000I-75500J0D01*
G01*
X96149500Y-102351000D01*
G75*
G02*
X96074000Y-102275500I0J75500D01*
G01*
G37*
G36*
G01*
X96074000Y-101875500D02*
X96074000Y-101724500D01*
G75*
G02*
X96149500Y-101649000I75500J0D01*
G01*
X96975500Y-101649000D01*
G75*
G02*
X97051000Y-101724500I0J-75500D01*
G01*
X97051000Y-101875500D01*
G75*
G02*
X96975500Y-101951000I-75500J0D01*
G01*
X96149500Y-101951000D01*
G75*
G02*
X96074000Y-101875500I0J75500D01*
G01*
G37*
G36*
G01*
X96074000Y-101475500D02*
X96074000Y-101324500D01*
G75*
G02*
X96149500Y-101249000I75500J0D01*
G01*
X96975500Y-101249000D01*
G75*
G02*
X97051000Y-101324500I0J-75500D01*
G01*
X97051000Y-101475500D01*
G75*
G02*
X96975500Y-101551000I-75500J0D01*
G01*
X96149500Y-101551000D01*
G75*
G02*
X96074000Y-101475500I0J75500D01*
G01*
G37*
G36*
G01*
X96074000Y-101075500D02*
X96074000Y-100924500D01*
G75*
G02*
X96149500Y-100849000I75500J0D01*
G01*
X96975500Y-100849000D01*
G75*
G02*
X97051000Y-100924500I0J-75500D01*
G01*
X97051000Y-101075500D01*
G75*
G02*
X96975500Y-101151000I-75500J0D01*
G01*
X96149500Y-101151000D01*
G75*
G02*
X96074000Y-101075500I0J75500D01*
G01*
G37*
G36*
G01*
X96074000Y-100675500D02*
X96074000Y-100524500D01*
G75*
G02*
X96149500Y-100449000I75500J0D01*
G01*
X96975500Y-100449000D01*
G75*
G02*
X97051000Y-100524500I0J-75500D01*
G01*
X97051000Y-100675500D01*
G75*
G02*
X96975500Y-100751000I-75500J0D01*
G01*
X96149500Y-100751000D01*
G75*
G02*
X96074000Y-100675500I0J75500D01*
G01*
G37*
G36*
G01*
X96074000Y-100275500D02*
X96074000Y-100124500D01*
G75*
G02*
X96149500Y-100049000I75500J0D01*
G01*
X96975500Y-100049000D01*
G75*
G02*
X97051000Y-100124500I0J-75500D01*
G01*
X97051000Y-100275500D01*
G75*
G02*
X96975500Y-100351000I-75500J0D01*
G01*
X96149500Y-100351000D01*
G75*
G02*
X96074000Y-100275500I0J75500D01*
G01*
G37*
G36*
G01*
X96074000Y-99875500D02*
X96074000Y-99724500D01*
G75*
G02*
X96149500Y-99649000I75500J0D01*
G01*
X96975500Y-99649000D01*
G75*
G02*
X97051000Y-99724500I0J-75500D01*
G01*
X97051000Y-99875500D01*
G75*
G02*
X96975500Y-99951000I-75500J0D01*
G01*
X96149500Y-99951000D01*
G75*
G02*
X96074000Y-99875500I0J75500D01*
G01*
G37*
G36*
G01*
X96074000Y-99475500D02*
X96074000Y-99324500D01*
G75*
G02*
X96149500Y-99249000I75500J0D01*
G01*
X96975500Y-99249000D01*
G75*
G02*
X97051000Y-99324500I0J-75500D01*
G01*
X97051000Y-99475500D01*
G75*
G02*
X96975500Y-99551000I-75500J0D01*
G01*
X96149500Y-99551000D01*
G75*
G02*
X96074000Y-99475500I0J75500D01*
G01*
G37*
G36*
G01*
X96074000Y-99075500D02*
X96074000Y-98924500D01*
G75*
G02*
X96149500Y-98849000I75500J0D01*
G01*
X96975500Y-98849000D01*
G75*
G02*
X97051000Y-98924500I0J-75500D01*
G01*
X97051000Y-99075500D01*
G75*
G02*
X96975500Y-99151000I-75500J0D01*
G01*
X96149500Y-99151000D01*
G75*
G02*
X96074000Y-99075500I0J75500D01*
G01*
G37*
G36*
G01*
X96074000Y-98675500D02*
X96074000Y-98524500D01*
G75*
G02*
X96149500Y-98449000I75500J0D01*
G01*
X96975500Y-98449000D01*
G75*
G02*
X97051000Y-98524500I0J-75500D01*
G01*
X97051000Y-98675500D01*
G75*
G02*
X96975500Y-98751000I-75500J0D01*
G01*
X96149500Y-98751000D01*
G75*
G02*
X96074000Y-98675500I0J75500D01*
G01*
G37*
G36*
G01*
X96074000Y-98275500D02*
X96074000Y-98124500D01*
G75*
G02*
X96149500Y-98049000I75500J0D01*
G01*
X96975500Y-98049000D01*
G75*
G02*
X97051000Y-98124500I0J-75500D01*
G01*
X97051000Y-98275500D01*
G75*
G02*
X96975500Y-98351000I-75500J0D01*
G01*
X96149500Y-98351000D01*
G75*
G02*
X96074000Y-98275500I0J75500D01*
G01*
G37*
G36*
G01*
X96074000Y-97875500D02*
X96074000Y-97724500D01*
G75*
G02*
X96149500Y-97649000I75500J0D01*
G01*
X96975500Y-97649000D01*
G75*
G02*
X97051000Y-97724500I0J-75500D01*
G01*
X97051000Y-97875500D01*
G75*
G02*
X96975500Y-97951000I-75500J0D01*
G01*
X96149500Y-97951000D01*
G75*
G02*
X96074000Y-97875500I0J75500D01*
G01*
G37*
G36*
G01*
X96074000Y-97475500D02*
X96074000Y-97324500D01*
G75*
G02*
X96149500Y-97249000I75500J0D01*
G01*
X96975500Y-97249000D01*
G75*
G02*
X97051000Y-97324500I0J-75500D01*
G01*
X97051000Y-97475500D01*
G75*
G02*
X96975500Y-97551000I-75500J0D01*
G01*
X96149500Y-97551000D01*
G75*
G02*
X96074000Y-97475500I0J75500D01*
G01*
G37*
G36*
G01*
X98349000Y-101502410D02*
X98349000Y-98497590D01*
G75*
G02*
X98497590Y-98349000I148590J0D01*
G01*
X101502410Y-98349000D01*
G75*
G02*
X101651000Y-98497590I0J-148590D01*
G01*
X101651000Y-101502410D01*
G75*
G02*
X101502410Y-101651000I-148590J0D01*
G01*
X98497590Y-101651000D01*
G75*
G02*
X98349000Y-101502410I0J148590D01*
G01*
G37*
G36*
G01*
X98502000Y-107254000D02*
X98898000Y-107254000D01*
G75*
G02*
X99071000Y-107427000I0J-173000D01*
G01*
X99071000Y-107773000D01*
G75*
G02*
X98898000Y-107946000I-173000J0D01*
G01*
X98502000Y-107946000D01*
G75*
G02*
X98329000Y-107773000I0J173000D01*
G01*
X98329000Y-107427000D01*
G75*
G02*
X98502000Y-107254000I173000J0D01*
G01*
G37*
G36*
G01*
X98502000Y-106284000D02*
X98898000Y-106284000D01*
G75*
G02*
X99071000Y-106457000I0J-173000D01*
G01*
X99071000Y-106803000D01*
G75*
G02*
X98898000Y-106976000I-173000J0D01*
G01*
X98502000Y-106976000D01*
G75*
G02*
X98329000Y-106803000I0J173000D01*
G01*
X98329000Y-106457000D01*
G75*
G02*
X98502000Y-106284000I173000J0D01*
G01*
G37*
D13*
X86030000Y-117180000D03*
X113970000Y-117180000D03*
X113970000Y-74000000D03*
X86030000Y-74000000D03*
G36*
G01*
X101802000Y-93654000D02*
X102198000Y-93654000D01*
G75*
G02*
X102371000Y-93827000I0J-173000D01*
G01*
X102371000Y-94173000D01*
G75*
G02*
X102198000Y-94346000I-173000J0D01*
G01*
X101802000Y-94346000D01*
G75*
G02*
X101629000Y-94173000I0J173000D01*
G01*
X101629000Y-93827000D01*
G75*
G02*
X101802000Y-93654000I173000J0D01*
G01*
G37*
G36*
G01*
X101802000Y-92684000D02*
X102198000Y-92684000D01*
G75*
G02*
X102371000Y-92857000I0J-173000D01*
G01*
X102371000Y-93203000D01*
G75*
G02*
X102198000Y-93376000I-173000J0D01*
G01*
X101802000Y-93376000D01*
G75*
G02*
X101629000Y-93203000I0J173000D01*
G01*
X101629000Y-92857000D01*
G75*
G02*
X101802000Y-92684000I173000J0D01*
G01*
G37*
G36*
G01*
X100802000Y-93654000D02*
X101198000Y-93654000D01*
G75*
G02*
X101371000Y-93827000I0J-173000D01*
G01*
X101371000Y-94173000D01*
G75*
G02*
X101198000Y-94346000I-173000J0D01*
G01*
X100802000Y-94346000D01*
G75*
G02*
X100629000Y-94173000I0J173000D01*
G01*
X100629000Y-93827000D01*
G75*
G02*
X100802000Y-93654000I173000J0D01*
G01*
G37*
G36*
G01*
X100802000Y-92684000D02*
X101198000Y-92684000D01*
G75*
G02*
X101371000Y-92857000I0J-173000D01*
G01*
X101371000Y-93203000D01*
G75*
G02*
X101198000Y-93376000I-173000J0D01*
G01*
X100802000Y-93376000D01*
G75*
G02*
X100629000Y-93203000I0J173000D01*
G01*
X100629000Y-92857000D01*
G75*
G02*
X100802000Y-92684000I173000J0D01*
G01*
G37*
G36*
G01*
X89302000Y-82454000D02*
X89698000Y-82454000D01*
G75*
G02*
X89871000Y-82627000I0J-173000D01*
G01*
X89871000Y-82973000D01*
G75*
G02*
X89698000Y-83146000I-173000J0D01*
G01*
X89302000Y-83146000D01*
G75*
G02*
X89129000Y-82973000I0J173000D01*
G01*
X89129000Y-82627000D01*
G75*
G02*
X89302000Y-82454000I173000J0D01*
G01*
G37*
G36*
G01*
X89302000Y-81484000D02*
X89698000Y-81484000D01*
G75*
G02*
X89871000Y-81657000I0J-173000D01*
G01*
X89871000Y-82003000D01*
G75*
G02*
X89698000Y-82176000I-173000J0D01*
G01*
X89302000Y-82176000D01*
G75*
G02*
X89129000Y-82003000I0J173000D01*
G01*
X89129000Y-81657000D01*
G75*
G02*
X89302000Y-81484000I173000J0D01*
G01*
G37*
G36*
G01*
X91198000Y-82176000D02*
X90802000Y-82176000D01*
G75*
G02*
X90629000Y-82003000I0J173000D01*
G01*
X90629000Y-81657000D01*
G75*
G02*
X90802000Y-81484000I173000J0D01*
G01*
X91198000Y-81484000D01*
G75*
G02*
X91371000Y-81657000I0J-173000D01*
G01*
X91371000Y-82003000D01*
G75*
G02*
X91198000Y-82176000I-173000J0D01*
G01*
G37*
G36*
G01*
X91198000Y-83146000D02*
X90802000Y-83146000D01*
G75*
G02*
X90629000Y-82973000I0J173000D01*
G01*
X90629000Y-82627000D01*
G75*
G02*
X90802000Y-82454000I173000J0D01*
G01*
X91198000Y-82454000D01*
G75*
G02*
X91371000Y-82627000I0J-173000D01*
G01*
X91371000Y-82973000D01*
G75*
G02*
X91198000Y-83146000I-173000J0D01*
G01*
G37*
G36*
G01*
X106624000Y-94798000D02*
X106624000Y-94402000D01*
G75*
G02*
X106797000Y-94229000I173000J0D01*
G01*
X107143000Y-94229000D01*
G75*
G02*
X107316000Y-94402000I0J-173000D01*
G01*
X107316000Y-94798000D01*
G75*
G02*
X107143000Y-94971000I-173000J0D01*
G01*
X106797000Y-94971000D01*
G75*
G02*
X106624000Y-94798000I0J173000D01*
G01*
G37*
G36*
G01*
X105654000Y-94798000D02*
X105654000Y-94402000D01*
G75*
G02*
X105827000Y-94229000I173000J0D01*
G01*
X106173000Y-94229000D01*
G75*
G02*
X106346000Y-94402000I0J-173000D01*
G01*
X106346000Y-94798000D01*
G75*
G02*
X106173000Y-94971000I-173000J0D01*
G01*
X105827000Y-94971000D01*
G75*
G02*
X105654000Y-94798000I0J173000D01*
G01*
G37*
G36*
G01*
X106624000Y-96198000D02*
X106624000Y-95802000D01*
G75*
G02*
X106797000Y-95629000I173000J0D01*
G01*
X107143000Y-95629000D01*
G75*
G02*
X107316000Y-95802000I0J-173000D01*
G01*
X107316000Y-96198000D01*
G75*
G02*
X107143000Y-96371000I-173000J0D01*
G01*
X106797000Y-96371000D01*
G75*
G02*
X106624000Y-96198000I0J173000D01*
G01*
G37*
G36*
G01*
X105654000Y-96198000D02*
X105654000Y-95802000D01*
G75*
G02*
X105827000Y-95629000I173000J0D01*
G01*
X106173000Y-95629000D01*
G75*
G02*
X106346000Y-95802000I0J-173000D01*
G01*
X106346000Y-96198000D01*
G75*
G02*
X106173000Y-96371000I-173000J0D01*
G01*
X105827000Y-96371000D01*
G75*
G02*
X105654000Y-96198000I0J173000D01*
G01*
G37*
G36*
G01*
X100183000Y-106624000D02*
X100579000Y-106624000D01*
G75*
G02*
X100752000Y-106797000I0J-173000D01*
G01*
X100752000Y-107143000D01*
G75*
G02*
X100579000Y-107316000I-173000J0D01*
G01*
X100183000Y-107316000D01*
G75*
G02*
X100010000Y-107143000I0J173000D01*
G01*
X100010000Y-106797000D01*
G75*
G02*
X100183000Y-106624000I173000J0D01*
G01*
G37*
G36*
G01*
X100183000Y-105654000D02*
X100579000Y-105654000D01*
G75*
G02*
X100752000Y-105827000I0J-173000D01*
G01*
X100752000Y-106173000D01*
G75*
G02*
X100579000Y-106346000I-173000J0D01*
G01*
X100183000Y-106346000D01*
G75*
G02*
X100010000Y-106173000I0J173000D01*
G01*
X100010000Y-105827000D01*
G75*
G02*
X100183000Y-105654000I173000J0D01*
G01*
G37*
G36*
G01*
X93376000Y-101002000D02*
X93376000Y-101398000D01*
G75*
G02*
X93203000Y-101571000I-173000J0D01*
G01*
X92857000Y-101571000D01*
G75*
G02*
X92684000Y-101398000I0J173000D01*
G01*
X92684000Y-101002000D01*
G75*
G02*
X92857000Y-100829000I173000J0D01*
G01*
X93203000Y-100829000D01*
G75*
G02*
X93376000Y-101002000I0J-173000D01*
G01*
G37*
G36*
G01*
X94346000Y-101002000D02*
X94346000Y-101398000D01*
G75*
G02*
X94173000Y-101571000I-173000J0D01*
G01*
X93827000Y-101571000D01*
G75*
G02*
X93654000Y-101398000I0J173000D01*
G01*
X93654000Y-101002000D01*
G75*
G02*
X93827000Y-100829000I173000J0D01*
G01*
X94173000Y-100829000D01*
G75*
G02*
X94346000Y-101002000I0J-173000D01*
G01*
G37*
G36*
G01*
X106624000Y-101398000D02*
X106624000Y-101002000D01*
G75*
G02*
X106797000Y-100829000I173000J0D01*
G01*
X107143000Y-100829000D01*
G75*
G02*
X107316000Y-101002000I0J-173000D01*
G01*
X107316000Y-101398000D01*
G75*
G02*
X107143000Y-101571000I-173000J0D01*
G01*
X106797000Y-101571000D01*
G75*
G02*
X106624000Y-101398000I0J173000D01*
G01*
G37*
G36*
G01*
X105654000Y-101398000D02*
X105654000Y-101002000D01*
G75*
G02*
X105827000Y-100829000I173000J0D01*
G01*
X106173000Y-100829000D01*
G75*
G02*
X106346000Y-101002000I0J-173000D01*
G01*
X106346000Y-101398000D01*
G75*
G02*
X106173000Y-101571000I-173000J0D01*
G01*
X105827000Y-101571000D01*
G75*
G02*
X105654000Y-101398000I0J173000D01*
G01*
G37*
G36*
G01*
X93376000Y-96802000D02*
X93376000Y-97198000D01*
G75*
G02*
X93203000Y-97371000I-173000J0D01*
G01*
X92857000Y-97371000D01*
G75*
G02*
X92684000Y-97198000I0J173000D01*
G01*
X92684000Y-96802000D01*
G75*
G02*
X92857000Y-96629000I173000J0D01*
G01*
X93203000Y-96629000D01*
G75*
G02*
X93376000Y-96802000I0J-173000D01*
G01*
G37*
G36*
G01*
X94346000Y-96802000D02*
X94346000Y-97198000D01*
G75*
G02*
X94173000Y-97371000I-173000J0D01*
G01*
X93827000Y-97371000D01*
G75*
G02*
X93654000Y-97198000I0J173000D01*
G01*
X93654000Y-96802000D01*
G75*
G02*
X93827000Y-96629000I173000J0D01*
G01*
X94173000Y-96629000D01*
G75*
G02*
X94346000Y-96802000I0J-173000D01*
G01*
G37*
G36*
G01*
X104198000Y-93376000D02*
X103802000Y-93376000D01*
G75*
G02*
X103629000Y-93203000I0J173000D01*
G01*
X103629000Y-92857000D01*
G75*
G02*
X103802000Y-92684000I173000J0D01*
G01*
X104198000Y-92684000D01*
G75*
G02*
X104371000Y-92857000I0J-173000D01*
G01*
X104371000Y-93203000D01*
G75*
G02*
X104198000Y-93376000I-173000J0D01*
G01*
G37*
G36*
G01*
X104198000Y-94346000D02*
X103802000Y-94346000D01*
G75*
G02*
X103629000Y-94173000I0J173000D01*
G01*
X103629000Y-93827000D01*
G75*
G02*
X103802000Y-93654000I173000J0D01*
G01*
X104198000Y-93654000D01*
G75*
G02*
X104371000Y-93827000I0J-173000D01*
G01*
X104371000Y-94173000D01*
G75*
G02*
X104198000Y-94346000I-173000J0D01*
G01*
G37*
G36*
G01*
X100198000Y-92376000D02*
X99802000Y-92376000D01*
G75*
G02*
X99629000Y-92203000I0J173000D01*
G01*
X99629000Y-91857000D01*
G75*
G02*
X99802000Y-91684000I173000J0D01*
G01*
X100198000Y-91684000D01*
G75*
G02*
X100371000Y-91857000I0J-173000D01*
G01*
X100371000Y-92203000D01*
G75*
G02*
X100198000Y-92376000I-173000J0D01*
G01*
G37*
G36*
G01*
X100198000Y-93346000D02*
X99802000Y-93346000D01*
G75*
G02*
X99629000Y-93173000I0J173000D01*
G01*
X99629000Y-92827000D01*
G75*
G02*
X99802000Y-92654000I173000J0D01*
G01*
X100198000Y-92654000D01*
G75*
G02*
X100371000Y-92827000I0J-173000D01*
G01*
X100371000Y-93173000D01*
G75*
G02*
X100198000Y-93346000I-173000J0D01*
G01*
G37*
G36*
G01*
X103198000Y-93376000D02*
X102802000Y-93376000D01*
G75*
G02*
X102629000Y-93203000I0J173000D01*
G01*
X102629000Y-92857000D01*
G75*
G02*
X102802000Y-92684000I173000J0D01*
G01*
X103198000Y-92684000D01*
G75*
G02*
X103371000Y-92857000I0J-173000D01*
G01*
X103371000Y-93203000D01*
G75*
G02*
X103198000Y-93376000I-173000J0D01*
G01*
G37*
G36*
G01*
X103198000Y-94346000D02*
X102802000Y-94346000D01*
G75*
G02*
X102629000Y-94173000I0J173000D01*
G01*
X102629000Y-93827000D01*
G75*
G02*
X102802000Y-93654000I173000J0D01*
G01*
X103198000Y-93654000D01*
G75*
G02*
X103371000Y-93827000I0J-173000D01*
G01*
X103371000Y-94173000D01*
G75*
G02*
X103198000Y-94346000I-173000J0D01*
G01*
G37*
G36*
G01*
X101302000Y-106624000D02*
X101698000Y-106624000D01*
G75*
G02*
X101871000Y-106797000I0J-173000D01*
G01*
X101871000Y-107143000D01*
G75*
G02*
X101698000Y-107316000I-173000J0D01*
G01*
X101302000Y-107316000D01*
G75*
G02*
X101129000Y-107143000I0J173000D01*
G01*
X101129000Y-106797000D01*
G75*
G02*
X101302000Y-106624000I173000J0D01*
G01*
G37*
G36*
G01*
X101302000Y-105654000D02*
X101698000Y-105654000D01*
G75*
G02*
X101871000Y-105827000I0J-173000D01*
G01*
X101871000Y-106173000D01*
G75*
G02*
X101698000Y-106346000I-173000J0D01*
G01*
X101302000Y-106346000D01*
G75*
G02*
X101129000Y-106173000I0J173000D01*
G01*
X101129000Y-105827000D01*
G75*
G02*
X101302000Y-105654000I173000J0D01*
G01*
G37*
G36*
G01*
X99198000Y-92376000D02*
X98802000Y-92376000D01*
G75*
G02*
X98629000Y-92203000I0J173000D01*
G01*
X98629000Y-91857000D01*
G75*
G02*
X98802000Y-91684000I173000J0D01*
G01*
X99198000Y-91684000D01*
G75*
G02*
X99371000Y-91857000I0J-173000D01*
G01*
X99371000Y-92203000D01*
G75*
G02*
X99198000Y-92376000I-173000J0D01*
G01*
G37*
G36*
G01*
X99198000Y-93346000D02*
X98802000Y-93346000D01*
G75*
G02*
X98629000Y-93173000I0J173000D01*
G01*
X98629000Y-92827000D01*
G75*
G02*
X98802000Y-92654000I173000J0D01*
G01*
X99198000Y-92654000D01*
G75*
G02*
X99371000Y-92827000I0J-173000D01*
G01*
X99371000Y-93173000D01*
G75*
G02*
X99198000Y-93346000I-173000J0D01*
G01*
G37*
G36*
G01*
X96046000Y-82632000D02*
X96046000Y-83028000D01*
G75*
G02*
X95873000Y-83201000I-173000J0D01*
G01*
X95527000Y-83201000D01*
G75*
G02*
X95354000Y-83028000I0J173000D01*
G01*
X95354000Y-82632000D01*
G75*
G02*
X95527000Y-82459000I173000J0D01*
G01*
X95873000Y-82459000D01*
G75*
G02*
X96046000Y-82632000I0J-173000D01*
G01*
G37*
G36*
G01*
X97016000Y-82632000D02*
X97016000Y-83028000D01*
G75*
G02*
X96843000Y-83201000I-173000J0D01*
G01*
X96497000Y-83201000D01*
G75*
G02*
X96324000Y-83028000I0J173000D01*
G01*
X96324000Y-82632000D01*
G75*
G02*
X96497000Y-82459000I173000J0D01*
G01*
X96843000Y-82459000D01*
G75*
G02*
X97016000Y-82632000I0J-173000D01*
G01*
G37*
G36*
G01*
X99624000Y-109198000D02*
X99624000Y-108802000D01*
G75*
G02*
X99797000Y-108629000I173000J0D01*
G01*
X100143000Y-108629000D01*
G75*
G02*
X100316000Y-108802000I0J-173000D01*
G01*
X100316000Y-109198000D01*
G75*
G02*
X100143000Y-109371000I-173000J0D01*
G01*
X99797000Y-109371000D01*
G75*
G02*
X99624000Y-109198000I0J173000D01*
G01*
G37*
G36*
G01*
X98654000Y-109198000D02*
X98654000Y-108802000D01*
G75*
G02*
X98827000Y-108629000I173000J0D01*
G01*
X99173000Y-108629000D01*
G75*
G02*
X99346000Y-108802000I0J-173000D01*
G01*
X99346000Y-109198000D01*
G75*
G02*
X99173000Y-109371000I-173000J0D01*
G01*
X98827000Y-109371000D01*
G75*
G02*
X98654000Y-109198000I0J173000D01*
G01*
G37*
G36*
G01*
X96376000Y-108802000D02*
X96376000Y-109198000D01*
G75*
G02*
X96203000Y-109371000I-173000J0D01*
G01*
X95857000Y-109371000D01*
G75*
G02*
X95684000Y-109198000I0J173000D01*
G01*
X95684000Y-108802000D01*
G75*
G02*
X95857000Y-108629000I173000J0D01*
G01*
X96203000Y-108629000D01*
G75*
G02*
X96376000Y-108802000I0J-173000D01*
G01*
G37*
G36*
G01*
X97346000Y-108802000D02*
X97346000Y-109198000D01*
G75*
G02*
X97173000Y-109371000I-173000J0D01*
G01*
X96827000Y-109371000D01*
G75*
G02*
X96654000Y-109198000I0J173000D01*
G01*
X96654000Y-108802000D01*
G75*
G02*
X96827000Y-108629000I173000J0D01*
G01*
X97173000Y-108629000D01*
G75*
G02*
X97346000Y-108802000I0J-173000D01*
G01*
G37*
G36*
G01*
X108336500Y-76981750D02*
X108336500Y-76018250D01*
G75*
G02*
X108605750Y-75749000I269250J0D01*
G01*
X109144250Y-75749000D01*
G75*
G02*
X109413500Y-76018250I0J-269250D01*
G01*
X109413500Y-76981750D01*
G75*
G02*
X109144250Y-77251000I-269250J0D01*
G01*
X108605750Y-77251000D01*
G75*
G02*
X108336500Y-76981750I0J269250D01*
G01*
G37*
G36*
G01*
X106461500Y-76981750D02*
X106461500Y-76018250D01*
G75*
G02*
X106730750Y-75749000I269250J0D01*
G01*
X107269250Y-75749000D01*
G75*
G02*
X107538500Y-76018250I0J-269250D01*
G01*
X107538500Y-76981750D01*
G75*
G02*
X107269250Y-77251000I-269250J0D01*
G01*
X106730750Y-77251000D01*
G75*
G02*
X106461500Y-76981750I0J269250D01*
G01*
G37*
G36*
G01*
X95799000Y-85545500D02*
X95799000Y-85194500D01*
G75*
G02*
X95974500Y-85019000I175500J0D01*
G01*
X97325500Y-85019000D01*
G75*
G02*
X97501000Y-85194500I0J-175500D01*
G01*
X97501000Y-85545500D01*
G75*
G02*
X97325500Y-85721000I-175500J0D01*
G01*
X95974500Y-85721000D01*
G75*
G02*
X95799000Y-85545500I0J175500D01*
G01*
G37*
G36*
G01*
X95799000Y-86815500D02*
X95799000Y-86464500D01*
G75*
G02*
X95974500Y-86289000I175500J0D01*
G01*
X97325500Y-86289000D01*
G75*
G02*
X97501000Y-86464500I0J-175500D01*
G01*
X97501000Y-86815500D01*
G75*
G02*
X97325500Y-86991000I-175500J0D01*
G01*
X95974500Y-86991000D01*
G75*
G02*
X95799000Y-86815500I0J175500D01*
G01*
G37*
G36*
G01*
X95799000Y-88085500D02*
X95799000Y-87734500D01*
G75*
G02*
X95974500Y-87559000I175500J0D01*
G01*
X97325500Y-87559000D01*
G75*
G02*
X97501000Y-87734500I0J-175500D01*
G01*
X97501000Y-88085500D01*
G75*
G02*
X97325500Y-88261000I-175500J0D01*
G01*
X95974500Y-88261000D01*
G75*
G02*
X95799000Y-88085500I0J175500D01*
G01*
G37*
G36*
G01*
X95799000Y-89355500D02*
X95799000Y-89004500D01*
G75*
G02*
X95974500Y-88829000I175500J0D01*
G01*
X97325500Y-88829000D01*
G75*
G02*
X97501000Y-89004500I0J-175500D01*
G01*
X97501000Y-89355500D01*
G75*
G02*
X97325500Y-89531000I-175500J0D01*
G01*
X95974500Y-89531000D01*
G75*
G02*
X95799000Y-89355500I0J175500D01*
G01*
G37*
G36*
G01*
X88599000Y-89355500D02*
X88599000Y-89004500D01*
G75*
G02*
X88774500Y-88829000I175500J0D01*
G01*
X90125500Y-88829000D01*
G75*
G02*
X90301000Y-89004500I0J-175500D01*
G01*
X90301000Y-89355500D01*
G75*
G02*
X90125500Y-89531000I-175500J0D01*
G01*
X88774500Y-89531000D01*
G75*
G02*
X88599000Y-89355500I0J175500D01*
G01*
G37*
G36*
G01*
X88599000Y-88085500D02*
X88599000Y-87734500D01*
G75*
G02*
X88774500Y-87559000I175500J0D01*
G01*
X90125500Y-87559000D01*
G75*
G02*
X90301000Y-87734500I0J-175500D01*
G01*
X90301000Y-88085500D01*
G75*
G02*
X90125500Y-88261000I-175500J0D01*
G01*
X88774500Y-88261000D01*
G75*
G02*
X88599000Y-88085500I0J175500D01*
G01*
G37*
G36*
G01*
X88599000Y-86815500D02*
X88599000Y-86464500D01*
G75*
G02*
X88774500Y-86289000I175500J0D01*
G01*
X90125500Y-86289000D01*
G75*
G02*
X90301000Y-86464500I0J-175500D01*
G01*
X90301000Y-86815500D01*
G75*
G02*
X90125500Y-86991000I-175500J0D01*
G01*
X88774500Y-86991000D01*
G75*
G02*
X88599000Y-86815500I0J175500D01*
G01*
G37*
G36*
G01*
X88599000Y-85545500D02*
X88599000Y-85194500D01*
G75*
G02*
X88774500Y-85019000I175500J0D01*
G01*
X90125500Y-85019000D01*
G75*
G02*
X90301000Y-85194500I0J-175500D01*
G01*
X90301000Y-85545500D01*
G75*
G02*
X90125500Y-85721000I-175500J0D01*
G01*
X88774500Y-85721000D01*
G75*
G02*
X88599000Y-85545500I0J175500D01*
G01*
G37*
G36*
G01*
X109550000Y-78649000D02*
X111050000Y-78649000D01*
G75*
G02*
X111101000Y-78700000I0J-51000D01*
G01*
X111101000Y-80700000D01*
G75*
G02*
X111050000Y-80751000I-51000J0D01*
G01*
X109550000Y-80751000D01*
G75*
G02*
X109499000Y-80700000I0J51000D01*
G01*
X109499000Y-78700000D01*
G75*
G02*
X109550000Y-78649000I51000J0D01*
G01*
G37*
G36*
G01*
X104950000Y-78649000D02*
X106450000Y-78649000D01*
G75*
G02*
X106501000Y-78700000I0J-51000D01*
G01*
X106501000Y-80700000D01*
G75*
G02*
X106450000Y-80751000I-51000J0D01*
G01*
X104950000Y-80751000D01*
G75*
G02*
X104899000Y-80700000I0J51000D01*
G01*
X104899000Y-78700000D01*
G75*
G02*
X104950000Y-78649000I51000J0D01*
G01*
G37*
G36*
G01*
X107250000Y-78649000D02*
X108750000Y-78649000D01*
G75*
G02*
X108801000Y-78700000I0J-51000D01*
G01*
X108801000Y-80700000D01*
G75*
G02*
X108750000Y-80751000I-51000J0D01*
G01*
X107250000Y-80751000D01*
G75*
G02*
X107199000Y-80700000I0J51000D01*
G01*
X107199000Y-78700000D01*
G75*
G02*
X107250000Y-78649000I51000J0D01*
G01*
G37*
G36*
G01*
X106100000Y-84949000D02*
X109900000Y-84949000D01*
G75*
G02*
X109951000Y-85000000I0J-51000D01*
G01*
X109951000Y-87000000D01*
G75*
G02*
X109900000Y-87051000I-51000J0D01*
G01*
X106100000Y-87051000D01*
G75*
G02*
X106049000Y-87000000I0J51000D01*
G01*
X106049000Y-85000000D01*
G75*
G02*
X106100000Y-84949000I51000J0D01*
G01*
G37*
D14*
X124130000Y-117180000D03*
X121590000Y-117180000D03*
X124130000Y-114640000D03*
X121590000Y-114640000D03*
X124130000Y-112100000D03*
X121590000Y-112100000D03*
X124130000Y-109560000D03*
X121590000Y-109560000D03*
X124130000Y-107020000D03*
X121590000Y-107020000D03*
X124130000Y-104480000D03*
X121590000Y-104480000D03*
X124130000Y-101940000D03*
X121590000Y-101940000D03*
X124130000Y-99400000D03*
X121590000Y-99400000D03*
X124130000Y-96860000D03*
X121590000Y-96860000D03*
X124130000Y-94320000D03*
X121590000Y-94320000D03*
X124130000Y-91780000D03*
X121590000Y-91780000D03*
X124130000Y-89240000D03*
X121590000Y-89240000D03*
X124130000Y-86700000D03*
X121590000Y-86700000D03*
X124130000Y-84160000D03*
X121590000Y-84160000D03*
X124130000Y-81620000D03*
X121590000Y-81620000D03*
X124130000Y-79080000D03*
X121590000Y-79080000D03*
X124130000Y-76540000D03*
X121590000Y-76540000D03*
X124130000Y-74000000D03*
G36*
G01*
X120689000Y-74850000D02*
X120689000Y-73150000D01*
G75*
G02*
X120740000Y-73099000I51000J0D01*
G01*
X122440000Y-73099000D01*
G75*
G02*
X122491000Y-73150000I0J-51000D01*
G01*
X122491000Y-74850000D01*
G75*
G02*
X122440000Y-74901000I-51000J0D01*
G01*
X120740000Y-74901000D01*
G75*
G02*
X120689000Y-74850000I0J51000D01*
G01*
G37*
X78410000Y-117180000D03*
X75870000Y-117180000D03*
X78410000Y-114640000D03*
X75870000Y-114640000D03*
X78410000Y-112100000D03*
X75870000Y-112100000D03*
X78410000Y-109560000D03*
X75870000Y-109560000D03*
X78410000Y-107020000D03*
X75870000Y-107020000D03*
X78410000Y-104480000D03*
X75870000Y-104480000D03*
X78410000Y-101940000D03*
X75870000Y-101940000D03*
X78410000Y-99400000D03*
X75870000Y-99400000D03*
X78410000Y-96860000D03*
X75870000Y-96860000D03*
X78410000Y-94320000D03*
X75870000Y-94320000D03*
X78410000Y-91780000D03*
X75870000Y-91780000D03*
X78410000Y-89240000D03*
X75870000Y-89240000D03*
X78410000Y-86700000D03*
X75870000Y-86700000D03*
X78410000Y-84160000D03*
X75870000Y-84160000D03*
X78410000Y-81620000D03*
X75870000Y-81620000D03*
X78410000Y-79080000D03*
X75870000Y-79080000D03*
X78410000Y-76540000D03*
X75870000Y-76540000D03*
X78410000Y-74000000D03*
G36*
G01*
X74969000Y-74850000D02*
X74969000Y-73150000D01*
G75*
G02*
X75020000Y-73099000I51000J0D01*
G01*
X76720000Y-73099000D01*
G75*
G02*
X76771000Y-73150000I0J-51000D01*
G01*
X76771000Y-74850000D01*
G75*
G02*
X76720000Y-74901000I-51000J0D01*
G01*
X75020000Y-74901000D01*
G75*
G02*
X74969000Y-74850000I0J51000D01*
G01*
G37*
X91110000Y-74000000D03*
G36*
G01*
X92011000Y-75690000D02*
X92011000Y-77390000D01*
G75*
G02*
X91960000Y-77441000I-51000J0D01*
G01*
X90260000Y-77441000D01*
G75*
G02*
X90209000Y-77390000I0J51000D01*
G01*
X90209000Y-75690000D01*
G75*
G02*
X90260000Y-75639000I51000J0D01*
G01*
X91960000Y-75639000D01*
G75*
G02*
X92011000Y-75690000I0J-51000D01*
G01*
G37*
M02*
