G04 #@! TF.GenerationSoftware,KiCad,Pcbnew,(5.1.9)-1*
G04 #@! TF.CreationDate,2022-01-10T11:00:18-07:00*
G04 #@! TF.ProjectId,RP2040_minimal,52503230-3430-45f6-9d69-6e696d616c2e,REV1*
G04 #@! TF.SameCoordinates,Original*
G04 #@! TF.FileFunction,Legend,Top*
G04 #@! TF.FilePolarity,Positive*
%FSLAX46Y46*%
G04 Gerber Fmt 4.6, Leading zero omitted, Abs format (unit mm)*
G04 Created by KiCad (PCBNEW (5.1.9)-1) date 2022-01-10 11:00:18*
%MOMM*%
%LPD*%
G01*
G04 APERTURE LIST*
%ADD10C,0.120000*%
%ADD11C,0.150000*%
%ADD12C,0.100000*%
%ADD13C,0.254000*%
%ADD14C,0.258000*%
G04 APERTURE END LIST*
D10*
X127070000Y-133910000D02*
X77070000Y-133910000D01*
X73070000Y-133910000D02*
X23070000Y-133910000D01*
X23070000Y-215910000D02*
X73070000Y-215910000D01*
X77070000Y-215910000D02*
X127070000Y-215910000D01*
X77070000Y-215910000D02*
X77070000Y-133910000D01*
X73070000Y-215910000D02*
X73070000Y-133910000D01*
X127070000Y-215910000D02*
X127070000Y-133910000D01*
X23070000Y-215910000D02*
X23070000Y-133910000D01*
D11*
X114692380Y-100923333D02*
X114692380Y-100732857D01*
X114740000Y-100637619D01*
X114835238Y-100542380D01*
X115025714Y-100494761D01*
X115359047Y-100494761D01*
X115549523Y-100542380D01*
X115644761Y-100637619D01*
X115692380Y-100732857D01*
X115692380Y-100923333D01*
X115644761Y-101018571D01*
X115549523Y-101113809D01*
X115359047Y-101161428D01*
X115025714Y-101161428D01*
X114835238Y-101113809D01*
X114740000Y-101018571D01*
X114692380Y-100923333D01*
X115025714Y-99637619D02*
X115692380Y-99637619D01*
X115025714Y-100066190D02*
X115549523Y-100066190D01*
X115644761Y-100018571D01*
X115692380Y-99923333D01*
X115692380Y-99780476D01*
X115644761Y-99685238D01*
X115597142Y-99637619D01*
X115025714Y-99304285D02*
X115025714Y-98923333D01*
X114692380Y-99161428D02*
X115549523Y-99161428D01*
X115644761Y-99113809D01*
X115692380Y-99018571D01*
X115692380Y-98923333D01*
X115644761Y-98209047D02*
X115692380Y-98304285D01*
X115692380Y-98494761D01*
X115644761Y-98590000D01*
X115549523Y-98637619D01*
X115168571Y-98637619D01*
X115073333Y-98590000D01*
X115025714Y-98494761D01*
X115025714Y-98304285D01*
X115073333Y-98209047D01*
X115168571Y-98161428D01*
X115263809Y-98161428D01*
X115359047Y-98637619D01*
X115692380Y-97732857D02*
X115025714Y-97732857D01*
X115216190Y-97732857D02*
X115120952Y-97685238D01*
X115073333Y-97637619D01*
X115025714Y-97542380D01*
X115025714Y-97447142D01*
X115692380Y-95780476D02*
X115216190Y-96113809D01*
X115692380Y-96351904D02*
X114692380Y-96351904D01*
X114692380Y-95970952D01*
X114740000Y-95875714D01*
X114787619Y-95828095D01*
X114882857Y-95780476D01*
X115025714Y-95780476D01*
X115120952Y-95828095D01*
X115168571Y-95875714D01*
X115216190Y-95970952D01*
X115216190Y-96351904D01*
X115692380Y-95209047D02*
X115644761Y-95304285D01*
X115597142Y-95351904D01*
X115501904Y-95399523D01*
X115216190Y-95399523D01*
X115120952Y-95351904D01*
X115073333Y-95304285D01*
X115025714Y-95209047D01*
X115025714Y-95066190D01*
X115073333Y-94970952D01*
X115120952Y-94923333D01*
X115216190Y-94875714D01*
X115501904Y-94875714D01*
X115597142Y-94923333D01*
X115644761Y-94970952D01*
X115692380Y-95066190D01*
X115692380Y-95209047D01*
X115025714Y-94542380D02*
X115692380Y-94351904D01*
X115216190Y-94161428D01*
X115692380Y-93970952D01*
X115025714Y-93780476D01*
X114740000Y-92113809D02*
X114692380Y-92209047D01*
X114692380Y-92351904D01*
X114740000Y-92494761D01*
X114835238Y-92590000D01*
X114930476Y-92637619D01*
X115120952Y-92685238D01*
X115263809Y-92685238D01*
X115454285Y-92637619D01*
X115549523Y-92590000D01*
X115644761Y-92494761D01*
X115692380Y-92351904D01*
X115692380Y-92256666D01*
X115644761Y-92113809D01*
X115597142Y-92066190D01*
X115263809Y-92066190D01*
X115263809Y-92256666D01*
X115692380Y-91637619D02*
X114692380Y-91637619D01*
X115692380Y-91066190D01*
X114692380Y-91066190D01*
X115692380Y-90590000D02*
X114692380Y-90590000D01*
X114692380Y-90351904D01*
X114740000Y-90209047D01*
X114835238Y-90113809D01*
X114930476Y-90066190D01*
X115120952Y-90018571D01*
X115263809Y-90018571D01*
X115454285Y-90066190D01*
X115549523Y-90113809D01*
X115644761Y-90209047D01*
X115692380Y-90351904D01*
X115692380Y-90590000D01*
X85307619Y-90256666D02*
X85307619Y-90447142D01*
X85260000Y-90542380D01*
X85164761Y-90637619D01*
X84974285Y-90685238D01*
X84640952Y-90685238D01*
X84450476Y-90637619D01*
X84355238Y-90542380D01*
X84307619Y-90447142D01*
X84307619Y-90256666D01*
X84355238Y-90161428D01*
X84450476Y-90066190D01*
X84640952Y-90018571D01*
X84974285Y-90018571D01*
X85164761Y-90066190D01*
X85260000Y-90161428D01*
X85307619Y-90256666D01*
X84974285Y-91542380D02*
X84307619Y-91542380D01*
X84974285Y-91113809D02*
X84450476Y-91113809D01*
X84355238Y-91161428D01*
X84307619Y-91256666D01*
X84307619Y-91399523D01*
X84355238Y-91494761D01*
X84402857Y-91542380D01*
X84974285Y-91875714D02*
X84974285Y-92256666D01*
X85307619Y-92018571D02*
X84450476Y-92018571D01*
X84355238Y-92066190D01*
X84307619Y-92161428D01*
X84307619Y-92256666D01*
X84355238Y-92970952D02*
X84307619Y-92875714D01*
X84307619Y-92685238D01*
X84355238Y-92590000D01*
X84450476Y-92542380D01*
X84831428Y-92542380D01*
X84926666Y-92590000D01*
X84974285Y-92685238D01*
X84974285Y-92875714D01*
X84926666Y-92970952D01*
X84831428Y-93018571D01*
X84736190Y-93018571D01*
X84640952Y-92542380D01*
X84307619Y-93447142D02*
X84974285Y-93447142D01*
X84783809Y-93447142D02*
X84879047Y-93494761D01*
X84926666Y-93542380D01*
X84974285Y-93637619D01*
X84974285Y-93732857D01*
X84307619Y-95399523D02*
X84783809Y-95066190D01*
X84307619Y-94828095D02*
X85307619Y-94828095D01*
X85307619Y-95209047D01*
X85260000Y-95304285D01*
X85212380Y-95351904D01*
X85117142Y-95399523D01*
X84974285Y-95399523D01*
X84879047Y-95351904D01*
X84831428Y-95304285D01*
X84783809Y-95209047D01*
X84783809Y-94828095D01*
X84307619Y-95970952D02*
X84355238Y-95875714D01*
X84402857Y-95828095D01*
X84498095Y-95780476D01*
X84783809Y-95780476D01*
X84879047Y-95828095D01*
X84926666Y-95875714D01*
X84974285Y-95970952D01*
X84974285Y-96113809D01*
X84926666Y-96209047D01*
X84879047Y-96256666D01*
X84783809Y-96304285D01*
X84498095Y-96304285D01*
X84402857Y-96256666D01*
X84355238Y-96209047D01*
X84307619Y-96113809D01*
X84307619Y-95970952D01*
X84974285Y-96637619D02*
X84307619Y-96828095D01*
X84783809Y-97018571D01*
X84307619Y-97209047D01*
X84974285Y-97399523D01*
X85260000Y-99066190D02*
X85307619Y-98970952D01*
X85307619Y-98828095D01*
X85260000Y-98685238D01*
X85164761Y-98590000D01*
X85069523Y-98542380D01*
X84879047Y-98494761D01*
X84736190Y-98494761D01*
X84545714Y-98542380D01*
X84450476Y-98590000D01*
X84355238Y-98685238D01*
X84307619Y-98828095D01*
X84307619Y-98923333D01*
X84355238Y-99066190D01*
X84402857Y-99113809D01*
X84736190Y-99113809D01*
X84736190Y-98923333D01*
X84307619Y-99542380D02*
X85307619Y-99542380D01*
X84307619Y-100113809D01*
X85307619Y-100113809D01*
X84307619Y-100590000D02*
X85307619Y-100590000D01*
X85307619Y-100828095D01*
X85260000Y-100970952D01*
X85164761Y-101066190D01*
X85069523Y-101113809D01*
X84879047Y-101161428D01*
X84736190Y-101161428D01*
X84545714Y-101113809D01*
X84450476Y-101066190D01*
X84355238Y-100970952D01*
X84307619Y-100828095D01*
X84307619Y-100590000D01*
D12*
X117343571Y-73550000D02*
X117257857Y-73507142D01*
X117129285Y-73507142D01*
X117000714Y-73550000D01*
X116915000Y-73635714D01*
X116872142Y-73721428D01*
X116829285Y-73892857D01*
X116829285Y-74021428D01*
X116872142Y-74192857D01*
X116915000Y-74278571D01*
X117000714Y-74364285D01*
X117129285Y-74407142D01*
X117215000Y-74407142D01*
X117343571Y-74364285D01*
X117386428Y-74321428D01*
X117386428Y-74021428D01*
X117215000Y-74021428D01*
X117772142Y-74407142D02*
X117772142Y-73507142D01*
X118115000Y-73507142D01*
X118200714Y-73550000D01*
X118243571Y-73592857D01*
X118286428Y-73678571D01*
X118286428Y-73807142D01*
X118243571Y-73892857D01*
X118200714Y-73935714D01*
X118115000Y-73978571D01*
X117772142Y-73978571D01*
X118629285Y-73592857D02*
X118672142Y-73550000D01*
X118757857Y-73507142D01*
X118972142Y-73507142D01*
X119057857Y-73550000D01*
X119100714Y-73592857D01*
X119143571Y-73678571D01*
X119143571Y-73764285D01*
X119100714Y-73892857D01*
X118586428Y-74407142D01*
X119143571Y-74407142D01*
X119572142Y-74407142D02*
X119743571Y-74407142D01*
X119829285Y-74364285D01*
X119872142Y-74321428D01*
X119957857Y-74192857D01*
X120000714Y-74021428D01*
X120000714Y-73678571D01*
X119957857Y-73592857D01*
X119915000Y-73550000D01*
X119829285Y-73507142D01*
X119657857Y-73507142D01*
X119572142Y-73550000D01*
X119529285Y-73592857D01*
X119486428Y-73678571D01*
X119486428Y-73892857D01*
X119529285Y-73978571D01*
X119572142Y-74021428D01*
X119657857Y-74064285D01*
X119829285Y-74064285D01*
X119915000Y-74021428D01*
X119957857Y-73978571D01*
X120000714Y-73892857D01*
X117729285Y-116730000D02*
X117643571Y-116687142D01*
X117515000Y-116687142D01*
X117386428Y-116730000D01*
X117300714Y-116815714D01*
X117257857Y-116901428D01*
X117215000Y-117072857D01*
X117215000Y-117201428D01*
X117257857Y-117372857D01*
X117300714Y-117458571D01*
X117386428Y-117544285D01*
X117515000Y-117587142D01*
X117600714Y-117587142D01*
X117729285Y-117544285D01*
X117772142Y-117501428D01*
X117772142Y-117201428D01*
X117600714Y-117201428D01*
X118157857Y-117587142D02*
X118157857Y-116687142D01*
X118672142Y-117587142D01*
X118672142Y-116687142D01*
X119100714Y-117587142D02*
X119100714Y-116687142D01*
X119315000Y-116687142D01*
X119443571Y-116730000D01*
X119529285Y-116815714D01*
X119572142Y-116901428D01*
X119615000Y-117072857D01*
X119615000Y-117201428D01*
X119572142Y-117372857D01*
X119529285Y-117458571D01*
X119443571Y-117544285D01*
X119315000Y-117587142D01*
X119100714Y-117587142D01*
X80899285Y-116730000D02*
X80813571Y-116687142D01*
X80685000Y-116687142D01*
X80556428Y-116730000D01*
X80470714Y-116815714D01*
X80427857Y-116901428D01*
X80385000Y-117072857D01*
X80385000Y-117201428D01*
X80427857Y-117372857D01*
X80470714Y-117458571D01*
X80556428Y-117544285D01*
X80685000Y-117587142D01*
X80770714Y-117587142D01*
X80899285Y-117544285D01*
X80942142Y-117501428D01*
X80942142Y-117201428D01*
X80770714Y-117201428D01*
X81327857Y-117587142D02*
X81327857Y-116687142D01*
X81842142Y-117587142D01*
X81842142Y-116687142D01*
X82270714Y-117587142D02*
X82270714Y-116687142D01*
X82485000Y-116687142D01*
X82613571Y-116730000D01*
X82699285Y-116815714D01*
X82742142Y-116901428D01*
X82785000Y-117072857D01*
X82785000Y-117201428D01*
X82742142Y-117372857D01*
X82699285Y-117458571D01*
X82613571Y-117544285D01*
X82485000Y-117587142D01*
X82270714Y-117587142D01*
X117750714Y-109967142D02*
X117450714Y-109538571D01*
X117236428Y-109967142D02*
X117236428Y-109067142D01*
X117579285Y-109067142D01*
X117665000Y-109110000D01*
X117707857Y-109152857D01*
X117750714Y-109238571D01*
X117750714Y-109367142D01*
X117707857Y-109452857D01*
X117665000Y-109495714D01*
X117579285Y-109538571D01*
X117236428Y-109538571D01*
X118136428Y-109067142D02*
X118136428Y-109795714D01*
X118179285Y-109881428D01*
X118222142Y-109924285D01*
X118307857Y-109967142D01*
X118479285Y-109967142D01*
X118565000Y-109924285D01*
X118607857Y-109881428D01*
X118650714Y-109795714D01*
X118650714Y-109067142D01*
X119079285Y-109967142D02*
X119079285Y-109067142D01*
X119593571Y-109967142D01*
X119593571Y-109067142D01*
X117343571Y-106570000D02*
X117257857Y-106527142D01*
X117129285Y-106527142D01*
X117000714Y-106570000D01*
X116915000Y-106655714D01*
X116872142Y-106741428D01*
X116829285Y-106912857D01*
X116829285Y-107041428D01*
X116872142Y-107212857D01*
X116915000Y-107298571D01*
X117000714Y-107384285D01*
X117129285Y-107427142D01*
X117215000Y-107427142D01*
X117343571Y-107384285D01*
X117386428Y-107341428D01*
X117386428Y-107041428D01*
X117215000Y-107041428D01*
X117772142Y-107427142D02*
X117772142Y-106527142D01*
X118115000Y-106527142D01*
X118200714Y-106570000D01*
X118243571Y-106612857D01*
X118286428Y-106698571D01*
X118286428Y-106827142D01*
X118243571Y-106912857D01*
X118200714Y-106955714D01*
X118115000Y-106998571D01*
X117772142Y-106998571D01*
X119143571Y-107427142D02*
X118629285Y-107427142D01*
X118886428Y-107427142D02*
X118886428Y-106527142D01*
X118800714Y-106655714D01*
X118715000Y-106741428D01*
X118629285Y-106784285D01*
X119915000Y-106527142D02*
X119743571Y-106527142D01*
X119657857Y-106570000D01*
X119615000Y-106612857D01*
X119529285Y-106741428D01*
X119486428Y-106912857D01*
X119486428Y-107255714D01*
X119529285Y-107341428D01*
X119572142Y-107384285D01*
X119657857Y-107427142D01*
X119829285Y-107427142D01*
X119915000Y-107384285D01*
X119957857Y-107341428D01*
X120000714Y-107255714D01*
X120000714Y-107041428D01*
X119957857Y-106955714D01*
X119915000Y-106912857D01*
X119829285Y-106870000D01*
X119657857Y-106870000D01*
X119572142Y-106912857D01*
X119529285Y-106955714D01*
X119486428Y-107041428D01*
X117193571Y-112464285D02*
X117322142Y-112507142D01*
X117536428Y-112507142D01*
X117622142Y-112464285D01*
X117665000Y-112421428D01*
X117707857Y-112335714D01*
X117707857Y-112250000D01*
X117665000Y-112164285D01*
X117622142Y-112121428D01*
X117536428Y-112078571D01*
X117365000Y-112035714D01*
X117279285Y-111992857D01*
X117236428Y-111950000D01*
X117193571Y-111864285D01*
X117193571Y-111778571D01*
X117236428Y-111692857D01*
X117279285Y-111650000D01*
X117365000Y-111607142D01*
X117579285Y-111607142D01*
X117707857Y-111650000D01*
X118007857Y-111607142D02*
X118222142Y-112507142D01*
X118393571Y-111864285D01*
X118565000Y-112507142D01*
X118779285Y-111607142D01*
X119122142Y-112507142D02*
X119122142Y-111607142D01*
X119336428Y-111607142D01*
X119465000Y-111650000D01*
X119550714Y-111735714D01*
X119593571Y-111821428D01*
X119636428Y-111992857D01*
X119636428Y-112121428D01*
X119593571Y-112292857D01*
X119550714Y-112378571D01*
X119465000Y-112464285D01*
X119336428Y-112507142D01*
X119122142Y-112507142D01*
X115934785Y-115004285D02*
X116063357Y-115047142D01*
X116277642Y-115047142D01*
X116363357Y-115004285D01*
X116406214Y-114961428D01*
X116449071Y-114875714D01*
X116449071Y-114790000D01*
X116406214Y-114704285D01*
X116363357Y-114661428D01*
X116277642Y-114618571D01*
X116106214Y-114575714D01*
X116020500Y-114532857D01*
X115977642Y-114490000D01*
X115934785Y-114404285D01*
X115934785Y-114318571D01*
X115977642Y-114232857D01*
X116020500Y-114190000D01*
X116106214Y-114147142D01*
X116320500Y-114147142D01*
X116449071Y-114190000D01*
X116749071Y-114147142D02*
X116963357Y-115047142D01*
X117134785Y-114404285D01*
X117306214Y-115047142D01*
X117520500Y-114147142D01*
X118377642Y-114961428D02*
X118334785Y-115004285D01*
X118206214Y-115047142D01*
X118120500Y-115047142D01*
X117991928Y-115004285D01*
X117906214Y-114918571D01*
X117863357Y-114832857D01*
X117820500Y-114661428D01*
X117820500Y-114532857D01*
X117863357Y-114361428D01*
X117906214Y-114275714D01*
X117991928Y-114190000D01*
X118120500Y-114147142D01*
X118206214Y-114147142D01*
X118334785Y-114190000D01*
X118377642Y-114232857D01*
X119191928Y-115047142D02*
X118763357Y-115047142D01*
X118763357Y-114147142D01*
X119491928Y-115047142D02*
X119491928Y-114147142D01*
X120006214Y-115047142D02*
X119620500Y-114532857D01*
X120006214Y-114147142D02*
X119491928Y-114661428D01*
X117343571Y-101490000D02*
X117257857Y-101447142D01*
X117129285Y-101447142D01*
X117000714Y-101490000D01*
X116915000Y-101575714D01*
X116872142Y-101661428D01*
X116829285Y-101832857D01*
X116829285Y-101961428D01*
X116872142Y-102132857D01*
X116915000Y-102218571D01*
X117000714Y-102304285D01*
X117129285Y-102347142D01*
X117215000Y-102347142D01*
X117343571Y-102304285D01*
X117386428Y-102261428D01*
X117386428Y-101961428D01*
X117215000Y-101961428D01*
X117772142Y-102347142D02*
X117772142Y-101447142D01*
X118115000Y-101447142D01*
X118200714Y-101490000D01*
X118243571Y-101532857D01*
X118286428Y-101618571D01*
X118286428Y-101747142D01*
X118243571Y-101832857D01*
X118200714Y-101875714D01*
X118115000Y-101918571D01*
X117772142Y-101918571D01*
X119143571Y-102347142D02*
X118629285Y-102347142D01*
X118886428Y-102347142D02*
X118886428Y-101447142D01*
X118800714Y-101575714D01*
X118715000Y-101661428D01*
X118629285Y-101704285D01*
X119657857Y-101832857D02*
X119572142Y-101790000D01*
X119529285Y-101747142D01*
X119486428Y-101661428D01*
X119486428Y-101618571D01*
X119529285Y-101532857D01*
X119572142Y-101490000D01*
X119657857Y-101447142D01*
X119829285Y-101447142D01*
X119915000Y-101490000D01*
X119957857Y-101532857D01*
X120000714Y-101618571D01*
X120000714Y-101661428D01*
X119957857Y-101747142D01*
X119915000Y-101790000D01*
X119829285Y-101832857D01*
X119657857Y-101832857D01*
X119572142Y-101875714D01*
X119529285Y-101918571D01*
X119486428Y-102004285D01*
X119486428Y-102175714D01*
X119529285Y-102261428D01*
X119572142Y-102304285D01*
X119657857Y-102347142D01*
X119829285Y-102347142D01*
X119915000Y-102304285D01*
X119957857Y-102261428D01*
X120000714Y-102175714D01*
X120000714Y-102004285D01*
X119957857Y-101918571D01*
X119915000Y-101875714D01*
X119829285Y-101832857D01*
X117343571Y-91330000D02*
X117257857Y-91287142D01*
X117129285Y-91287142D01*
X117000714Y-91330000D01*
X116915000Y-91415714D01*
X116872142Y-91501428D01*
X116829285Y-91672857D01*
X116829285Y-91801428D01*
X116872142Y-91972857D01*
X116915000Y-92058571D01*
X117000714Y-92144285D01*
X117129285Y-92187142D01*
X117215000Y-92187142D01*
X117343571Y-92144285D01*
X117386428Y-92101428D01*
X117386428Y-91801428D01*
X117215000Y-91801428D01*
X117772142Y-92187142D02*
X117772142Y-91287142D01*
X118115000Y-91287142D01*
X118200714Y-91330000D01*
X118243571Y-91372857D01*
X118286428Y-91458571D01*
X118286428Y-91587142D01*
X118243571Y-91672857D01*
X118200714Y-91715714D01*
X118115000Y-91758571D01*
X117772142Y-91758571D01*
X118629285Y-91372857D02*
X118672142Y-91330000D01*
X118757857Y-91287142D01*
X118972142Y-91287142D01*
X119057857Y-91330000D01*
X119100714Y-91372857D01*
X119143571Y-91458571D01*
X119143571Y-91544285D01*
X119100714Y-91672857D01*
X118586428Y-92187142D01*
X119143571Y-92187142D01*
X119486428Y-91372857D02*
X119529285Y-91330000D01*
X119615000Y-91287142D01*
X119829285Y-91287142D01*
X119915000Y-91330000D01*
X119957857Y-91372857D01*
X120000714Y-91458571D01*
X120000714Y-91544285D01*
X119957857Y-91672857D01*
X119443571Y-92187142D01*
X120000714Y-92187142D01*
X117343571Y-104030000D02*
X117257857Y-103987142D01*
X117129285Y-103987142D01*
X117000714Y-104030000D01*
X116915000Y-104115714D01*
X116872142Y-104201428D01*
X116829285Y-104372857D01*
X116829285Y-104501428D01*
X116872142Y-104672857D01*
X116915000Y-104758571D01*
X117000714Y-104844285D01*
X117129285Y-104887142D01*
X117215000Y-104887142D01*
X117343571Y-104844285D01*
X117386428Y-104801428D01*
X117386428Y-104501428D01*
X117215000Y-104501428D01*
X117772142Y-104887142D02*
X117772142Y-103987142D01*
X118115000Y-103987142D01*
X118200714Y-104030000D01*
X118243571Y-104072857D01*
X118286428Y-104158571D01*
X118286428Y-104287142D01*
X118243571Y-104372857D01*
X118200714Y-104415714D01*
X118115000Y-104458571D01*
X117772142Y-104458571D01*
X119143571Y-104887142D02*
X118629285Y-104887142D01*
X118886428Y-104887142D02*
X118886428Y-103987142D01*
X118800714Y-104115714D01*
X118715000Y-104201428D01*
X118629285Y-104244285D01*
X119443571Y-103987142D02*
X120043571Y-103987142D01*
X119657857Y-104887142D01*
X117343571Y-98950000D02*
X117257857Y-98907142D01*
X117129285Y-98907142D01*
X117000714Y-98950000D01*
X116915000Y-99035714D01*
X116872142Y-99121428D01*
X116829285Y-99292857D01*
X116829285Y-99421428D01*
X116872142Y-99592857D01*
X116915000Y-99678571D01*
X117000714Y-99764285D01*
X117129285Y-99807142D01*
X117215000Y-99807142D01*
X117343571Y-99764285D01*
X117386428Y-99721428D01*
X117386428Y-99421428D01*
X117215000Y-99421428D01*
X117772142Y-99807142D02*
X117772142Y-98907142D01*
X118115000Y-98907142D01*
X118200714Y-98950000D01*
X118243571Y-98992857D01*
X118286428Y-99078571D01*
X118286428Y-99207142D01*
X118243571Y-99292857D01*
X118200714Y-99335714D01*
X118115000Y-99378571D01*
X117772142Y-99378571D01*
X119143571Y-99807142D02*
X118629285Y-99807142D01*
X118886428Y-99807142D02*
X118886428Y-98907142D01*
X118800714Y-99035714D01*
X118715000Y-99121428D01*
X118629285Y-99164285D01*
X119572142Y-99807142D02*
X119743571Y-99807142D01*
X119829285Y-99764285D01*
X119872142Y-99721428D01*
X119957857Y-99592857D01*
X120000714Y-99421428D01*
X120000714Y-99078571D01*
X119957857Y-98992857D01*
X119915000Y-98950000D01*
X119829285Y-98907142D01*
X119657857Y-98907142D01*
X119572142Y-98950000D01*
X119529285Y-98992857D01*
X119486428Y-99078571D01*
X119486428Y-99292857D01*
X119529285Y-99378571D01*
X119572142Y-99421428D01*
X119657857Y-99464285D01*
X119829285Y-99464285D01*
X119915000Y-99421428D01*
X119957857Y-99378571D01*
X120000714Y-99292857D01*
X117343571Y-96410000D02*
X117257857Y-96367142D01*
X117129285Y-96367142D01*
X117000714Y-96410000D01*
X116915000Y-96495714D01*
X116872142Y-96581428D01*
X116829285Y-96752857D01*
X116829285Y-96881428D01*
X116872142Y-97052857D01*
X116915000Y-97138571D01*
X117000714Y-97224285D01*
X117129285Y-97267142D01*
X117215000Y-97267142D01*
X117343571Y-97224285D01*
X117386428Y-97181428D01*
X117386428Y-96881428D01*
X117215000Y-96881428D01*
X117772142Y-97267142D02*
X117772142Y-96367142D01*
X118115000Y-96367142D01*
X118200714Y-96410000D01*
X118243571Y-96452857D01*
X118286428Y-96538571D01*
X118286428Y-96667142D01*
X118243571Y-96752857D01*
X118200714Y-96795714D01*
X118115000Y-96838571D01*
X117772142Y-96838571D01*
X118629285Y-96452857D02*
X118672142Y-96410000D01*
X118757857Y-96367142D01*
X118972142Y-96367142D01*
X119057857Y-96410000D01*
X119100714Y-96452857D01*
X119143571Y-96538571D01*
X119143571Y-96624285D01*
X119100714Y-96752857D01*
X118586428Y-97267142D01*
X119143571Y-97267142D01*
X119700714Y-96367142D02*
X119786428Y-96367142D01*
X119872142Y-96410000D01*
X119915000Y-96452857D01*
X119957857Y-96538571D01*
X120000714Y-96710000D01*
X120000714Y-96924285D01*
X119957857Y-97095714D01*
X119915000Y-97181428D01*
X119872142Y-97224285D01*
X119786428Y-97267142D01*
X119700714Y-97267142D01*
X119615000Y-97224285D01*
X119572142Y-97181428D01*
X119529285Y-97095714D01*
X119486428Y-96924285D01*
X119486428Y-96710000D01*
X119529285Y-96538571D01*
X119572142Y-96452857D01*
X119615000Y-96410000D01*
X119700714Y-96367142D01*
X117343571Y-93870000D02*
X117257857Y-93827142D01*
X117129285Y-93827142D01*
X117000714Y-93870000D01*
X116915000Y-93955714D01*
X116872142Y-94041428D01*
X116829285Y-94212857D01*
X116829285Y-94341428D01*
X116872142Y-94512857D01*
X116915000Y-94598571D01*
X117000714Y-94684285D01*
X117129285Y-94727142D01*
X117215000Y-94727142D01*
X117343571Y-94684285D01*
X117386428Y-94641428D01*
X117386428Y-94341428D01*
X117215000Y-94341428D01*
X117772142Y-94727142D02*
X117772142Y-93827142D01*
X118115000Y-93827142D01*
X118200714Y-93870000D01*
X118243571Y-93912857D01*
X118286428Y-93998571D01*
X118286428Y-94127142D01*
X118243571Y-94212857D01*
X118200714Y-94255714D01*
X118115000Y-94298571D01*
X117772142Y-94298571D01*
X118629285Y-93912857D02*
X118672142Y-93870000D01*
X118757857Y-93827142D01*
X118972142Y-93827142D01*
X119057857Y-93870000D01*
X119100714Y-93912857D01*
X119143571Y-93998571D01*
X119143571Y-94084285D01*
X119100714Y-94212857D01*
X118586428Y-94727142D01*
X119143571Y-94727142D01*
X120000714Y-94727142D02*
X119486428Y-94727142D01*
X119743571Y-94727142D02*
X119743571Y-93827142D01*
X119657857Y-93955714D01*
X119572142Y-94041428D01*
X119486428Y-94084285D01*
X117343571Y-88790000D02*
X117257857Y-88747142D01*
X117129285Y-88747142D01*
X117000714Y-88790000D01*
X116915000Y-88875714D01*
X116872142Y-88961428D01*
X116829285Y-89132857D01*
X116829285Y-89261428D01*
X116872142Y-89432857D01*
X116915000Y-89518571D01*
X117000714Y-89604285D01*
X117129285Y-89647142D01*
X117215000Y-89647142D01*
X117343571Y-89604285D01*
X117386428Y-89561428D01*
X117386428Y-89261428D01*
X117215000Y-89261428D01*
X117772142Y-89647142D02*
X117772142Y-88747142D01*
X118115000Y-88747142D01*
X118200714Y-88790000D01*
X118243571Y-88832857D01*
X118286428Y-88918571D01*
X118286428Y-89047142D01*
X118243571Y-89132857D01*
X118200714Y-89175714D01*
X118115000Y-89218571D01*
X117772142Y-89218571D01*
X118629285Y-88832857D02*
X118672142Y-88790000D01*
X118757857Y-88747142D01*
X118972142Y-88747142D01*
X119057857Y-88790000D01*
X119100714Y-88832857D01*
X119143571Y-88918571D01*
X119143571Y-89004285D01*
X119100714Y-89132857D01*
X118586428Y-89647142D01*
X119143571Y-89647142D01*
X119443571Y-88747142D02*
X120000714Y-88747142D01*
X119700714Y-89090000D01*
X119829285Y-89090000D01*
X119915000Y-89132857D01*
X119957857Y-89175714D01*
X120000714Y-89261428D01*
X120000714Y-89475714D01*
X119957857Y-89561428D01*
X119915000Y-89604285D01*
X119829285Y-89647142D01*
X119572142Y-89647142D01*
X119486428Y-89604285D01*
X119443571Y-89561428D01*
X117343571Y-86250000D02*
X117257857Y-86207142D01*
X117129285Y-86207142D01*
X117000714Y-86250000D01*
X116915000Y-86335714D01*
X116872142Y-86421428D01*
X116829285Y-86592857D01*
X116829285Y-86721428D01*
X116872142Y-86892857D01*
X116915000Y-86978571D01*
X117000714Y-87064285D01*
X117129285Y-87107142D01*
X117215000Y-87107142D01*
X117343571Y-87064285D01*
X117386428Y-87021428D01*
X117386428Y-86721428D01*
X117215000Y-86721428D01*
X117772142Y-87107142D02*
X117772142Y-86207142D01*
X118115000Y-86207142D01*
X118200714Y-86250000D01*
X118243571Y-86292857D01*
X118286428Y-86378571D01*
X118286428Y-86507142D01*
X118243571Y-86592857D01*
X118200714Y-86635714D01*
X118115000Y-86678571D01*
X117772142Y-86678571D01*
X118629285Y-86292857D02*
X118672142Y-86250000D01*
X118757857Y-86207142D01*
X118972142Y-86207142D01*
X119057857Y-86250000D01*
X119100714Y-86292857D01*
X119143571Y-86378571D01*
X119143571Y-86464285D01*
X119100714Y-86592857D01*
X118586428Y-87107142D01*
X119143571Y-87107142D01*
X119915000Y-86507142D02*
X119915000Y-87107142D01*
X119700714Y-86164285D02*
X119486428Y-86807142D01*
X120043571Y-86807142D01*
X117343571Y-83710000D02*
X117257857Y-83667142D01*
X117129285Y-83667142D01*
X117000714Y-83710000D01*
X116915000Y-83795714D01*
X116872142Y-83881428D01*
X116829285Y-84052857D01*
X116829285Y-84181428D01*
X116872142Y-84352857D01*
X116915000Y-84438571D01*
X117000714Y-84524285D01*
X117129285Y-84567142D01*
X117215000Y-84567142D01*
X117343571Y-84524285D01*
X117386428Y-84481428D01*
X117386428Y-84181428D01*
X117215000Y-84181428D01*
X117772142Y-84567142D02*
X117772142Y-83667142D01*
X118115000Y-83667142D01*
X118200714Y-83710000D01*
X118243571Y-83752857D01*
X118286428Y-83838571D01*
X118286428Y-83967142D01*
X118243571Y-84052857D01*
X118200714Y-84095714D01*
X118115000Y-84138571D01*
X117772142Y-84138571D01*
X118629285Y-83752857D02*
X118672142Y-83710000D01*
X118757857Y-83667142D01*
X118972142Y-83667142D01*
X119057857Y-83710000D01*
X119100714Y-83752857D01*
X119143571Y-83838571D01*
X119143571Y-83924285D01*
X119100714Y-84052857D01*
X118586428Y-84567142D01*
X119143571Y-84567142D01*
X119957857Y-83667142D02*
X119529285Y-83667142D01*
X119486428Y-84095714D01*
X119529285Y-84052857D01*
X119615000Y-84010000D01*
X119829285Y-84010000D01*
X119915000Y-84052857D01*
X119957857Y-84095714D01*
X120000714Y-84181428D01*
X120000714Y-84395714D01*
X119957857Y-84481428D01*
X119915000Y-84524285D01*
X119829285Y-84567142D01*
X119615000Y-84567142D01*
X119529285Y-84524285D01*
X119486428Y-84481428D01*
X117343571Y-81170000D02*
X117257857Y-81127142D01*
X117129285Y-81127142D01*
X117000714Y-81170000D01*
X116915000Y-81255714D01*
X116872142Y-81341428D01*
X116829285Y-81512857D01*
X116829285Y-81641428D01*
X116872142Y-81812857D01*
X116915000Y-81898571D01*
X117000714Y-81984285D01*
X117129285Y-82027142D01*
X117215000Y-82027142D01*
X117343571Y-81984285D01*
X117386428Y-81941428D01*
X117386428Y-81641428D01*
X117215000Y-81641428D01*
X117772142Y-82027142D02*
X117772142Y-81127142D01*
X118115000Y-81127142D01*
X118200714Y-81170000D01*
X118243571Y-81212857D01*
X118286428Y-81298571D01*
X118286428Y-81427142D01*
X118243571Y-81512857D01*
X118200714Y-81555714D01*
X118115000Y-81598571D01*
X117772142Y-81598571D01*
X118629285Y-81212857D02*
X118672142Y-81170000D01*
X118757857Y-81127142D01*
X118972142Y-81127142D01*
X119057857Y-81170000D01*
X119100714Y-81212857D01*
X119143571Y-81298571D01*
X119143571Y-81384285D01*
X119100714Y-81512857D01*
X118586428Y-82027142D01*
X119143571Y-82027142D01*
X119915000Y-81127142D02*
X119743571Y-81127142D01*
X119657857Y-81170000D01*
X119615000Y-81212857D01*
X119529285Y-81341428D01*
X119486428Y-81512857D01*
X119486428Y-81855714D01*
X119529285Y-81941428D01*
X119572142Y-81984285D01*
X119657857Y-82027142D01*
X119829285Y-82027142D01*
X119915000Y-81984285D01*
X119957857Y-81941428D01*
X120000714Y-81855714D01*
X120000714Y-81641428D01*
X119957857Y-81555714D01*
X119915000Y-81512857D01*
X119829285Y-81470000D01*
X119657857Y-81470000D01*
X119572142Y-81512857D01*
X119529285Y-81555714D01*
X119486428Y-81641428D01*
X117343571Y-78630000D02*
X117257857Y-78587142D01*
X117129285Y-78587142D01*
X117000714Y-78630000D01*
X116915000Y-78715714D01*
X116872142Y-78801428D01*
X116829285Y-78972857D01*
X116829285Y-79101428D01*
X116872142Y-79272857D01*
X116915000Y-79358571D01*
X117000714Y-79444285D01*
X117129285Y-79487142D01*
X117215000Y-79487142D01*
X117343571Y-79444285D01*
X117386428Y-79401428D01*
X117386428Y-79101428D01*
X117215000Y-79101428D01*
X117772142Y-79487142D02*
X117772142Y-78587142D01*
X118115000Y-78587142D01*
X118200714Y-78630000D01*
X118243571Y-78672857D01*
X118286428Y-78758571D01*
X118286428Y-78887142D01*
X118243571Y-78972857D01*
X118200714Y-79015714D01*
X118115000Y-79058571D01*
X117772142Y-79058571D01*
X118629285Y-78672857D02*
X118672142Y-78630000D01*
X118757857Y-78587142D01*
X118972142Y-78587142D01*
X119057857Y-78630000D01*
X119100714Y-78672857D01*
X119143571Y-78758571D01*
X119143571Y-78844285D01*
X119100714Y-78972857D01*
X118586428Y-79487142D01*
X119143571Y-79487142D01*
X119443571Y-78587142D02*
X120043571Y-78587142D01*
X119657857Y-79487142D01*
X117343571Y-76090000D02*
X117257857Y-76047142D01*
X117129285Y-76047142D01*
X117000714Y-76090000D01*
X116915000Y-76175714D01*
X116872142Y-76261428D01*
X116829285Y-76432857D01*
X116829285Y-76561428D01*
X116872142Y-76732857D01*
X116915000Y-76818571D01*
X117000714Y-76904285D01*
X117129285Y-76947142D01*
X117215000Y-76947142D01*
X117343571Y-76904285D01*
X117386428Y-76861428D01*
X117386428Y-76561428D01*
X117215000Y-76561428D01*
X117772142Y-76947142D02*
X117772142Y-76047142D01*
X118115000Y-76047142D01*
X118200714Y-76090000D01*
X118243571Y-76132857D01*
X118286428Y-76218571D01*
X118286428Y-76347142D01*
X118243571Y-76432857D01*
X118200714Y-76475714D01*
X118115000Y-76518571D01*
X117772142Y-76518571D01*
X118629285Y-76132857D02*
X118672142Y-76090000D01*
X118757857Y-76047142D01*
X118972142Y-76047142D01*
X119057857Y-76090000D01*
X119100714Y-76132857D01*
X119143571Y-76218571D01*
X119143571Y-76304285D01*
X119100714Y-76432857D01*
X118586428Y-76947142D01*
X119143571Y-76947142D01*
X119657857Y-76432857D02*
X119572142Y-76390000D01*
X119529285Y-76347142D01*
X119486428Y-76261428D01*
X119486428Y-76218571D01*
X119529285Y-76132857D01*
X119572142Y-76090000D01*
X119657857Y-76047142D01*
X119829285Y-76047142D01*
X119915000Y-76090000D01*
X119957857Y-76132857D01*
X120000714Y-76218571D01*
X120000714Y-76261428D01*
X119957857Y-76347142D01*
X119915000Y-76390000D01*
X119829285Y-76432857D01*
X119657857Y-76432857D01*
X119572142Y-76475714D01*
X119529285Y-76518571D01*
X119486428Y-76604285D01*
X119486428Y-76775714D01*
X119529285Y-76861428D01*
X119572142Y-76904285D01*
X119657857Y-76947142D01*
X119829285Y-76947142D01*
X119915000Y-76904285D01*
X119957857Y-76861428D01*
X120000714Y-76775714D01*
X120000714Y-76604285D01*
X119957857Y-76518571D01*
X119915000Y-76475714D01*
X119829285Y-76432857D01*
X80513571Y-111650000D02*
X80427857Y-111607142D01*
X80299285Y-111607142D01*
X80170714Y-111650000D01*
X80085000Y-111735714D01*
X80042142Y-111821428D01*
X79999285Y-111992857D01*
X79999285Y-112121428D01*
X80042142Y-112292857D01*
X80085000Y-112378571D01*
X80170714Y-112464285D01*
X80299285Y-112507142D01*
X80385000Y-112507142D01*
X80513571Y-112464285D01*
X80556428Y-112421428D01*
X80556428Y-112121428D01*
X80385000Y-112121428D01*
X80942142Y-112507142D02*
X80942142Y-111607142D01*
X81285000Y-111607142D01*
X81370714Y-111650000D01*
X81413571Y-111692857D01*
X81456428Y-111778571D01*
X81456428Y-111907142D01*
X81413571Y-111992857D01*
X81370714Y-112035714D01*
X81285000Y-112078571D01*
X80942142Y-112078571D01*
X82313571Y-112507142D02*
X81799285Y-112507142D01*
X82056428Y-112507142D02*
X82056428Y-111607142D01*
X81970714Y-111735714D01*
X81885000Y-111821428D01*
X81799285Y-111864285D01*
X83085000Y-111907142D02*
X83085000Y-112507142D01*
X82870714Y-111564285D02*
X82656428Y-112207142D01*
X83213571Y-112207142D01*
X80513571Y-114190000D02*
X80427857Y-114147142D01*
X80299285Y-114147142D01*
X80170714Y-114190000D01*
X80085000Y-114275714D01*
X80042142Y-114361428D01*
X79999285Y-114532857D01*
X79999285Y-114661428D01*
X80042142Y-114832857D01*
X80085000Y-114918571D01*
X80170714Y-115004285D01*
X80299285Y-115047142D01*
X80385000Y-115047142D01*
X80513571Y-115004285D01*
X80556428Y-114961428D01*
X80556428Y-114661428D01*
X80385000Y-114661428D01*
X80942142Y-115047142D02*
X80942142Y-114147142D01*
X81285000Y-114147142D01*
X81370714Y-114190000D01*
X81413571Y-114232857D01*
X81456428Y-114318571D01*
X81456428Y-114447142D01*
X81413571Y-114532857D01*
X81370714Y-114575714D01*
X81285000Y-114618571D01*
X80942142Y-114618571D01*
X82313571Y-115047142D02*
X81799285Y-115047142D01*
X82056428Y-115047142D02*
X82056428Y-114147142D01*
X81970714Y-114275714D01*
X81885000Y-114361428D01*
X81799285Y-114404285D01*
X83127857Y-114147142D02*
X82699285Y-114147142D01*
X82656428Y-114575714D01*
X82699285Y-114532857D01*
X82785000Y-114490000D01*
X82999285Y-114490000D01*
X83085000Y-114532857D01*
X83127857Y-114575714D01*
X83170714Y-114661428D01*
X83170714Y-114875714D01*
X83127857Y-114961428D01*
X83085000Y-115004285D01*
X82999285Y-115047142D01*
X82785000Y-115047142D01*
X82699285Y-115004285D01*
X82656428Y-114961428D01*
X80513571Y-109110000D02*
X80427857Y-109067142D01*
X80299285Y-109067142D01*
X80170714Y-109110000D01*
X80085000Y-109195714D01*
X80042142Y-109281428D01*
X79999285Y-109452857D01*
X79999285Y-109581428D01*
X80042142Y-109752857D01*
X80085000Y-109838571D01*
X80170714Y-109924285D01*
X80299285Y-109967142D01*
X80385000Y-109967142D01*
X80513571Y-109924285D01*
X80556428Y-109881428D01*
X80556428Y-109581428D01*
X80385000Y-109581428D01*
X80942142Y-109967142D02*
X80942142Y-109067142D01*
X81285000Y-109067142D01*
X81370714Y-109110000D01*
X81413571Y-109152857D01*
X81456428Y-109238571D01*
X81456428Y-109367142D01*
X81413571Y-109452857D01*
X81370714Y-109495714D01*
X81285000Y-109538571D01*
X80942142Y-109538571D01*
X82313571Y-109967142D02*
X81799285Y-109967142D01*
X82056428Y-109967142D02*
X82056428Y-109067142D01*
X81970714Y-109195714D01*
X81885000Y-109281428D01*
X81799285Y-109324285D01*
X82613571Y-109067142D02*
X83170714Y-109067142D01*
X82870714Y-109410000D01*
X82999285Y-109410000D01*
X83085000Y-109452857D01*
X83127857Y-109495714D01*
X83170714Y-109581428D01*
X83170714Y-109795714D01*
X83127857Y-109881428D01*
X83085000Y-109924285D01*
X82999285Y-109967142D01*
X82742142Y-109967142D01*
X82656428Y-109924285D01*
X82613571Y-109881428D01*
X80513571Y-106570000D02*
X80427857Y-106527142D01*
X80299285Y-106527142D01*
X80170714Y-106570000D01*
X80085000Y-106655714D01*
X80042142Y-106741428D01*
X79999285Y-106912857D01*
X79999285Y-107041428D01*
X80042142Y-107212857D01*
X80085000Y-107298571D01*
X80170714Y-107384285D01*
X80299285Y-107427142D01*
X80385000Y-107427142D01*
X80513571Y-107384285D01*
X80556428Y-107341428D01*
X80556428Y-107041428D01*
X80385000Y-107041428D01*
X80942142Y-107427142D02*
X80942142Y-106527142D01*
X81285000Y-106527142D01*
X81370714Y-106570000D01*
X81413571Y-106612857D01*
X81456428Y-106698571D01*
X81456428Y-106827142D01*
X81413571Y-106912857D01*
X81370714Y-106955714D01*
X81285000Y-106998571D01*
X80942142Y-106998571D01*
X82313571Y-107427142D02*
X81799285Y-107427142D01*
X82056428Y-107427142D02*
X82056428Y-106527142D01*
X81970714Y-106655714D01*
X81885000Y-106741428D01*
X81799285Y-106784285D01*
X82656428Y-106612857D02*
X82699285Y-106570000D01*
X82785000Y-106527142D01*
X82999285Y-106527142D01*
X83085000Y-106570000D01*
X83127857Y-106612857D01*
X83170714Y-106698571D01*
X83170714Y-106784285D01*
X83127857Y-106912857D01*
X82613571Y-107427142D01*
X83170714Y-107427142D01*
X80513571Y-101490000D02*
X80427857Y-101447142D01*
X80299285Y-101447142D01*
X80170714Y-101490000D01*
X80085000Y-101575714D01*
X80042142Y-101661428D01*
X79999285Y-101832857D01*
X79999285Y-101961428D01*
X80042142Y-102132857D01*
X80085000Y-102218571D01*
X80170714Y-102304285D01*
X80299285Y-102347142D01*
X80385000Y-102347142D01*
X80513571Y-102304285D01*
X80556428Y-102261428D01*
X80556428Y-101961428D01*
X80385000Y-101961428D01*
X80942142Y-102347142D02*
X80942142Y-101447142D01*
X81285000Y-101447142D01*
X81370714Y-101490000D01*
X81413571Y-101532857D01*
X81456428Y-101618571D01*
X81456428Y-101747142D01*
X81413571Y-101832857D01*
X81370714Y-101875714D01*
X81285000Y-101918571D01*
X80942142Y-101918571D01*
X82313571Y-102347142D02*
X81799285Y-102347142D01*
X82056428Y-102347142D02*
X82056428Y-101447142D01*
X81970714Y-101575714D01*
X81885000Y-101661428D01*
X81799285Y-101704285D01*
X82870714Y-101447142D02*
X82956428Y-101447142D01*
X83042142Y-101490000D01*
X83085000Y-101532857D01*
X83127857Y-101618571D01*
X83170714Y-101790000D01*
X83170714Y-102004285D01*
X83127857Y-102175714D01*
X83085000Y-102261428D01*
X83042142Y-102304285D01*
X82956428Y-102347142D01*
X82870714Y-102347142D01*
X82785000Y-102304285D01*
X82742142Y-102261428D01*
X82699285Y-102175714D01*
X82656428Y-102004285D01*
X82656428Y-101790000D01*
X82699285Y-101618571D01*
X82742142Y-101532857D01*
X82785000Y-101490000D01*
X82870714Y-101447142D01*
X80513571Y-104030000D02*
X80427857Y-103987142D01*
X80299285Y-103987142D01*
X80170714Y-104030000D01*
X80085000Y-104115714D01*
X80042142Y-104201428D01*
X79999285Y-104372857D01*
X79999285Y-104501428D01*
X80042142Y-104672857D01*
X80085000Y-104758571D01*
X80170714Y-104844285D01*
X80299285Y-104887142D01*
X80385000Y-104887142D01*
X80513571Y-104844285D01*
X80556428Y-104801428D01*
X80556428Y-104501428D01*
X80385000Y-104501428D01*
X80942142Y-104887142D02*
X80942142Y-103987142D01*
X81285000Y-103987142D01*
X81370714Y-104030000D01*
X81413571Y-104072857D01*
X81456428Y-104158571D01*
X81456428Y-104287142D01*
X81413571Y-104372857D01*
X81370714Y-104415714D01*
X81285000Y-104458571D01*
X80942142Y-104458571D01*
X82313571Y-104887142D02*
X81799285Y-104887142D01*
X82056428Y-104887142D02*
X82056428Y-103987142D01*
X81970714Y-104115714D01*
X81885000Y-104201428D01*
X81799285Y-104244285D01*
X83170714Y-104887142D02*
X82656428Y-104887142D01*
X82913571Y-104887142D02*
X82913571Y-103987142D01*
X82827857Y-104115714D01*
X82742142Y-104201428D01*
X82656428Y-104244285D01*
X80942142Y-98950000D02*
X80856428Y-98907142D01*
X80727857Y-98907142D01*
X80599285Y-98950000D01*
X80513571Y-99035714D01*
X80470714Y-99121428D01*
X80427857Y-99292857D01*
X80427857Y-99421428D01*
X80470714Y-99592857D01*
X80513571Y-99678571D01*
X80599285Y-99764285D01*
X80727857Y-99807142D01*
X80813571Y-99807142D01*
X80942142Y-99764285D01*
X80985000Y-99721428D01*
X80985000Y-99421428D01*
X80813571Y-99421428D01*
X81370714Y-99807142D02*
X81370714Y-98907142D01*
X81713571Y-98907142D01*
X81799285Y-98950000D01*
X81842142Y-98992857D01*
X81885000Y-99078571D01*
X81885000Y-99207142D01*
X81842142Y-99292857D01*
X81799285Y-99335714D01*
X81713571Y-99378571D01*
X81370714Y-99378571D01*
X82313571Y-99807142D02*
X82485000Y-99807142D01*
X82570714Y-99764285D01*
X82613571Y-99721428D01*
X82699285Y-99592857D01*
X82742142Y-99421428D01*
X82742142Y-99078571D01*
X82699285Y-98992857D01*
X82656428Y-98950000D01*
X82570714Y-98907142D01*
X82399285Y-98907142D01*
X82313571Y-98950000D01*
X82270714Y-98992857D01*
X82227857Y-99078571D01*
X82227857Y-99292857D01*
X82270714Y-99378571D01*
X82313571Y-99421428D01*
X82399285Y-99464285D01*
X82570714Y-99464285D01*
X82656428Y-99421428D01*
X82699285Y-99378571D01*
X82742142Y-99292857D01*
X80942142Y-96410000D02*
X80856428Y-96367142D01*
X80727857Y-96367142D01*
X80599285Y-96410000D01*
X80513571Y-96495714D01*
X80470714Y-96581428D01*
X80427857Y-96752857D01*
X80427857Y-96881428D01*
X80470714Y-97052857D01*
X80513571Y-97138571D01*
X80599285Y-97224285D01*
X80727857Y-97267142D01*
X80813571Y-97267142D01*
X80942142Y-97224285D01*
X80985000Y-97181428D01*
X80985000Y-96881428D01*
X80813571Y-96881428D01*
X81370714Y-97267142D02*
X81370714Y-96367142D01*
X81713571Y-96367142D01*
X81799285Y-96410000D01*
X81842142Y-96452857D01*
X81885000Y-96538571D01*
X81885000Y-96667142D01*
X81842142Y-96752857D01*
X81799285Y-96795714D01*
X81713571Y-96838571D01*
X81370714Y-96838571D01*
X82399285Y-96752857D02*
X82313571Y-96710000D01*
X82270714Y-96667142D01*
X82227857Y-96581428D01*
X82227857Y-96538571D01*
X82270714Y-96452857D01*
X82313571Y-96410000D01*
X82399285Y-96367142D01*
X82570714Y-96367142D01*
X82656428Y-96410000D01*
X82699285Y-96452857D01*
X82742142Y-96538571D01*
X82742142Y-96581428D01*
X82699285Y-96667142D01*
X82656428Y-96710000D01*
X82570714Y-96752857D01*
X82399285Y-96752857D01*
X82313571Y-96795714D01*
X82270714Y-96838571D01*
X82227857Y-96924285D01*
X82227857Y-97095714D01*
X82270714Y-97181428D01*
X82313571Y-97224285D01*
X82399285Y-97267142D01*
X82570714Y-97267142D01*
X82656428Y-97224285D01*
X82699285Y-97181428D01*
X82742142Y-97095714D01*
X82742142Y-96924285D01*
X82699285Y-96838571D01*
X82656428Y-96795714D01*
X82570714Y-96752857D01*
X80942142Y-93870000D02*
X80856428Y-93827142D01*
X80727857Y-93827142D01*
X80599285Y-93870000D01*
X80513571Y-93955714D01*
X80470714Y-94041428D01*
X80427857Y-94212857D01*
X80427857Y-94341428D01*
X80470714Y-94512857D01*
X80513571Y-94598571D01*
X80599285Y-94684285D01*
X80727857Y-94727142D01*
X80813571Y-94727142D01*
X80942142Y-94684285D01*
X80985000Y-94641428D01*
X80985000Y-94341428D01*
X80813571Y-94341428D01*
X81370714Y-94727142D02*
X81370714Y-93827142D01*
X81713571Y-93827142D01*
X81799285Y-93870000D01*
X81842142Y-93912857D01*
X81885000Y-93998571D01*
X81885000Y-94127142D01*
X81842142Y-94212857D01*
X81799285Y-94255714D01*
X81713571Y-94298571D01*
X81370714Y-94298571D01*
X82185000Y-93827142D02*
X82785000Y-93827142D01*
X82399285Y-94727142D01*
X80942142Y-91330000D02*
X80856428Y-91287142D01*
X80727857Y-91287142D01*
X80599285Y-91330000D01*
X80513571Y-91415714D01*
X80470714Y-91501428D01*
X80427857Y-91672857D01*
X80427857Y-91801428D01*
X80470714Y-91972857D01*
X80513571Y-92058571D01*
X80599285Y-92144285D01*
X80727857Y-92187142D01*
X80813571Y-92187142D01*
X80942142Y-92144285D01*
X80985000Y-92101428D01*
X80985000Y-91801428D01*
X80813571Y-91801428D01*
X81370714Y-92187142D02*
X81370714Y-91287142D01*
X81713571Y-91287142D01*
X81799285Y-91330000D01*
X81842142Y-91372857D01*
X81885000Y-91458571D01*
X81885000Y-91587142D01*
X81842142Y-91672857D01*
X81799285Y-91715714D01*
X81713571Y-91758571D01*
X81370714Y-91758571D01*
X82656428Y-91287142D02*
X82485000Y-91287142D01*
X82399285Y-91330000D01*
X82356428Y-91372857D01*
X82270714Y-91501428D01*
X82227857Y-91672857D01*
X82227857Y-92015714D01*
X82270714Y-92101428D01*
X82313571Y-92144285D01*
X82399285Y-92187142D01*
X82570714Y-92187142D01*
X82656428Y-92144285D01*
X82699285Y-92101428D01*
X82742142Y-92015714D01*
X82742142Y-91801428D01*
X82699285Y-91715714D01*
X82656428Y-91672857D01*
X82570714Y-91630000D01*
X82399285Y-91630000D01*
X82313571Y-91672857D01*
X82270714Y-91715714D01*
X82227857Y-91801428D01*
X80942142Y-88790000D02*
X80856428Y-88747142D01*
X80727857Y-88747142D01*
X80599285Y-88790000D01*
X80513571Y-88875714D01*
X80470714Y-88961428D01*
X80427857Y-89132857D01*
X80427857Y-89261428D01*
X80470714Y-89432857D01*
X80513571Y-89518571D01*
X80599285Y-89604285D01*
X80727857Y-89647142D01*
X80813571Y-89647142D01*
X80942142Y-89604285D01*
X80985000Y-89561428D01*
X80985000Y-89261428D01*
X80813571Y-89261428D01*
X81370714Y-89647142D02*
X81370714Y-88747142D01*
X81713571Y-88747142D01*
X81799285Y-88790000D01*
X81842142Y-88832857D01*
X81885000Y-88918571D01*
X81885000Y-89047142D01*
X81842142Y-89132857D01*
X81799285Y-89175714D01*
X81713571Y-89218571D01*
X81370714Y-89218571D01*
X82699285Y-88747142D02*
X82270714Y-88747142D01*
X82227857Y-89175714D01*
X82270714Y-89132857D01*
X82356428Y-89090000D01*
X82570714Y-89090000D01*
X82656428Y-89132857D01*
X82699285Y-89175714D01*
X82742142Y-89261428D01*
X82742142Y-89475714D01*
X82699285Y-89561428D01*
X82656428Y-89604285D01*
X82570714Y-89647142D01*
X82356428Y-89647142D01*
X82270714Y-89604285D01*
X82227857Y-89561428D01*
X80942142Y-86250000D02*
X80856428Y-86207142D01*
X80727857Y-86207142D01*
X80599285Y-86250000D01*
X80513571Y-86335714D01*
X80470714Y-86421428D01*
X80427857Y-86592857D01*
X80427857Y-86721428D01*
X80470714Y-86892857D01*
X80513571Y-86978571D01*
X80599285Y-87064285D01*
X80727857Y-87107142D01*
X80813571Y-87107142D01*
X80942142Y-87064285D01*
X80985000Y-87021428D01*
X80985000Y-86721428D01*
X80813571Y-86721428D01*
X81370714Y-87107142D02*
X81370714Y-86207142D01*
X81713571Y-86207142D01*
X81799285Y-86250000D01*
X81842142Y-86292857D01*
X81885000Y-86378571D01*
X81885000Y-86507142D01*
X81842142Y-86592857D01*
X81799285Y-86635714D01*
X81713571Y-86678571D01*
X81370714Y-86678571D01*
X82656428Y-86507142D02*
X82656428Y-87107142D01*
X82442142Y-86164285D02*
X82227857Y-86807142D01*
X82785000Y-86807142D01*
X80942142Y-83710000D02*
X80856428Y-83667142D01*
X80727857Y-83667142D01*
X80599285Y-83710000D01*
X80513571Y-83795714D01*
X80470714Y-83881428D01*
X80427857Y-84052857D01*
X80427857Y-84181428D01*
X80470714Y-84352857D01*
X80513571Y-84438571D01*
X80599285Y-84524285D01*
X80727857Y-84567142D01*
X80813571Y-84567142D01*
X80942142Y-84524285D01*
X80985000Y-84481428D01*
X80985000Y-84181428D01*
X80813571Y-84181428D01*
X81370714Y-84567142D02*
X81370714Y-83667142D01*
X81713571Y-83667142D01*
X81799285Y-83710000D01*
X81842142Y-83752857D01*
X81885000Y-83838571D01*
X81885000Y-83967142D01*
X81842142Y-84052857D01*
X81799285Y-84095714D01*
X81713571Y-84138571D01*
X81370714Y-84138571D01*
X82185000Y-83667142D02*
X82742142Y-83667142D01*
X82442142Y-84010000D01*
X82570714Y-84010000D01*
X82656428Y-84052857D01*
X82699285Y-84095714D01*
X82742142Y-84181428D01*
X82742142Y-84395714D01*
X82699285Y-84481428D01*
X82656428Y-84524285D01*
X82570714Y-84567142D01*
X82313571Y-84567142D01*
X82227857Y-84524285D01*
X82185000Y-84481428D01*
X80942142Y-81170000D02*
X80856428Y-81127142D01*
X80727857Y-81127142D01*
X80599285Y-81170000D01*
X80513571Y-81255714D01*
X80470714Y-81341428D01*
X80427857Y-81512857D01*
X80427857Y-81641428D01*
X80470714Y-81812857D01*
X80513571Y-81898571D01*
X80599285Y-81984285D01*
X80727857Y-82027142D01*
X80813571Y-82027142D01*
X80942142Y-81984285D01*
X80985000Y-81941428D01*
X80985000Y-81641428D01*
X80813571Y-81641428D01*
X81370714Y-82027142D02*
X81370714Y-81127142D01*
X81713571Y-81127142D01*
X81799285Y-81170000D01*
X81842142Y-81212857D01*
X81885000Y-81298571D01*
X81885000Y-81427142D01*
X81842142Y-81512857D01*
X81799285Y-81555714D01*
X81713571Y-81598571D01*
X81370714Y-81598571D01*
X82227857Y-81212857D02*
X82270714Y-81170000D01*
X82356428Y-81127142D01*
X82570714Y-81127142D01*
X82656428Y-81170000D01*
X82699285Y-81212857D01*
X82742142Y-81298571D01*
X82742142Y-81384285D01*
X82699285Y-81512857D01*
X82185000Y-82027142D01*
X82742142Y-82027142D01*
X80942142Y-78630000D02*
X80856428Y-78587142D01*
X80727857Y-78587142D01*
X80599285Y-78630000D01*
X80513571Y-78715714D01*
X80470714Y-78801428D01*
X80427857Y-78972857D01*
X80427857Y-79101428D01*
X80470714Y-79272857D01*
X80513571Y-79358571D01*
X80599285Y-79444285D01*
X80727857Y-79487142D01*
X80813571Y-79487142D01*
X80942142Y-79444285D01*
X80985000Y-79401428D01*
X80985000Y-79101428D01*
X80813571Y-79101428D01*
X81370714Y-79487142D02*
X81370714Y-78587142D01*
X81713571Y-78587142D01*
X81799285Y-78630000D01*
X81842142Y-78672857D01*
X81885000Y-78758571D01*
X81885000Y-78887142D01*
X81842142Y-78972857D01*
X81799285Y-79015714D01*
X81713571Y-79058571D01*
X81370714Y-79058571D01*
X82742142Y-79487142D02*
X82227857Y-79487142D01*
X82485000Y-79487142D02*
X82485000Y-78587142D01*
X82399285Y-78715714D01*
X82313571Y-78801428D01*
X82227857Y-78844285D01*
X80942142Y-76090000D02*
X80856428Y-76047142D01*
X80727857Y-76047142D01*
X80599285Y-76090000D01*
X80513571Y-76175714D01*
X80470714Y-76261428D01*
X80427857Y-76432857D01*
X80427857Y-76561428D01*
X80470714Y-76732857D01*
X80513571Y-76818571D01*
X80599285Y-76904285D01*
X80727857Y-76947142D01*
X80813571Y-76947142D01*
X80942142Y-76904285D01*
X80985000Y-76861428D01*
X80985000Y-76561428D01*
X80813571Y-76561428D01*
X81370714Y-76947142D02*
X81370714Y-76047142D01*
X81713571Y-76047142D01*
X81799285Y-76090000D01*
X81842142Y-76132857D01*
X81885000Y-76218571D01*
X81885000Y-76347142D01*
X81842142Y-76432857D01*
X81799285Y-76475714D01*
X81713571Y-76518571D01*
X81370714Y-76518571D01*
X82442142Y-76047142D02*
X82527857Y-76047142D01*
X82613571Y-76090000D01*
X82656428Y-76132857D01*
X82699285Y-76218571D01*
X82742142Y-76390000D01*
X82742142Y-76604285D01*
X82699285Y-76775714D01*
X82656428Y-76861428D01*
X82613571Y-76904285D01*
X82527857Y-76947142D01*
X82442142Y-76947142D01*
X82356428Y-76904285D01*
X82313571Y-76861428D01*
X82270714Y-76775714D01*
X82227857Y-76604285D01*
X82227857Y-76390000D01*
X82270714Y-76218571D01*
X82313571Y-76132857D01*
X82356428Y-76090000D01*
X82442142Y-76047142D01*
X80470714Y-73507142D02*
X81027857Y-73507142D01*
X80727857Y-73850000D01*
X80856428Y-73850000D01*
X80942142Y-73892857D01*
X80985000Y-73935714D01*
X81027857Y-74021428D01*
X81027857Y-74235714D01*
X80985000Y-74321428D01*
X80942142Y-74364285D01*
X80856428Y-74407142D01*
X80599285Y-74407142D01*
X80513571Y-74364285D01*
X80470714Y-74321428D01*
X81285000Y-73507142D02*
X81585000Y-74407142D01*
X81885000Y-73507142D01*
X82099285Y-73507142D02*
X82656428Y-73507142D01*
X82356428Y-73850000D01*
X82485000Y-73850000D01*
X82570714Y-73892857D01*
X82613571Y-73935714D01*
X82656428Y-74021428D01*
X82656428Y-74235714D01*
X82613571Y-74321428D01*
X82570714Y-74364285D01*
X82485000Y-74407142D01*
X82227857Y-74407142D01*
X82142142Y-74364285D01*
X82099285Y-74321428D01*
D11*
X90338095Y-71200000D02*
X90242857Y-71152380D01*
X90100000Y-71152380D01*
X89957142Y-71200000D01*
X89861904Y-71295238D01*
X89814285Y-71390476D01*
X89766666Y-71580952D01*
X89766666Y-71723809D01*
X89814285Y-71914285D01*
X89861904Y-72009523D01*
X89957142Y-72104761D01*
X90100000Y-72152380D01*
X90195238Y-72152380D01*
X90338095Y-72104761D01*
X90385714Y-72057142D01*
X90385714Y-71723809D01*
X90195238Y-71723809D01*
X90814285Y-72152380D02*
X90814285Y-71152380D01*
X91385714Y-72152380D01*
X91385714Y-71152380D01*
X91861904Y-72152380D02*
X91861904Y-71152380D01*
X92100000Y-71152380D01*
X92242857Y-71200000D01*
X92338095Y-71295238D01*
X92385714Y-71390476D01*
X92433333Y-71580952D01*
X92433333Y-71723809D01*
X92385714Y-71914285D01*
X92338095Y-72009523D01*
X92242857Y-72104761D01*
X92100000Y-72152380D01*
X91861904Y-72152380D01*
X88808571Y-78377380D02*
X88808571Y-79186904D01*
X88856190Y-79282142D01*
X88903809Y-79329761D01*
X88999047Y-79377380D01*
X89189523Y-79377380D01*
X89284761Y-79329761D01*
X89332380Y-79282142D01*
X89380000Y-79186904D01*
X89380000Y-78377380D01*
X89808571Y-79329761D02*
X89951428Y-79377380D01*
X90189523Y-79377380D01*
X90284761Y-79329761D01*
X90332380Y-79282142D01*
X90380000Y-79186904D01*
X90380000Y-79091666D01*
X90332380Y-78996428D01*
X90284761Y-78948809D01*
X90189523Y-78901190D01*
X89999047Y-78853571D01*
X89903809Y-78805952D01*
X89856190Y-78758333D01*
X89808571Y-78663095D01*
X89808571Y-78567857D01*
X89856190Y-78472619D01*
X89903809Y-78425000D01*
X89999047Y-78377380D01*
X90237142Y-78377380D01*
X90380000Y-78425000D01*
X91141904Y-78853571D02*
X91284761Y-78901190D01*
X91332380Y-78948809D01*
X91380000Y-79044047D01*
X91380000Y-79186904D01*
X91332380Y-79282142D01*
X91284761Y-79329761D01*
X91189523Y-79377380D01*
X90808571Y-79377380D01*
X90808571Y-78377380D01*
X91141904Y-78377380D01*
X91237142Y-78425000D01*
X91284761Y-78472619D01*
X91332380Y-78567857D01*
X91332380Y-78663095D01*
X91284761Y-78758333D01*
X91237142Y-78805952D01*
X91141904Y-78853571D01*
X90808571Y-78853571D01*
X91570476Y-79472619D02*
X92332380Y-79472619D01*
X92903809Y-78853571D02*
X93046666Y-78901190D01*
X93094285Y-78948809D01*
X93141904Y-79044047D01*
X93141904Y-79186904D01*
X93094285Y-79282142D01*
X93046666Y-79329761D01*
X92951428Y-79377380D01*
X92570476Y-79377380D01*
X92570476Y-78377380D01*
X92903809Y-78377380D01*
X92999047Y-78425000D01*
X93046666Y-78472619D01*
X93094285Y-78567857D01*
X93094285Y-78663095D01*
X93046666Y-78758333D01*
X92999047Y-78805952D01*
X92903809Y-78853571D01*
X92570476Y-78853571D01*
X93760952Y-78377380D02*
X93951428Y-78377380D01*
X94046666Y-78425000D01*
X94141904Y-78520238D01*
X94189523Y-78710714D01*
X94189523Y-79044047D01*
X94141904Y-79234523D01*
X94046666Y-79329761D01*
X93951428Y-79377380D01*
X93760952Y-79377380D01*
X93665714Y-79329761D01*
X93570476Y-79234523D01*
X93522857Y-79044047D01*
X93522857Y-78710714D01*
X93570476Y-78520238D01*
X93665714Y-78425000D01*
X93760952Y-78377380D01*
X94808571Y-78377380D02*
X94999047Y-78377380D01*
X95094285Y-78425000D01*
X95189523Y-78520238D01*
X95237142Y-78710714D01*
X95237142Y-79044047D01*
X95189523Y-79234523D01*
X95094285Y-79329761D01*
X94999047Y-79377380D01*
X94808571Y-79377380D01*
X94713333Y-79329761D01*
X94618095Y-79234523D01*
X94570476Y-79044047D01*
X94570476Y-78710714D01*
X94618095Y-78520238D01*
X94713333Y-78425000D01*
X94808571Y-78377380D01*
X95522857Y-78377380D02*
X96094285Y-78377380D01*
X95808571Y-79377380D02*
X95808571Y-78377380D01*
X92714285Y-117352380D02*
X92380952Y-116876190D01*
X92142857Y-117352380D02*
X92142857Y-116352380D01*
X92523809Y-116352380D01*
X92619047Y-116400000D01*
X92666666Y-116447619D01*
X92714285Y-116542857D01*
X92714285Y-116685714D01*
X92666666Y-116780952D01*
X92619047Y-116828571D01*
X92523809Y-116876190D01*
X92142857Y-116876190D01*
X93571428Y-117352380D02*
X93571428Y-116828571D01*
X93523809Y-116733333D01*
X93428571Y-116685714D01*
X93238095Y-116685714D01*
X93142857Y-116733333D01*
X93571428Y-117304761D02*
X93476190Y-117352380D01*
X93238095Y-117352380D01*
X93142857Y-117304761D01*
X93095238Y-117209523D01*
X93095238Y-117114285D01*
X93142857Y-117019047D01*
X93238095Y-116971428D01*
X93476190Y-116971428D01*
X93571428Y-116923809D01*
X94000000Y-117304761D02*
X94095238Y-117352380D01*
X94285714Y-117352380D01*
X94380952Y-117304761D01*
X94428571Y-117209523D01*
X94428571Y-117161904D01*
X94380952Y-117066666D01*
X94285714Y-117019047D01*
X94142857Y-117019047D01*
X94047619Y-116971428D01*
X94000000Y-116876190D01*
X94000000Y-116828571D01*
X94047619Y-116733333D01*
X94142857Y-116685714D01*
X94285714Y-116685714D01*
X94380952Y-116733333D01*
X94857142Y-116685714D02*
X94857142Y-117685714D01*
X94857142Y-116733333D02*
X94952380Y-116685714D01*
X95142857Y-116685714D01*
X95238095Y-116733333D01*
X95285714Y-116780952D01*
X95333333Y-116876190D01*
X95333333Y-117161904D01*
X95285714Y-117257142D01*
X95238095Y-117304761D01*
X95142857Y-117352380D01*
X94952380Y-117352380D01*
X94857142Y-117304761D01*
X95761904Y-117352380D02*
X95761904Y-116352380D01*
X95761904Y-116733333D02*
X95857142Y-116685714D01*
X96047619Y-116685714D01*
X96142857Y-116733333D01*
X96190476Y-116780952D01*
X96238095Y-116876190D01*
X96238095Y-117161904D01*
X96190476Y-117257142D01*
X96142857Y-117304761D01*
X96047619Y-117352380D01*
X95857142Y-117352380D01*
X95761904Y-117304761D01*
X97047619Y-117304761D02*
X96952380Y-117352380D01*
X96761904Y-117352380D01*
X96666666Y-117304761D01*
X96619047Y-117209523D01*
X96619047Y-116828571D01*
X96666666Y-116733333D01*
X96761904Y-116685714D01*
X96952380Y-116685714D01*
X97047619Y-116733333D01*
X97095238Y-116828571D01*
X97095238Y-116923809D01*
X96619047Y-117019047D01*
X97523809Y-117352380D02*
X97523809Y-116685714D01*
X97523809Y-116876190D02*
X97571428Y-116780952D01*
X97619047Y-116733333D01*
X97714285Y-116685714D01*
X97809523Y-116685714D01*
X98142857Y-117352380D02*
X98142857Y-116685714D01*
X98142857Y-116876190D02*
X98190476Y-116780952D01*
X98238095Y-116733333D01*
X98333333Y-116685714D01*
X98428571Y-116685714D01*
X98666666Y-116685714D02*
X98904761Y-117352380D01*
X99142857Y-116685714D02*
X98904761Y-117352380D01*
X98809523Y-117590476D01*
X98761904Y-117638095D01*
X98666666Y-117685714D01*
X100285714Y-117352380D02*
X100285714Y-116352380D01*
X100666666Y-116352380D01*
X100761904Y-116400000D01*
X100809523Y-116447619D01*
X100857142Y-116542857D01*
X100857142Y-116685714D01*
X100809523Y-116780952D01*
X100761904Y-116828571D01*
X100666666Y-116876190D01*
X100285714Y-116876190D01*
X101285714Y-117352380D02*
X101285714Y-116685714D01*
X101285714Y-116352380D02*
X101238095Y-116400000D01*
X101285714Y-116447619D01*
X101333333Y-116400000D01*
X101285714Y-116352380D01*
X101285714Y-116447619D01*
X103095238Y-117352380D02*
X102761904Y-116876190D01*
X102523809Y-117352380D02*
X102523809Y-116352380D01*
X102904761Y-116352380D01*
X103000000Y-116400000D01*
X103047619Y-116447619D01*
X103095238Y-116542857D01*
X103095238Y-116685714D01*
X103047619Y-116780952D01*
X103000000Y-116828571D01*
X102904761Y-116876190D01*
X102523809Y-116876190D01*
X103523809Y-117352380D02*
X103523809Y-116352380D01*
X103904761Y-116352380D01*
X104000000Y-116400000D01*
X104047619Y-116447619D01*
X104095238Y-116542857D01*
X104095238Y-116685714D01*
X104047619Y-116780952D01*
X104000000Y-116828571D01*
X103904761Y-116876190D01*
X103523809Y-116876190D01*
X104476190Y-116447619D02*
X104523809Y-116400000D01*
X104619047Y-116352380D01*
X104857142Y-116352380D01*
X104952380Y-116400000D01*
X105000000Y-116447619D01*
X105047619Y-116542857D01*
X105047619Y-116638095D01*
X105000000Y-116780952D01*
X104428571Y-117352380D01*
X105047619Y-117352380D01*
X105666666Y-116352380D02*
X105761904Y-116352380D01*
X105857142Y-116400000D01*
X105904761Y-116447619D01*
X105952380Y-116542857D01*
X106000000Y-116733333D01*
X106000000Y-116971428D01*
X105952380Y-117161904D01*
X105904761Y-117257142D01*
X105857142Y-117304761D01*
X105761904Y-117352380D01*
X105666666Y-117352380D01*
X105571428Y-117304761D01*
X105523809Y-117257142D01*
X105476190Y-117161904D01*
X105428571Y-116971428D01*
X105428571Y-116733333D01*
X105476190Y-116542857D01*
X105523809Y-116447619D01*
X105571428Y-116400000D01*
X105666666Y-116352380D01*
X106857142Y-116685714D02*
X106857142Y-117352380D01*
X106619047Y-116304761D02*
X106380952Y-117019047D01*
X107000000Y-117019047D01*
X107571428Y-116352380D02*
X107666666Y-116352380D01*
X107761904Y-116400000D01*
X107809523Y-116447619D01*
X107857142Y-116542857D01*
X107904761Y-116733333D01*
X107904761Y-116971428D01*
X107857142Y-117161904D01*
X107809523Y-117257142D01*
X107761904Y-117304761D01*
X107666666Y-117352380D01*
X107571428Y-117352380D01*
X107476190Y-117304761D01*
X107428571Y-117257142D01*
X107380952Y-117161904D01*
X107333333Y-116971428D01*
X107333333Y-116733333D01*
X107380952Y-116542857D01*
X107428571Y-116447619D01*
X107476190Y-116400000D01*
X107571428Y-116352380D01*
X88380952Y-119252380D02*
X88380952Y-118252380D01*
X88714285Y-118966666D01*
X89047619Y-118252380D01*
X89047619Y-119252380D01*
X89523809Y-119252380D02*
X89523809Y-118585714D01*
X89523809Y-118252380D02*
X89476190Y-118300000D01*
X89523809Y-118347619D01*
X89571428Y-118300000D01*
X89523809Y-118252380D01*
X89523809Y-118347619D01*
X89999999Y-118585714D02*
X89999999Y-119252380D01*
X89999999Y-118680952D02*
X90047619Y-118633333D01*
X90142857Y-118585714D01*
X90285714Y-118585714D01*
X90380952Y-118633333D01*
X90428571Y-118728571D01*
X90428571Y-119252380D01*
X90904761Y-119252380D02*
X90904761Y-118585714D01*
X90904761Y-118252380D02*
X90857142Y-118300000D01*
X90904761Y-118347619D01*
X90952380Y-118300000D01*
X90904761Y-118252380D01*
X90904761Y-118347619D01*
X91380952Y-119252380D02*
X91380952Y-118585714D01*
X91380952Y-118680952D02*
X91428571Y-118633333D01*
X91523809Y-118585714D01*
X91666666Y-118585714D01*
X91761904Y-118633333D01*
X91809523Y-118728571D01*
X91809523Y-119252380D01*
X91809523Y-118728571D02*
X91857142Y-118633333D01*
X91952380Y-118585714D01*
X92095238Y-118585714D01*
X92190476Y-118633333D01*
X92238095Y-118728571D01*
X92238095Y-119252380D01*
X93142857Y-119252380D02*
X93142857Y-118728571D01*
X93095238Y-118633333D01*
X92999999Y-118585714D01*
X92809523Y-118585714D01*
X92714285Y-118633333D01*
X93142857Y-119204761D02*
X93047619Y-119252380D01*
X92809523Y-119252380D01*
X92714285Y-119204761D01*
X92666666Y-119109523D01*
X92666666Y-119014285D01*
X92714285Y-118919047D01*
X92809523Y-118871428D01*
X93047619Y-118871428D01*
X93142857Y-118823809D01*
X93761904Y-119252380D02*
X93666666Y-119204761D01*
X93619047Y-119109523D01*
X93619047Y-118252380D01*
X94904761Y-119252380D02*
X94904761Y-118252380D01*
X95142857Y-118252380D01*
X95285714Y-118300000D01*
X95380952Y-118395238D01*
X95428571Y-118490476D01*
X95476190Y-118680952D01*
X95476190Y-118823809D01*
X95428571Y-119014285D01*
X95380952Y-119109523D01*
X95285714Y-119204761D01*
X95142857Y-119252380D01*
X94904761Y-119252380D01*
X96285714Y-119204761D02*
X96190476Y-119252380D01*
X95999999Y-119252380D01*
X95904761Y-119204761D01*
X95857142Y-119109523D01*
X95857142Y-118728571D01*
X95904761Y-118633333D01*
X95999999Y-118585714D01*
X96190476Y-118585714D01*
X96285714Y-118633333D01*
X96333333Y-118728571D01*
X96333333Y-118823809D01*
X95857142Y-118919047D01*
X96714285Y-119204761D02*
X96809523Y-119252380D01*
X96999999Y-119252380D01*
X97095238Y-119204761D01*
X97142857Y-119109523D01*
X97142857Y-119061904D01*
X97095238Y-118966666D01*
X96999999Y-118919047D01*
X96857142Y-118919047D01*
X96761904Y-118871428D01*
X96714285Y-118776190D01*
X96714285Y-118728571D01*
X96761904Y-118633333D01*
X96857142Y-118585714D01*
X96999999Y-118585714D01*
X97095238Y-118633333D01*
X97571428Y-119252380D02*
X97571428Y-118585714D01*
X97571428Y-118252380D02*
X97523809Y-118300000D01*
X97571428Y-118347619D01*
X97619047Y-118300000D01*
X97571428Y-118252380D01*
X97571428Y-118347619D01*
X98476190Y-118585714D02*
X98476190Y-119395238D01*
X98428571Y-119490476D01*
X98380952Y-119538095D01*
X98285714Y-119585714D01*
X98142857Y-119585714D01*
X98047619Y-119538095D01*
X98476190Y-119204761D02*
X98380952Y-119252380D01*
X98190476Y-119252380D01*
X98095238Y-119204761D01*
X98047619Y-119157142D01*
X97999999Y-119061904D01*
X97999999Y-118776190D01*
X98047619Y-118680952D01*
X98095238Y-118633333D01*
X98190476Y-118585714D01*
X98380952Y-118585714D01*
X98476190Y-118633333D01*
X98952380Y-118585714D02*
X98952380Y-119252380D01*
X98952380Y-118680952D02*
X98999999Y-118633333D01*
X99095238Y-118585714D01*
X99238095Y-118585714D01*
X99333333Y-118633333D01*
X99380952Y-118728571D01*
X99380952Y-119252380D01*
X100619047Y-118728571D02*
X100952380Y-118728571D01*
X101095238Y-119252380D02*
X100619047Y-119252380D01*
X100619047Y-118252380D01*
X101095238Y-118252380D01*
X101428571Y-119252380D02*
X101952380Y-118585714D01*
X101428571Y-118585714D02*
X101952380Y-119252380D01*
X102761904Y-119252380D02*
X102761904Y-118728571D01*
X102714285Y-118633333D01*
X102619047Y-118585714D01*
X102428571Y-118585714D01*
X102333333Y-118633333D01*
X102761904Y-119204761D02*
X102666666Y-119252380D01*
X102428571Y-119252380D01*
X102333333Y-119204761D01*
X102285714Y-119109523D01*
X102285714Y-119014285D01*
X102333333Y-118919047D01*
X102428571Y-118871428D01*
X102666666Y-118871428D01*
X102761904Y-118823809D01*
X103238095Y-119252380D02*
X103238095Y-118585714D01*
X103238095Y-118680952D02*
X103285714Y-118633333D01*
X103380952Y-118585714D01*
X103523809Y-118585714D01*
X103619047Y-118633333D01*
X103666666Y-118728571D01*
X103666666Y-119252380D01*
X103666666Y-118728571D02*
X103714285Y-118633333D01*
X103809523Y-118585714D01*
X103952380Y-118585714D01*
X104047619Y-118633333D01*
X104095238Y-118728571D01*
X104095238Y-119252380D01*
X104571428Y-118585714D02*
X104571428Y-119585714D01*
X104571428Y-118633333D02*
X104666666Y-118585714D01*
X104857142Y-118585714D01*
X104952380Y-118633333D01*
X105000000Y-118680952D01*
X105047619Y-118776190D01*
X105047619Y-119061904D01*
X105000000Y-119157142D01*
X104952380Y-119204761D01*
X104857142Y-119252380D01*
X104666666Y-119252380D01*
X104571428Y-119204761D01*
X105619047Y-119252380D02*
X105523809Y-119204761D01*
X105476190Y-119109523D01*
X105476190Y-118252380D01*
X106380952Y-119204761D02*
X106285714Y-119252380D01*
X106095238Y-119252380D01*
X105999999Y-119204761D01*
X105952380Y-119109523D01*
X105952380Y-118728571D01*
X105999999Y-118633333D01*
X106095238Y-118585714D01*
X106285714Y-118585714D01*
X106380952Y-118633333D01*
X106428571Y-118728571D01*
X106428571Y-118823809D01*
X105952380Y-118919047D01*
X108952380Y-119252380D02*
X108619047Y-118776190D01*
X108380952Y-119252380D02*
X108380952Y-118252380D01*
X108761904Y-118252380D01*
X108857142Y-118300000D01*
X108904761Y-118347619D01*
X108952380Y-118442857D01*
X108952380Y-118585714D01*
X108904761Y-118680952D01*
X108857142Y-118728571D01*
X108761904Y-118776190D01*
X108380952Y-118776190D01*
X109380952Y-118728571D02*
X109714285Y-118728571D01*
X109857142Y-119252380D02*
X109380952Y-119252380D01*
X109380952Y-118252380D01*
X109857142Y-118252380D01*
X110142857Y-118252380D02*
X110476190Y-119252380D01*
X110809523Y-118252380D01*
X111666666Y-119252380D02*
X111095238Y-119252380D01*
X111380952Y-119252380D02*
X111380952Y-118252380D01*
X111285714Y-118395238D01*
X111190476Y-118490476D01*
X111095238Y-118538095D01*
D13*
X93977000Y-69004000D02*
X93977000Y-64727000D01*
D14*
X93977000Y-69004000D02*
X106210000Y-69004000D01*
X106210000Y-52720000D02*
X93977000Y-52720000D01*
D13*
X93977000Y-60709000D02*
X93977000Y-52722000D01*
X106210000Y-69004000D02*
X106210000Y-64727000D01*
X106210000Y-60709000D02*
X106210000Y-52720000D01*
X106210000Y-52720000D02*
X93977000Y-52720000D01*
D10*
X110700000Y-124040000D02*
X110700000Y-122890000D01*
X110700000Y-122890000D02*
X109650000Y-122890000D01*
X109650000Y-122890000D02*
X109650000Y-121900000D01*
X104480000Y-124040000D02*
X104480000Y-122890000D01*
X104480000Y-122890000D02*
X105530000Y-122890000D01*
X109530000Y-126010000D02*
X105650000Y-126010000D01*
X84856422Y-77290000D02*
X85373578Y-77290000D01*
X84856422Y-78710000D02*
X85373578Y-78710000D01*
X108766422Y-88290000D02*
X109283578Y-88290000D01*
X108766422Y-89710000D02*
X109283578Y-89710000D01*
X91141000Y-115666000D02*
X103741000Y-115666000D01*
X91141000Y-110566000D02*
X91141000Y-111816000D01*
X103741000Y-110566000D02*
X91141000Y-110566000D01*
X91141000Y-114416000D02*
X91141000Y-115666000D01*
X102960000Y-96390000D02*
X103610000Y-96390000D01*
X103610000Y-96390000D02*
X103610000Y-97040000D01*
X97040000Y-103610000D02*
X96390000Y-103610000D01*
X96390000Y-103610000D02*
X96390000Y-102960000D01*
X102960000Y-103610000D02*
X103610000Y-103610000D01*
X103610000Y-103610000D02*
X103610000Y-102960000D01*
X97040000Y-96390000D02*
X96390000Y-96390000D01*
X107678922Y-75790000D02*
X108196078Y-75790000D01*
X107678922Y-77210000D02*
X108196078Y-77210000D01*
X93050000Y-90000000D02*
X95775000Y-90000000D01*
X95775000Y-90000000D02*
X95775000Y-89740000D01*
X93050000Y-90000000D02*
X90325000Y-90000000D01*
X90325000Y-90000000D02*
X90325000Y-89740000D01*
X93050000Y-84550000D02*
X95775000Y-84550000D01*
X95775000Y-84550000D02*
X95775000Y-84810000D01*
X93050000Y-84550000D02*
X90325000Y-84550000D01*
X90325000Y-84550000D02*
X90325000Y-84810000D01*
X90325000Y-84810000D02*
X88650000Y-84810000D01*
X104590000Y-84760000D02*
X105850000Y-84760000D01*
X111410000Y-84760000D02*
X110150000Y-84760000D01*
X104590000Y-81000000D02*
X104590000Y-84760000D01*
X111410000Y-78750000D02*
X111410000Y-84760000D01*
X120260000Y-118510000D02*
X125460000Y-118510000D01*
X120260000Y-75270000D02*
X120260000Y-118510000D01*
X125460000Y-72670000D02*
X125460000Y-118510000D01*
X120260000Y-75270000D02*
X122860000Y-75270000D01*
X122860000Y-75270000D02*
X122860000Y-72670000D01*
X122860000Y-72670000D02*
X125460000Y-72670000D01*
X120260000Y-74000000D02*
X120260000Y-72670000D01*
X120260000Y-72670000D02*
X121590000Y-72670000D01*
X74540000Y-118510000D02*
X79740000Y-118510000D01*
X74540000Y-75270000D02*
X74540000Y-118510000D01*
X79740000Y-72670000D02*
X79740000Y-118510000D01*
X74540000Y-75270000D02*
X77140000Y-75270000D01*
X77140000Y-75270000D02*
X77140000Y-72670000D01*
X77140000Y-72670000D02*
X79740000Y-72670000D01*
X74540000Y-74000000D02*
X74540000Y-72670000D01*
X74540000Y-72670000D02*
X75870000Y-72670000D01*
X92440000Y-72670000D02*
X89780000Y-72670000D01*
X92440000Y-75270000D02*
X92440000Y-72670000D01*
X89780000Y-75270000D02*
X89780000Y-72670000D01*
X92440000Y-75270000D02*
X89780000Y-75270000D01*
X92440000Y-76540000D02*
X92440000Y-77870000D01*
X92440000Y-77870000D02*
X91110000Y-77870000D01*
D11*
X97802023Y-69064142D02*
X97754404Y-69111761D01*
X97611547Y-69159380D01*
X97516309Y-69159380D01*
X97373452Y-69111761D01*
X97278214Y-69016523D01*
X97230595Y-68921285D01*
X97182976Y-68730809D01*
X97182976Y-68587952D01*
X97230595Y-68397476D01*
X97278214Y-68302238D01*
X97373452Y-68207000D01*
X97516309Y-68159380D01*
X97611547Y-68159380D01*
X97754404Y-68207000D01*
X97802023Y-68254619D01*
X98230595Y-69159380D02*
X98230595Y-68159380D01*
X98802023Y-69159380D01*
X98802023Y-68159380D01*
X99802023Y-69159380D02*
X99230595Y-69159380D01*
X99516309Y-69159380D02*
X99516309Y-68159380D01*
X99421071Y-68302238D01*
X99325833Y-68397476D01*
X99230595Y-68445095D01*
X25831904Y-142862380D02*
X25831904Y-141862380D01*
X25831904Y-142338571D02*
X26403333Y-142338571D01*
X26403333Y-142862380D02*
X26403333Y-141862380D01*
X27403333Y-142862380D02*
X26831904Y-142862380D01*
X27117619Y-142862380D02*
X27117619Y-141862380D01*
X27022380Y-142005238D01*
X26927142Y-142100476D01*
X26831904Y-142148095D01*
X27784285Y-141957619D02*
X27831904Y-141910000D01*
X27927142Y-141862380D01*
X28165238Y-141862380D01*
X28260476Y-141910000D01*
X28308095Y-141957619D01*
X28355714Y-142052857D01*
X28355714Y-142148095D01*
X28308095Y-142290952D01*
X27736666Y-142862380D01*
X28355714Y-142862380D01*
X52831904Y-142862380D02*
X52831904Y-141862380D01*
X52831904Y-142338571D02*
X53403333Y-142338571D01*
X53403333Y-142862380D02*
X53403333Y-141862380D01*
X54403333Y-142862380D02*
X53831904Y-142862380D01*
X54117619Y-142862380D02*
X54117619Y-141862380D01*
X54022380Y-142005238D01*
X53927142Y-142100476D01*
X53831904Y-142148095D01*
X55355714Y-142862380D02*
X54784285Y-142862380D01*
X55070000Y-142862380D02*
X55070000Y-141862380D01*
X54974761Y-142005238D01*
X54879523Y-142100476D01*
X54784285Y-142148095D01*
X80308095Y-142862380D02*
X80308095Y-141862380D01*
X80308095Y-142338571D02*
X80879523Y-142338571D01*
X80879523Y-142862380D02*
X80879523Y-141862380D01*
X81403333Y-142862380D02*
X81593809Y-142862380D01*
X81689047Y-142814761D01*
X81736666Y-142767142D01*
X81831904Y-142624285D01*
X81879523Y-142433809D01*
X81879523Y-142052857D01*
X81831904Y-141957619D01*
X81784285Y-141910000D01*
X81689047Y-141862380D01*
X81498571Y-141862380D01*
X81403333Y-141910000D01*
X81355714Y-141957619D01*
X81308095Y-142052857D01*
X81308095Y-142290952D01*
X81355714Y-142386190D01*
X81403333Y-142433809D01*
X81498571Y-142481428D01*
X81689047Y-142481428D01*
X81784285Y-142433809D01*
X81831904Y-142386190D01*
X81879523Y-142290952D01*
X67831904Y-142862380D02*
X67831904Y-141862380D01*
X67831904Y-142338571D02*
X68403333Y-142338571D01*
X68403333Y-142862380D02*
X68403333Y-141862380D01*
X69403333Y-142862380D02*
X68831904Y-142862380D01*
X69117619Y-142862380D02*
X69117619Y-141862380D01*
X69022380Y-142005238D01*
X68927142Y-142100476D01*
X68831904Y-142148095D01*
X70022380Y-141862380D02*
X70117619Y-141862380D01*
X70212857Y-141910000D01*
X70260476Y-141957619D01*
X70308095Y-142052857D01*
X70355714Y-142243333D01*
X70355714Y-142481428D01*
X70308095Y-142671904D01*
X70260476Y-142767142D01*
X70212857Y-142814761D01*
X70117619Y-142862380D01*
X70022380Y-142862380D01*
X69927142Y-142814761D01*
X69879523Y-142767142D01*
X69831904Y-142671904D01*
X69784285Y-142481428D01*
X69784285Y-142243333D01*
X69831904Y-142052857D01*
X69879523Y-141957619D01*
X69927142Y-141910000D01*
X70022380Y-141862380D01*
X95308095Y-142862380D02*
X95308095Y-141862380D01*
X95308095Y-142338571D02*
X95879523Y-142338571D01*
X95879523Y-142862380D02*
X95879523Y-141862380D01*
X96498571Y-142290952D02*
X96403333Y-142243333D01*
X96355714Y-142195714D01*
X96308095Y-142100476D01*
X96308095Y-142052857D01*
X96355714Y-141957619D01*
X96403333Y-141910000D01*
X96498571Y-141862380D01*
X96689047Y-141862380D01*
X96784285Y-141910000D01*
X96831904Y-141957619D01*
X96879523Y-142052857D01*
X96879523Y-142100476D01*
X96831904Y-142195714D01*
X96784285Y-142243333D01*
X96689047Y-142290952D01*
X96498571Y-142290952D01*
X96403333Y-142338571D01*
X96355714Y-142386190D01*
X96308095Y-142481428D01*
X96308095Y-142671904D01*
X96355714Y-142767142D01*
X96403333Y-142814761D01*
X96498571Y-142862380D01*
X96689047Y-142862380D01*
X96784285Y-142814761D01*
X96831904Y-142767142D01*
X96879523Y-142671904D01*
X96879523Y-142481428D01*
X96831904Y-142386190D01*
X96784285Y-142338571D01*
X96689047Y-142290952D01*
X122308095Y-142862380D02*
X122308095Y-141862380D01*
X122308095Y-142338571D02*
X122879523Y-142338571D01*
X122879523Y-142862380D02*
X122879523Y-141862380D01*
X123260476Y-141862380D02*
X123927142Y-141862380D01*
X123498571Y-142862380D01*
X53308095Y-216862380D02*
X53308095Y-215862380D01*
X53308095Y-216338571D02*
X53879523Y-216338571D01*
X53879523Y-216862380D02*
X53879523Y-215862380D01*
X54831904Y-215862380D02*
X54355714Y-215862380D01*
X54308095Y-216338571D01*
X54355714Y-216290952D01*
X54450952Y-216243333D01*
X54689047Y-216243333D01*
X54784285Y-216290952D01*
X54831904Y-216338571D01*
X54879523Y-216433809D01*
X54879523Y-216671904D01*
X54831904Y-216767142D01*
X54784285Y-216814761D01*
X54689047Y-216862380D01*
X54450952Y-216862380D01*
X54355714Y-216814761D01*
X54308095Y-216767142D01*
X80308095Y-216862380D02*
X80308095Y-215862380D01*
X80308095Y-216338571D02*
X80879523Y-216338571D01*
X80879523Y-216862380D02*
X80879523Y-215862380D01*
X81260476Y-215862380D02*
X81879523Y-215862380D01*
X81546190Y-216243333D01*
X81689047Y-216243333D01*
X81784285Y-216290952D01*
X81831904Y-216338571D01*
X81879523Y-216433809D01*
X81879523Y-216671904D01*
X81831904Y-216767142D01*
X81784285Y-216814761D01*
X81689047Y-216862380D01*
X81403333Y-216862380D01*
X81308095Y-216814761D01*
X81260476Y-216767142D01*
X95308095Y-216862380D02*
X95308095Y-215862380D01*
X95308095Y-216338571D02*
X95879523Y-216338571D01*
X95879523Y-216862380D02*
X95879523Y-215862380D01*
X96308095Y-215957619D02*
X96355714Y-215910000D01*
X96450952Y-215862380D01*
X96689047Y-215862380D01*
X96784285Y-215910000D01*
X96831904Y-215957619D01*
X96879523Y-216052857D01*
X96879523Y-216148095D01*
X96831904Y-216290952D01*
X96260476Y-216862380D01*
X96879523Y-216862380D01*
X26308095Y-216862380D02*
X26308095Y-215862380D01*
X26308095Y-216338571D02*
X26879523Y-216338571D01*
X26879523Y-216862380D02*
X26879523Y-215862380D01*
X27784285Y-215862380D02*
X27593809Y-215862380D01*
X27498571Y-215910000D01*
X27450952Y-215957619D01*
X27355714Y-216100476D01*
X27308095Y-216290952D01*
X27308095Y-216671904D01*
X27355714Y-216767142D01*
X27403333Y-216814761D01*
X27498571Y-216862380D01*
X27689047Y-216862380D01*
X27784285Y-216814761D01*
X27831904Y-216767142D01*
X27879523Y-216671904D01*
X27879523Y-216433809D01*
X27831904Y-216338571D01*
X27784285Y-216290952D01*
X27689047Y-216243333D01*
X27498571Y-216243333D01*
X27403333Y-216290952D01*
X27355714Y-216338571D01*
X27308095Y-216433809D01*
X68308095Y-216862380D02*
X68308095Y-215862380D01*
X68308095Y-216338571D02*
X68879523Y-216338571D01*
X68879523Y-216862380D02*
X68879523Y-215862380D01*
X69784285Y-216195714D02*
X69784285Y-216862380D01*
X69546190Y-215814761D02*
X69308095Y-216529047D01*
X69927142Y-216529047D01*
X122308095Y-216862380D02*
X122308095Y-215862380D01*
X122308095Y-216338571D02*
X122879523Y-216338571D01*
X122879523Y-216862380D02*
X122879523Y-215862380D01*
X123879523Y-216862380D02*
X123308095Y-216862380D01*
X123593809Y-216862380D02*
X123593809Y-215862380D01*
X123498571Y-216005238D01*
X123403333Y-216100476D01*
X123308095Y-216148095D01*
X107256666Y-126752380D02*
X107256666Y-127466666D01*
X107209047Y-127609523D01*
X107113809Y-127704761D01*
X106970952Y-127752380D01*
X106875714Y-127752380D01*
X108256666Y-127752380D02*
X107685238Y-127752380D01*
X107970952Y-127752380D02*
X107970952Y-126752380D01*
X107875714Y-126895238D01*
X107780476Y-126990476D01*
X107685238Y-127038095D01*
X84472142Y-76707142D02*
X84424523Y-76754761D01*
X84281666Y-76802380D01*
X84186428Y-76802380D01*
X84043571Y-76754761D01*
X83948333Y-76659523D01*
X83900714Y-76564285D01*
X83853095Y-76373809D01*
X83853095Y-76230952D01*
X83900714Y-76040476D01*
X83948333Y-75945238D01*
X84043571Y-75850000D01*
X84186428Y-75802380D01*
X84281666Y-75802380D01*
X84424523Y-75850000D01*
X84472142Y-75897619D01*
X85424523Y-76802380D02*
X84853095Y-76802380D01*
X85138809Y-76802380D02*
X85138809Y-75802380D01*
X85043571Y-75945238D01*
X84948333Y-76040476D01*
X84853095Y-76088095D01*
X85757857Y-75802380D02*
X86424523Y-75802380D01*
X85995952Y-76802380D01*
X108858333Y-87707142D02*
X108810714Y-87754761D01*
X108667857Y-87802380D01*
X108572619Y-87802380D01*
X108429761Y-87754761D01*
X108334523Y-87659523D01*
X108286904Y-87564285D01*
X108239285Y-87373809D01*
X108239285Y-87230952D01*
X108286904Y-87040476D01*
X108334523Y-86945238D01*
X108429761Y-86850000D01*
X108572619Y-86802380D01*
X108667857Y-86802380D01*
X108810714Y-86850000D01*
X108858333Y-86897619D01*
X109715476Y-87135714D02*
X109715476Y-87802380D01*
X109477380Y-86754761D02*
X109239285Y-87469047D01*
X109858333Y-87469047D01*
X106713809Y-113176190D02*
X106713809Y-113652380D01*
X106380476Y-112652380D02*
X106713809Y-113176190D01*
X107047142Y-112652380D01*
X107904285Y-113652380D02*
X107332857Y-113652380D01*
X107618571Y-113652380D02*
X107618571Y-112652380D01*
X107523333Y-112795238D01*
X107428095Y-112890476D01*
X107332857Y-112938095D01*
X95528095Y-94852380D02*
X95528095Y-95661904D01*
X95575714Y-95757142D01*
X95623333Y-95804761D01*
X95718571Y-95852380D01*
X95909047Y-95852380D01*
X96004285Y-95804761D01*
X96051904Y-95757142D01*
X96099523Y-95661904D01*
X96099523Y-94852380D01*
X96480476Y-94852380D02*
X97099523Y-94852380D01*
X96766190Y-95233333D01*
X96909047Y-95233333D01*
X97004285Y-95280952D01*
X97051904Y-95328571D01*
X97099523Y-95423809D01*
X97099523Y-95661904D01*
X97051904Y-95757142D01*
X97004285Y-95804761D01*
X96909047Y-95852380D01*
X96623333Y-95852380D01*
X96528095Y-95804761D01*
X96480476Y-95757142D01*
X97133333Y-107652380D02*
X96800000Y-107176190D01*
X96561904Y-107652380D02*
X96561904Y-106652380D01*
X96942857Y-106652380D01*
X97038095Y-106700000D01*
X97085714Y-106747619D01*
X97133333Y-106842857D01*
X97133333Y-106985714D01*
X97085714Y-107080952D01*
X97038095Y-107128571D01*
X96942857Y-107176190D01*
X96561904Y-107176190D01*
X98038095Y-106652380D02*
X97561904Y-106652380D01*
X97514285Y-107128571D01*
X97561904Y-107080952D01*
X97657142Y-107033333D01*
X97895238Y-107033333D01*
X97990476Y-107080952D01*
X98038095Y-107128571D01*
X98085714Y-107223809D01*
X98085714Y-107461904D01*
X98038095Y-107557142D01*
X97990476Y-107604761D01*
X97895238Y-107652380D01*
X97657142Y-107652380D01*
X97561904Y-107604761D01*
X97514285Y-107557142D01*
X102842380Y-90166666D02*
X102366190Y-90500000D01*
X102842380Y-90738095D02*
X101842380Y-90738095D01*
X101842380Y-90357142D01*
X101890000Y-90261904D01*
X101937619Y-90214285D01*
X102032857Y-90166666D01*
X102175714Y-90166666D01*
X102270952Y-90214285D01*
X102318571Y-90261904D01*
X102366190Y-90357142D01*
X102366190Y-90738095D01*
X102175714Y-89309523D02*
X102842380Y-89309523D01*
X101794761Y-89547619D02*
X102509047Y-89785714D01*
X102509047Y-89166666D01*
X101542380Y-90166666D02*
X101066190Y-90500000D01*
X101542380Y-90738095D02*
X100542380Y-90738095D01*
X100542380Y-90357142D01*
X100590000Y-90261904D01*
X100637619Y-90214285D01*
X100732857Y-90166666D01*
X100875714Y-90166666D01*
X100970952Y-90214285D01*
X101018571Y-90261904D01*
X101066190Y-90357142D01*
X101066190Y-90738095D01*
X100542380Y-89833333D02*
X100542380Y-89214285D01*
X100923333Y-89547619D01*
X100923333Y-89404761D01*
X100970952Y-89309523D01*
X101018571Y-89261904D01*
X101113809Y-89214285D01*
X101351904Y-89214285D01*
X101447142Y-89261904D01*
X101494761Y-89309523D01*
X101542380Y-89404761D01*
X101542380Y-89690476D01*
X101494761Y-89785714D01*
X101447142Y-89833333D01*
X87633333Y-82752380D02*
X87300000Y-82276190D01*
X87061904Y-82752380D02*
X87061904Y-81752380D01*
X87442857Y-81752380D01*
X87538095Y-81800000D01*
X87585714Y-81847619D01*
X87633333Y-81942857D01*
X87633333Y-82085714D01*
X87585714Y-82180952D01*
X87538095Y-82228571D01*
X87442857Y-82276190D01*
X87061904Y-82276190D01*
X88014285Y-81847619D02*
X88061904Y-81800000D01*
X88157142Y-81752380D01*
X88395238Y-81752380D01*
X88490476Y-81800000D01*
X88538095Y-81847619D01*
X88585714Y-81942857D01*
X88585714Y-82038095D01*
X88538095Y-82180952D01*
X87966666Y-82752380D01*
X88585714Y-82752380D01*
X92333333Y-82752380D02*
X92000000Y-82276190D01*
X91761904Y-82752380D02*
X91761904Y-81752380D01*
X92142857Y-81752380D01*
X92238095Y-81800000D01*
X92285714Y-81847619D01*
X92333333Y-81942857D01*
X92333333Y-82085714D01*
X92285714Y-82180952D01*
X92238095Y-82228571D01*
X92142857Y-82276190D01*
X91761904Y-82276190D01*
X93285714Y-82752380D02*
X92714285Y-82752380D01*
X93000000Y-82752380D02*
X93000000Y-81752380D01*
X92904761Y-81895238D01*
X92809523Y-81990476D01*
X92714285Y-82038095D01*
X108857142Y-94957142D02*
X108809523Y-95004761D01*
X108666666Y-95052380D01*
X108571428Y-95052380D01*
X108428571Y-95004761D01*
X108333333Y-94909523D01*
X108285714Y-94814285D01*
X108238095Y-94623809D01*
X108238095Y-94480952D01*
X108285714Y-94290476D01*
X108333333Y-94195238D01*
X108428571Y-94100000D01*
X108571428Y-94052380D01*
X108666666Y-94052380D01*
X108809523Y-94100000D01*
X108857142Y-94147619D01*
X109809523Y-95052380D02*
X109238095Y-95052380D01*
X109523809Y-95052380D02*
X109523809Y-94052380D01*
X109428571Y-94195238D01*
X109333333Y-94290476D01*
X109238095Y-94338095D01*
X110666666Y-94052380D02*
X110476190Y-94052380D01*
X110380952Y-94100000D01*
X110333333Y-94147619D01*
X110238095Y-94290476D01*
X110190476Y-94480952D01*
X110190476Y-94861904D01*
X110238095Y-94957142D01*
X110285714Y-95004761D01*
X110380952Y-95052380D01*
X110571428Y-95052380D01*
X110666666Y-95004761D01*
X110714285Y-94957142D01*
X110761904Y-94861904D01*
X110761904Y-94623809D01*
X110714285Y-94528571D01*
X110666666Y-94480952D01*
X110571428Y-94433333D01*
X110380952Y-94433333D01*
X110285714Y-94480952D01*
X110238095Y-94528571D01*
X110190476Y-94623809D01*
X108857142Y-96457142D02*
X108809523Y-96504761D01*
X108666666Y-96552380D01*
X108571428Y-96552380D01*
X108428571Y-96504761D01*
X108333333Y-96409523D01*
X108285714Y-96314285D01*
X108238095Y-96123809D01*
X108238095Y-95980952D01*
X108285714Y-95790476D01*
X108333333Y-95695238D01*
X108428571Y-95600000D01*
X108571428Y-95552380D01*
X108666666Y-95552380D01*
X108809523Y-95600000D01*
X108857142Y-95647619D01*
X109809523Y-96552380D02*
X109238095Y-96552380D01*
X109523809Y-96552380D02*
X109523809Y-95552380D01*
X109428571Y-95695238D01*
X109333333Y-95790476D01*
X109238095Y-95838095D01*
X110714285Y-95552380D02*
X110238095Y-95552380D01*
X110190476Y-96028571D01*
X110238095Y-95980952D01*
X110333333Y-95933333D01*
X110571428Y-95933333D01*
X110666666Y-95980952D01*
X110714285Y-96028571D01*
X110761904Y-96123809D01*
X110761904Y-96361904D01*
X110714285Y-96457142D01*
X110666666Y-96504761D01*
X110571428Y-96552380D01*
X110333333Y-96552380D01*
X110238095Y-96504761D01*
X110190476Y-96457142D01*
X99238142Y-105257142D02*
X99190523Y-105304761D01*
X99047666Y-105352380D01*
X98952428Y-105352380D01*
X98809571Y-105304761D01*
X98714333Y-105209523D01*
X98666714Y-105114285D01*
X98619095Y-104923809D01*
X98619095Y-104780952D01*
X98666714Y-104590476D01*
X98714333Y-104495238D01*
X98809571Y-104400000D01*
X98952428Y-104352380D01*
X99047666Y-104352380D01*
X99190523Y-104400000D01*
X99238142Y-104447619D01*
X100190523Y-105352380D02*
X99619095Y-105352380D01*
X99904809Y-105352380D02*
X99904809Y-104352380D01*
X99809571Y-104495238D01*
X99714333Y-104590476D01*
X99619095Y-104638095D01*
X101047666Y-104685714D02*
X101047666Y-105352380D01*
X100809571Y-104304761D02*
X100571476Y-105019047D01*
X101190523Y-105019047D01*
X92872142Y-102727142D02*
X92824523Y-102774761D01*
X92681666Y-102822380D01*
X92586428Y-102822380D01*
X92443571Y-102774761D01*
X92348333Y-102679523D01*
X92300714Y-102584285D01*
X92253095Y-102393809D01*
X92253095Y-102250952D01*
X92300714Y-102060476D01*
X92348333Y-101965238D01*
X92443571Y-101870000D01*
X92586428Y-101822380D01*
X92681666Y-101822380D01*
X92824523Y-101870000D01*
X92872142Y-101917619D01*
X93824523Y-102822380D02*
X93253095Y-102822380D01*
X93538809Y-102822380D02*
X93538809Y-101822380D01*
X93443571Y-101965238D01*
X93348333Y-102060476D01*
X93253095Y-102108095D01*
X94157857Y-101822380D02*
X94776904Y-101822380D01*
X94443571Y-102203333D01*
X94586428Y-102203333D01*
X94681666Y-102250952D01*
X94729285Y-102298571D01*
X94776904Y-102393809D01*
X94776904Y-102631904D01*
X94729285Y-102727142D01*
X94681666Y-102774761D01*
X94586428Y-102822380D01*
X94300714Y-102822380D01*
X94205476Y-102774761D01*
X94157857Y-102727142D01*
X105842142Y-100387142D02*
X105794523Y-100434761D01*
X105651666Y-100482380D01*
X105556428Y-100482380D01*
X105413571Y-100434761D01*
X105318333Y-100339523D01*
X105270714Y-100244285D01*
X105223095Y-100053809D01*
X105223095Y-99910952D01*
X105270714Y-99720476D01*
X105318333Y-99625238D01*
X105413571Y-99530000D01*
X105556428Y-99482380D01*
X105651666Y-99482380D01*
X105794523Y-99530000D01*
X105842142Y-99577619D01*
X106794523Y-100482380D02*
X106223095Y-100482380D01*
X106508809Y-100482380D02*
X106508809Y-99482380D01*
X106413571Y-99625238D01*
X106318333Y-99720476D01*
X106223095Y-99768095D01*
X107175476Y-99577619D02*
X107223095Y-99530000D01*
X107318333Y-99482380D01*
X107556428Y-99482380D01*
X107651666Y-99530000D01*
X107699285Y-99577619D01*
X107746904Y-99672857D01*
X107746904Y-99768095D01*
X107699285Y-99910952D01*
X107127857Y-100482380D01*
X107746904Y-100482380D01*
X92872142Y-98527142D02*
X92824523Y-98574761D01*
X92681666Y-98622380D01*
X92586428Y-98622380D01*
X92443571Y-98574761D01*
X92348333Y-98479523D01*
X92300714Y-98384285D01*
X92253095Y-98193809D01*
X92253095Y-98050952D01*
X92300714Y-97860476D01*
X92348333Y-97765238D01*
X92443571Y-97670000D01*
X92586428Y-97622380D01*
X92681666Y-97622380D01*
X92824523Y-97670000D01*
X92872142Y-97717619D01*
X93824523Y-98622380D02*
X93253095Y-98622380D01*
X93538809Y-98622380D02*
X93538809Y-97622380D01*
X93443571Y-97765238D01*
X93348333Y-97860476D01*
X93253095Y-97908095D01*
X94776904Y-98622380D02*
X94205476Y-98622380D01*
X94491190Y-98622380D02*
X94491190Y-97622380D01*
X94395952Y-97765238D01*
X94300714Y-97860476D01*
X94205476Y-97908095D01*
X105347142Y-90142857D02*
X105394761Y-90190476D01*
X105442380Y-90333333D01*
X105442380Y-90428571D01*
X105394761Y-90571428D01*
X105299523Y-90666666D01*
X105204285Y-90714285D01*
X105013809Y-90761904D01*
X104870952Y-90761904D01*
X104680476Y-90714285D01*
X104585238Y-90666666D01*
X104490000Y-90571428D01*
X104442380Y-90428571D01*
X104442380Y-90333333D01*
X104490000Y-90190476D01*
X104537619Y-90142857D01*
X105442380Y-89190476D02*
X105442380Y-89761904D01*
X105442380Y-89476190D02*
X104442380Y-89476190D01*
X104585238Y-89571428D01*
X104680476Y-89666666D01*
X104728095Y-89761904D01*
X104442380Y-88571428D02*
X104442380Y-88476190D01*
X104490000Y-88380952D01*
X104537619Y-88333333D01*
X104632857Y-88285714D01*
X104823333Y-88238095D01*
X105061428Y-88238095D01*
X105251904Y-88285714D01*
X105347142Y-88333333D01*
X105394761Y-88380952D01*
X105442380Y-88476190D01*
X105442380Y-88571428D01*
X105394761Y-88666666D01*
X105347142Y-88714285D01*
X105251904Y-88761904D01*
X105061428Y-88809523D01*
X104823333Y-88809523D01*
X104632857Y-88761904D01*
X104537619Y-88714285D01*
X104490000Y-88666666D01*
X104442380Y-88571428D01*
X100157142Y-90166666D02*
X100204761Y-90214285D01*
X100252380Y-90357142D01*
X100252380Y-90452380D01*
X100204761Y-90595238D01*
X100109523Y-90690476D01*
X100014285Y-90738095D01*
X99823809Y-90785714D01*
X99680952Y-90785714D01*
X99490476Y-90738095D01*
X99395238Y-90690476D01*
X99300000Y-90595238D01*
X99252380Y-90452380D01*
X99252380Y-90357142D01*
X99300000Y-90214285D01*
X99347619Y-90166666D01*
X100252380Y-89690476D02*
X100252380Y-89500000D01*
X100204761Y-89404761D01*
X100157142Y-89357142D01*
X100014285Y-89261904D01*
X99823809Y-89214285D01*
X99442857Y-89214285D01*
X99347619Y-89261904D01*
X99300000Y-89309523D01*
X99252380Y-89404761D01*
X99252380Y-89595238D01*
X99300000Y-89690476D01*
X99347619Y-89738095D01*
X99442857Y-89785714D01*
X99680952Y-89785714D01*
X99776190Y-89738095D01*
X99823809Y-89690476D01*
X99871428Y-89595238D01*
X99871428Y-89404761D01*
X99823809Y-89309523D01*
X99776190Y-89261904D01*
X99680952Y-89214285D01*
X104047142Y-90166666D02*
X104094761Y-90214285D01*
X104142380Y-90357142D01*
X104142380Y-90452380D01*
X104094761Y-90595238D01*
X103999523Y-90690476D01*
X103904285Y-90738095D01*
X103713809Y-90785714D01*
X103570952Y-90785714D01*
X103380476Y-90738095D01*
X103285238Y-90690476D01*
X103190000Y-90595238D01*
X103142380Y-90452380D01*
X103142380Y-90357142D01*
X103190000Y-90214285D01*
X103237619Y-90166666D01*
X103570952Y-89595238D02*
X103523333Y-89690476D01*
X103475714Y-89738095D01*
X103380476Y-89785714D01*
X103332857Y-89785714D01*
X103237619Y-89738095D01*
X103190000Y-89690476D01*
X103142380Y-89595238D01*
X103142380Y-89404761D01*
X103190000Y-89309523D01*
X103237619Y-89261904D01*
X103332857Y-89214285D01*
X103380476Y-89214285D01*
X103475714Y-89261904D01*
X103523333Y-89309523D01*
X103570952Y-89404761D01*
X103570952Y-89595238D01*
X103618571Y-89690476D01*
X103666190Y-89738095D01*
X103761428Y-89785714D01*
X103951904Y-89785714D01*
X104047142Y-89738095D01*
X104094761Y-89690476D01*
X104142380Y-89595238D01*
X104142380Y-89404761D01*
X104094761Y-89309523D01*
X104047142Y-89261904D01*
X103951904Y-89214285D01*
X103761428Y-89214285D01*
X103666190Y-89261904D01*
X103618571Y-89309523D01*
X103570952Y-89404761D01*
X102733333Y-106957142D02*
X102685714Y-107004761D01*
X102542857Y-107052380D01*
X102447619Y-107052380D01*
X102304761Y-107004761D01*
X102209523Y-106909523D01*
X102161904Y-106814285D01*
X102114285Y-106623809D01*
X102114285Y-106480952D01*
X102161904Y-106290476D01*
X102209523Y-106195238D01*
X102304761Y-106100000D01*
X102447619Y-106052380D01*
X102542857Y-106052380D01*
X102685714Y-106100000D01*
X102733333Y-106147619D01*
X103066666Y-106052380D02*
X103733333Y-106052380D01*
X103304761Y-107052380D01*
X98847142Y-90166666D02*
X98894761Y-90214285D01*
X98942380Y-90357142D01*
X98942380Y-90452380D01*
X98894761Y-90595238D01*
X98799523Y-90690476D01*
X98704285Y-90738095D01*
X98513809Y-90785714D01*
X98370952Y-90785714D01*
X98180476Y-90738095D01*
X98085238Y-90690476D01*
X97990000Y-90595238D01*
X97942380Y-90452380D01*
X97942380Y-90357142D01*
X97990000Y-90214285D01*
X98037619Y-90166666D01*
X97942380Y-89309523D02*
X97942380Y-89500000D01*
X97990000Y-89595238D01*
X98037619Y-89642857D01*
X98180476Y-89738095D01*
X98370952Y-89785714D01*
X98751904Y-89785714D01*
X98847142Y-89738095D01*
X98894761Y-89690476D01*
X98942380Y-89595238D01*
X98942380Y-89404761D01*
X98894761Y-89309523D01*
X98847142Y-89261904D01*
X98751904Y-89214285D01*
X98513809Y-89214285D01*
X98418571Y-89261904D01*
X98370952Y-89309523D01*
X98323333Y-89404761D01*
X98323333Y-89595238D01*
X98370952Y-89690476D01*
X98418571Y-89738095D01*
X98513809Y-89785714D01*
X95833333Y-81857142D02*
X95785714Y-81904761D01*
X95642857Y-81952380D01*
X95547619Y-81952380D01*
X95404761Y-81904761D01*
X95309523Y-81809523D01*
X95261904Y-81714285D01*
X95214285Y-81523809D01*
X95214285Y-81380952D01*
X95261904Y-81190476D01*
X95309523Y-81095238D01*
X95404761Y-81000000D01*
X95547619Y-80952380D01*
X95642857Y-80952380D01*
X95785714Y-81000000D01*
X95833333Y-81047619D01*
X96738095Y-80952380D02*
X96261904Y-80952380D01*
X96214285Y-81428571D01*
X96261904Y-81380952D01*
X96357142Y-81333333D01*
X96595238Y-81333333D01*
X96690476Y-81380952D01*
X96738095Y-81428571D01*
X96785714Y-81523809D01*
X96785714Y-81761904D01*
X96738095Y-81857142D01*
X96690476Y-81904761D01*
X96595238Y-81952380D01*
X96357142Y-81952380D01*
X96261904Y-81904761D01*
X96214285Y-81857142D01*
X101103333Y-110171142D02*
X101055714Y-110218761D01*
X100912857Y-110266380D01*
X100817619Y-110266380D01*
X100674761Y-110218761D01*
X100579523Y-110123523D01*
X100531904Y-110028285D01*
X100484285Y-109837809D01*
X100484285Y-109694952D01*
X100531904Y-109504476D01*
X100579523Y-109409238D01*
X100674761Y-109314000D01*
X100817619Y-109266380D01*
X100912857Y-109266380D01*
X101055714Y-109314000D01*
X101103333Y-109361619D01*
X101436666Y-109266380D02*
X102055714Y-109266380D01*
X101722380Y-109647333D01*
X101865238Y-109647333D01*
X101960476Y-109694952D01*
X102008095Y-109742571D01*
X102055714Y-109837809D01*
X102055714Y-110075904D01*
X102008095Y-110171142D01*
X101960476Y-110218761D01*
X101865238Y-110266380D01*
X101579523Y-110266380D01*
X101484285Y-110218761D01*
X101436666Y-110171142D01*
X94033333Y-109257142D02*
X93985714Y-109304761D01*
X93842857Y-109352380D01*
X93747619Y-109352380D01*
X93604761Y-109304761D01*
X93509523Y-109209523D01*
X93461904Y-109114285D01*
X93414285Y-108923809D01*
X93414285Y-108780952D01*
X93461904Y-108590476D01*
X93509523Y-108495238D01*
X93604761Y-108400000D01*
X93747619Y-108352380D01*
X93842857Y-108352380D01*
X93985714Y-108400000D01*
X94033333Y-108447619D01*
X94414285Y-108447619D02*
X94461904Y-108400000D01*
X94557142Y-108352380D01*
X94795238Y-108352380D01*
X94890476Y-108400000D01*
X94938095Y-108447619D01*
X94985714Y-108542857D01*
X94985714Y-108638095D01*
X94938095Y-108780952D01*
X94366666Y-109352380D01*
X94985714Y-109352380D01*
X107770833Y-75207142D02*
X107723214Y-75254761D01*
X107580357Y-75302380D01*
X107485119Y-75302380D01*
X107342261Y-75254761D01*
X107247023Y-75159523D01*
X107199404Y-75064285D01*
X107151785Y-74873809D01*
X107151785Y-74730952D01*
X107199404Y-74540476D01*
X107247023Y-74445238D01*
X107342261Y-74350000D01*
X107485119Y-74302380D01*
X107580357Y-74302380D01*
X107723214Y-74350000D01*
X107770833Y-74397619D01*
X108723214Y-75302380D02*
X108151785Y-75302380D01*
X108437500Y-75302380D02*
X108437500Y-74302380D01*
X108342261Y-74445238D01*
X108247023Y-74540476D01*
X108151785Y-74588095D01*
X92288095Y-90452380D02*
X92288095Y-91261904D01*
X92335714Y-91357142D01*
X92383333Y-91404761D01*
X92478571Y-91452380D01*
X92669047Y-91452380D01*
X92764285Y-91404761D01*
X92811904Y-91357142D01*
X92859523Y-91261904D01*
X92859523Y-90452380D01*
X93288095Y-90547619D02*
X93335714Y-90500000D01*
X93430952Y-90452380D01*
X93669047Y-90452380D01*
X93764285Y-90500000D01*
X93811904Y-90547619D01*
X93859523Y-90642857D01*
X93859523Y-90738095D01*
X93811904Y-90880952D01*
X93240476Y-91452380D01*
X93859523Y-91452380D01*
X111738095Y-82302380D02*
X111738095Y-83111904D01*
X111785714Y-83207142D01*
X111833333Y-83254761D01*
X111928571Y-83302380D01*
X112119047Y-83302380D01*
X112214285Y-83254761D01*
X112261904Y-83207142D01*
X112309523Y-83111904D01*
X112309523Y-82302380D01*
X113309523Y-83302380D02*
X112738095Y-83302380D01*
X113023809Y-83302380D02*
X113023809Y-82302380D01*
X112928571Y-82445238D01*
X112833333Y-82540476D01*
X112738095Y-82588095D01*
X122526666Y-71122380D02*
X122526666Y-71836666D01*
X122479047Y-71979523D01*
X122383809Y-72074761D01*
X122240952Y-72122380D01*
X122145714Y-72122380D01*
X123431428Y-71455714D02*
X123431428Y-72122380D01*
X123193333Y-71074761D02*
X122955238Y-71789047D01*
X123574285Y-71789047D01*
X76806666Y-71122380D02*
X76806666Y-71836666D01*
X76759047Y-71979523D01*
X76663809Y-72074761D01*
X76520952Y-72122380D01*
X76425714Y-72122380D01*
X77187619Y-71122380D02*
X77806666Y-71122380D01*
X77473333Y-71503333D01*
X77616190Y-71503333D01*
X77711428Y-71550952D01*
X77759047Y-71598571D01*
X77806666Y-71693809D01*
X77806666Y-71931904D01*
X77759047Y-72027142D01*
X77711428Y-72074761D01*
X77616190Y-72122380D01*
X77330476Y-72122380D01*
X77235238Y-72074761D01*
X77187619Y-72027142D01*
X93366666Y-76152380D02*
X93366666Y-76866666D01*
X93319047Y-77009523D01*
X93223809Y-77104761D01*
X93080952Y-77152380D01*
X92985714Y-77152380D01*
X93795238Y-76247619D02*
X93842857Y-76200000D01*
X93938095Y-76152380D01*
X94176190Y-76152380D01*
X94271428Y-76200000D01*
X94319047Y-76247619D01*
X94366666Y-76342857D01*
X94366666Y-76438095D01*
X94319047Y-76580952D01*
X93747619Y-77152380D01*
X94366666Y-77152380D01*
M02*
