G04 #@! TF.GenerationSoftware,KiCad,Pcbnew,(5.1.9)-1*
G04 #@! TF.CreationDate,2022-01-10T11:00:18-07:00*
G04 #@! TF.ProjectId,RP2040_minimal,52503230-3430-45f6-9d69-6e696d616c2e,REV1*
G04 #@! TF.SameCoordinates,Original*
G04 #@! TF.FileFunction,Paste,Top*
G04 #@! TF.FilePolarity,Positive*
%FSLAX46Y46*%
G04 Gerber Fmt 4.6, Leading zero omitted, Abs format (unit mm)*
G04 Created by KiCad (PCBNEW (5.1.9)-1) date 2022-01-10 11:00:18*
%MOMM*%
%LPD*%
G01*
G04 APERTURE LIST*
%ADD10R,5.600000X2.100000*%
%ADD11R,1.500000X2.000000*%
%ADD12R,3.800000X2.000000*%
G04 APERTURE END LIST*
G36*
G01*
X109390000Y-122050000D02*
X109390000Y-123300000D01*
G75*
G02*
X109240000Y-123450000I-150000J0D01*
G01*
X108940000Y-123450000D01*
G75*
G02*
X108790000Y-123300000I0J150000D01*
G01*
X108790000Y-122050000D01*
G75*
G02*
X108940000Y-121900000I150000J0D01*
G01*
X109240000Y-121900000D01*
G75*
G02*
X109390000Y-122050000I0J-150000D01*
G01*
G37*
G36*
G01*
X108390000Y-122050000D02*
X108390000Y-123300000D01*
G75*
G02*
X108240000Y-123450000I-150000J0D01*
G01*
X107940000Y-123450000D01*
G75*
G02*
X107790000Y-123300000I0J150000D01*
G01*
X107790000Y-122050000D01*
G75*
G02*
X107940000Y-121900000I150000J0D01*
G01*
X108240000Y-121900000D01*
G75*
G02*
X108390000Y-122050000I0J-150000D01*
G01*
G37*
G36*
G01*
X107390000Y-122050000D02*
X107390000Y-123300000D01*
G75*
G02*
X107240000Y-123450000I-150000J0D01*
G01*
X106940000Y-123450000D01*
G75*
G02*
X106790000Y-123300000I0J150000D01*
G01*
X106790000Y-122050000D01*
G75*
G02*
X106940000Y-121900000I150000J0D01*
G01*
X107240000Y-121900000D01*
G75*
G02*
X107390000Y-122050000I0J-150000D01*
G01*
G37*
G36*
G01*
X106390000Y-122050000D02*
X106390000Y-123300000D01*
G75*
G02*
X106240000Y-123450000I-150000J0D01*
G01*
X105940000Y-123450000D01*
G75*
G02*
X105790000Y-123300000I0J150000D01*
G01*
X105790000Y-122050000D01*
G75*
G02*
X105940000Y-121900000I150000J0D01*
G01*
X106240000Y-121900000D01*
G75*
G02*
X106390000Y-122050000I0J-150000D01*
G01*
G37*
G36*
G01*
X110990000Y-124549999D02*
X110990000Y-125850001D01*
G75*
G02*
X110740001Y-126100000I-249999J0D01*
G01*
X110039999Y-126100000D01*
G75*
G02*
X109790000Y-125850001I0J249999D01*
G01*
X109790000Y-124549999D01*
G75*
G02*
X110039999Y-124300000I249999J0D01*
G01*
X110740001Y-124300000D01*
G75*
G02*
X110990000Y-124549999I0J-249999D01*
G01*
G37*
G36*
G01*
X105390000Y-124549999D02*
X105390000Y-125850001D01*
G75*
G02*
X105140001Y-126100000I-249999J0D01*
G01*
X104439999Y-126100000D01*
G75*
G02*
X104190000Y-125850001I0J249999D01*
G01*
X104190000Y-124549999D01*
G75*
G02*
X104439999Y-124300000I249999J0D01*
G01*
X105140001Y-124300000D01*
G75*
G02*
X105390000Y-124549999I0J-249999D01*
G01*
G37*
G36*
G01*
X85565000Y-78456250D02*
X85565000Y-77543750D01*
G75*
G02*
X85808750Y-77300000I243750J0D01*
G01*
X86296250Y-77300000D01*
G75*
G02*
X86540000Y-77543750I0J-243750D01*
G01*
X86540000Y-78456250D01*
G75*
G02*
X86296250Y-78700000I-243750J0D01*
G01*
X85808750Y-78700000D01*
G75*
G02*
X85565000Y-78456250I0J243750D01*
G01*
G37*
G36*
G01*
X83690000Y-78456250D02*
X83690000Y-77543750D01*
G75*
G02*
X83933750Y-77300000I243750J0D01*
G01*
X84421250Y-77300000D01*
G75*
G02*
X84665000Y-77543750I0J-243750D01*
G01*
X84665000Y-78456250D01*
G75*
G02*
X84421250Y-78700000I-243750J0D01*
G01*
X83933750Y-78700000D01*
G75*
G02*
X83690000Y-78456250I0J243750D01*
G01*
G37*
G36*
G01*
X109475000Y-89456250D02*
X109475000Y-88543750D01*
G75*
G02*
X109718750Y-88300000I243750J0D01*
G01*
X110206250Y-88300000D01*
G75*
G02*
X110450000Y-88543750I0J-243750D01*
G01*
X110450000Y-89456250D01*
G75*
G02*
X110206250Y-89700000I-243750J0D01*
G01*
X109718750Y-89700000D01*
G75*
G02*
X109475000Y-89456250I0J243750D01*
G01*
G37*
G36*
G01*
X107600000Y-89456250D02*
X107600000Y-88543750D01*
G75*
G02*
X107843750Y-88300000I243750J0D01*
G01*
X108331250Y-88300000D01*
G75*
G02*
X108575000Y-88543750I0J-243750D01*
G01*
X108575000Y-89456250D01*
G75*
G02*
X108331250Y-89700000I-243750J0D01*
G01*
X107843750Y-89700000D01*
G75*
G02*
X107600000Y-89456250I0J243750D01*
G01*
G37*
D10*
X93341000Y-113116000D03*
X102341000Y-113116000D03*
G36*
G01*
X97300000Y-96950000D02*
X97300000Y-96175000D01*
G75*
G02*
X97350000Y-96125000I50000J0D01*
G01*
X97450000Y-96125000D01*
G75*
G02*
X97500000Y-96175000I0J-50000D01*
G01*
X97500000Y-96950000D01*
G75*
G02*
X97450000Y-97000000I-50000J0D01*
G01*
X97350000Y-97000000D01*
G75*
G02*
X97300000Y-96950000I0J50000D01*
G01*
G37*
G36*
G01*
X97700000Y-96950000D02*
X97700000Y-96175000D01*
G75*
G02*
X97750000Y-96125000I50000J0D01*
G01*
X97850000Y-96125000D01*
G75*
G02*
X97900000Y-96175000I0J-50000D01*
G01*
X97900000Y-96950000D01*
G75*
G02*
X97850000Y-97000000I-50000J0D01*
G01*
X97750000Y-97000000D01*
G75*
G02*
X97700000Y-96950000I0J50000D01*
G01*
G37*
G36*
G01*
X98100000Y-96950000D02*
X98100000Y-96175000D01*
G75*
G02*
X98150000Y-96125000I50000J0D01*
G01*
X98250000Y-96125000D01*
G75*
G02*
X98300000Y-96175000I0J-50000D01*
G01*
X98300000Y-96950000D01*
G75*
G02*
X98250000Y-97000000I-50000J0D01*
G01*
X98150000Y-97000000D01*
G75*
G02*
X98100000Y-96950000I0J50000D01*
G01*
G37*
G36*
G01*
X98500000Y-96950000D02*
X98500000Y-96175000D01*
G75*
G02*
X98550000Y-96125000I50000J0D01*
G01*
X98650000Y-96125000D01*
G75*
G02*
X98700000Y-96175000I0J-50000D01*
G01*
X98700000Y-96950000D01*
G75*
G02*
X98650000Y-97000000I-50000J0D01*
G01*
X98550000Y-97000000D01*
G75*
G02*
X98500000Y-96950000I0J50000D01*
G01*
G37*
G36*
G01*
X98900000Y-96950000D02*
X98900000Y-96175000D01*
G75*
G02*
X98950000Y-96125000I50000J0D01*
G01*
X99050000Y-96125000D01*
G75*
G02*
X99100000Y-96175000I0J-50000D01*
G01*
X99100000Y-96950000D01*
G75*
G02*
X99050000Y-97000000I-50000J0D01*
G01*
X98950000Y-97000000D01*
G75*
G02*
X98900000Y-96950000I0J50000D01*
G01*
G37*
G36*
G01*
X99300000Y-96950000D02*
X99300000Y-96175000D01*
G75*
G02*
X99350000Y-96125000I50000J0D01*
G01*
X99450000Y-96125000D01*
G75*
G02*
X99500000Y-96175000I0J-50000D01*
G01*
X99500000Y-96950000D01*
G75*
G02*
X99450000Y-97000000I-50000J0D01*
G01*
X99350000Y-97000000D01*
G75*
G02*
X99300000Y-96950000I0J50000D01*
G01*
G37*
G36*
G01*
X99700000Y-96950000D02*
X99700000Y-96175000D01*
G75*
G02*
X99750000Y-96125000I50000J0D01*
G01*
X99850000Y-96125000D01*
G75*
G02*
X99900000Y-96175000I0J-50000D01*
G01*
X99900000Y-96950000D01*
G75*
G02*
X99850000Y-97000000I-50000J0D01*
G01*
X99750000Y-97000000D01*
G75*
G02*
X99700000Y-96950000I0J50000D01*
G01*
G37*
G36*
G01*
X100100000Y-96950000D02*
X100100000Y-96175000D01*
G75*
G02*
X100150000Y-96125000I50000J0D01*
G01*
X100250000Y-96125000D01*
G75*
G02*
X100300000Y-96175000I0J-50000D01*
G01*
X100300000Y-96950000D01*
G75*
G02*
X100250000Y-97000000I-50000J0D01*
G01*
X100150000Y-97000000D01*
G75*
G02*
X100100000Y-96950000I0J50000D01*
G01*
G37*
G36*
G01*
X100500000Y-96950000D02*
X100500000Y-96175000D01*
G75*
G02*
X100550000Y-96125000I50000J0D01*
G01*
X100650000Y-96125000D01*
G75*
G02*
X100700000Y-96175000I0J-50000D01*
G01*
X100700000Y-96950000D01*
G75*
G02*
X100650000Y-97000000I-50000J0D01*
G01*
X100550000Y-97000000D01*
G75*
G02*
X100500000Y-96950000I0J50000D01*
G01*
G37*
G36*
G01*
X100900000Y-96950000D02*
X100900000Y-96175000D01*
G75*
G02*
X100950000Y-96125000I50000J0D01*
G01*
X101050000Y-96125000D01*
G75*
G02*
X101100000Y-96175000I0J-50000D01*
G01*
X101100000Y-96950000D01*
G75*
G02*
X101050000Y-97000000I-50000J0D01*
G01*
X100950000Y-97000000D01*
G75*
G02*
X100900000Y-96950000I0J50000D01*
G01*
G37*
G36*
G01*
X101300000Y-96950000D02*
X101300000Y-96175000D01*
G75*
G02*
X101350000Y-96125000I50000J0D01*
G01*
X101450000Y-96125000D01*
G75*
G02*
X101500000Y-96175000I0J-50000D01*
G01*
X101500000Y-96950000D01*
G75*
G02*
X101450000Y-97000000I-50000J0D01*
G01*
X101350000Y-97000000D01*
G75*
G02*
X101300000Y-96950000I0J50000D01*
G01*
G37*
G36*
G01*
X101700000Y-96950000D02*
X101700000Y-96175000D01*
G75*
G02*
X101750000Y-96125000I50000J0D01*
G01*
X101850000Y-96125000D01*
G75*
G02*
X101900000Y-96175000I0J-50000D01*
G01*
X101900000Y-96950000D01*
G75*
G02*
X101850000Y-97000000I-50000J0D01*
G01*
X101750000Y-97000000D01*
G75*
G02*
X101700000Y-96950000I0J50000D01*
G01*
G37*
G36*
G01*
X102100000Y-96950000D02*
X102100000Y-96175000D01*
G75*
G02*
X102150000Y-96125000I50000J0D01*
G01*
X102250000Y-96125000D01*
G75*
G02*
X102300000Y-96175000I0J-50000D01*
G01*
X102300000Y-96950000D01*
G75*
G02*
X102250000Y-97000000I-50000J0D01*
G01*
X102150000Y-97000000D01*
G75*
G02*
X102100000Y-96950000I0J50000D01*
G01*
G37*
G36*
G01*
X102500000Y-96950000D02*
X102500000Y-96175000D01*
G75*
G02*
X102550000Y-96125000I50000J0D01*
G01*
X102650000Y-96125000D01*
G75*
G02*
X102700000Y-96175000I0J-50000D01*
G01*
X102700000Y-96950000D01*
G75*
G02*
X102650000Y-97000000I-50000J0D01*
G01*
X102550000Y-97000000D01*
G75*
G02*
X102500000Y-96950000I0J50000D01*
G01*
G37*
G36*
G01*
X103000000Y-97450000D02*
X103000000Y-97350000D01*
G75*
G02*
X103050000Y-97300000I50000J0D01*
G01*
X103825000Y-97300000D01*
G75*
G02*
X103875000Y-97350000I0J-50000D01*
G01*
X103875000Y-97450000D01*
G75*
G02*
X103825000Y-97500000I-50000J0D01*
G01*
X103050000Y-97500000D01*
G75*
G02*
X103000000Y-97450000I0J50000D01*
G01*
G37*
G36*
G01*
X103000000Y-97850000D02*
X103000000Y-97750000D01*
G75*
G02*
X103050000Y-97700000I50000J0D01*
G01*
X103825000Y-97700000D01*
G75*
G02*
X103875000Y-97750000I0J-50000D01*
G01*
X103875000Y-97850000D01*
G75*
G02*
X103825000Y-97900000I-50000J0D01*
G01*
X103050000Y-97900000D01*
G75*
G02*
X103000000Y-97850000I0J50000D01*
G01*
G37*
G36*
G01*
X103000000Y-98250000D02*
X103000000Y-98150000D01*
G75*
G02*
X103050000Y-98100000I50000J0D01*
G01*
X103825000Y-98100000D01*
G75*
G02*
X103875000Y-98150000I0J-50000D01*
G01*
X103875000Y-98250000D01*
G75*
G02*
X103825000Y-98300000I-50000J0D01*
G01*
X103050000Y-98300000D01*
G75*
G02*
X103000000Y-98250000I0J50000D01*
G01*
G37*
G36*
G01*
X103000000Y-98650000D02*
X103000000Y-98550000D01*
G75*
G02*
X103050000Y-98500000I50000J0D01*
G01*
X103825000Y-98500000D01*
G75*
G02*
X103875000Y-98550000I0J-50000D01*
G01*
X103875000Y-98650000D01*
G75*
G02*
X103825000Y-98700000I-50000J0D01*
G01*
X103050000Y-98700000D01*
G75*
G02*
X103000000Y-98650000I0J50000D01*
G01*
G37*
G36*
G01*
X103000000Y-99050000D02*
X103000000Y-98950000D01*
G75*
G02*
X103050000Y-98900000I50000J0D01*
G01*
X103825000Y-98900000D01*
G75*
G02*
X103875000Y-98950000I0J-50000D01*
G01*
X103875000Y-99050000D01*
G75*
G02*
X103825000Y-99100000I-50000J0D01*
G01*
X103050000Y-99100000D01*
G75*
G02*
X103000000Y-99050000I0J50000D01*
G01*
G37*
G36*
G01*
X103000000Y-99450000D02*
X103000000Y-99350000D01*
G75*
G02*
X103050000Y-99300000I50000J0D01*
G01*
X103825000Y-99300000D01*
G75*
G02*
X103875000Y-99350000I0J-50000D01*
G01*
X103875000Y-99450000D01*
G75*
G02*
X103825000Y-99500000I-50000J0D01*
G01*
X103050000Y-99500000D01*
G75*
G02*
X103000000Y-99450000I0J50000D01*
G01*
G37*
G36*
G01*
X103000000Y-99850000D02*
X103000000Y-99750000D01*
G75*
G02*
X103050000Y-99700000I50000J0D01*
G01*
X103825000Y-99700000D01*
G75*
G02*
X103875000Y-99750000I0J-50000D01*
G01*
X103875000Y-99850000D01*
G75*
G02*
X103825000Y-99900000I-50000J0D01*
G01*
X103050000Y-99900000D01*
G75*
G02*
X103000000Y-99850000I0J50000D01*
G01*
G37*
G36*
G01*
X103000000Y-100250000D02*
X103000000Y-100150000D01*
G75*
G02*
X103050000Y-100100000I50000J0D01*
G01*
X103825000Y-100100000D01*
G75*
G02*
X103875000Y-100150000I0J-50000D01*
G01*
X103875000Y-100250000D01*
G75*
G02*
X103825000Y-100300000I-50000J0D01*
G01*
X103050000Y-100300000D01*
G75*
G02*
X103000000Y-100250000I0J50000D01*
G01*
G37*
G36*
G01*
X103000000Y-100650000D02*
X103000000Y-100550000D01*
G75*
G02*
X103050000Y-100500000I50000J0D01*
G01*
X103825000Y-100500000D01*
G75*
G02*
X103875000Y-100550000I0J-50000D01*
G01*
X103875000Y-100650000D01*
G75*
G02*
X103825000Y-100700000I-50000J0D01*
G01*
X103050000Y-100700000D01*
G75*
G02*
X103000000Y-100650000I0J50000D01*
G01*
G37*
G36*
G01*
X103000000Y-101050000D02*
X103000000Y-100950000D01*
G75*
G02*
X103050000Y-100900000I50000J0D01*
G01*
X103825000Y-100900000D01*
G75*
G02*
X103875000Y-100950000I0J-50000D01*
G01*
X103875000Y-101050000D01*
G75*
G02*
X103825000Y-101100000I-50000J0D01*
G01*
X103050000Y-101100000D01*
G75*
G02*
X103000000Y-101050000I0J50000D01*
G01*
G37*
G36*
G01*
X103000000Y-101450000D02*
X103000000Y-101350000D01*
G75*
G02*
X103050000Y-101300000I50000J0D01*
G01*
X103825000Y-101300000D01*
G75*
G02*
X103875000Y-101350000I0J-50000D01*
G01*
X103875000Y-101450000D01*
G75*
G02*
X103825000Y-101500000I-50000J0D01*
G01*
X103050000Y-101500000D01*
G75*
G02*
X103000000Y-101450000I0J50000D01*
G01*
G37*
G36*
G01*
X103000000Y-101850000D02*
X103000000Y-101750000D01*
G75*
G02*
X103050000Y-101700000I50000J0D01*
G01*
X103825000Y-101700000D01*
G75*
G02*
X103875000Y-101750000I0J-50000D01*
G01*
X103875000Y-101850000D01*
G75*
G02*
X103825000Y-101900000I-50000J0D01*
G01*
X103050000Y-101900000D01*
G75*
G02*
X103000000Y-101850000I0J50000D01*
G01*
G37*
G36*
G01*
X103000000Y-102250000D02*
X103000000Y-102150000D01*
G75*
G02*
X103050000Y-102100000I50000J0D01*
G01*
X103825000Y-102100000D01*
G75*
G02*
X103875000Y-102150000I0J-50000D01*
G01*
X103875000Y-102250000D01*
G75*
G02*
X103825000Y-102300000I-50000J0D01*
G01*
X103050000Y-102300000D01*
G75*
G02*
X103000000Y-102250000I0J50000D01*
G01*
G37*
G36*
G01*
X103000000Y-102650000D02*
X103000000Y-102550000D01*
G75*
G02*
X103050000Y-102500000I50000J0D01*
G01*
X103825000Y-102500000D01*
G75*
G02*
X103875000Y-102550000I0J-50000D01*
G01*
X103875000Y-102650000D01*
G75*
G02*
X103825000Y-102700000I-50000J0D01*
G01*
X103050000Y-102700000D01*
G75*
G02*
X103000000Y-102650000I0J50000D01*
G01*
G37*
G36*
G01*
X102500000Y-103825000D02*
X102500000Y-103050000D01*
G75*
G02*
X102550000Y-103000000I50000J0D01*
G01*
X102650000Y-103000000D01*
G75*
G02*
X102700000Y-103050000I0J-50000D01*
G01*
X102700000Y-103825000D01*
G75*
G02*
X102650000Y-103875000I-50000J0D01*
G01*
X102550000Y-103875000D01*
G75*
G02*
X102500000Y-103825000I0J50000D01*
G01*
G37*
G36*
G01*
X102100000Y-103825000D02*
X102100000Y-103050000D01*
G75*
G02*
X102150000Y-103000000I50000J0D01*
G01*
X102250000Y-103000000D01*
G75*
G02*
X102300000Y-103050000I0J-50000D01*
G01*
X102300000Y-103825000D01*
G75*
G02*
X102250000Y-103875000I-50000J0D01*
G01*
X102150000Y-103875000D01*
G75*
G02*
X102100000Y-103825000I0J50000D01*
G01*
G37*
G36*
G01*
X101700000Y-103825000D02*
X101700000Y-103050000D01*
G75*
G02*
X101750000Y-103000000I50000J0D01*
G01*
X101850000Y-103000000D01*
G75*
G02*
X101900000Y-103050000I0J-50000D01*
G01*
X101900000Y-103825000D01*
G75*
G02*
X101850000Y-103875000I-50000J0D01*
G01*
X101750000Y-103875000D01*
G75*
G02*
X101700000Y-103825000I0J50000D01*
G01*
G37*
G36*
G01*
X101300000Y-103825000D02*
X101300000Y-103050000D01*
G75*
G02*
X101350000Y-103000000I50000J0D01*
G01*
X101450000Y-103000000D01*
G75*
G02*
X101500000Y-103050000I0J-50000D01*
G01*
X101500000Y-103825000D01*
G75*
G02*
X101450000Y-103875000I-50000J0D01*
G01*
X101350000Y-103875000D01*
G75*
G02*
X101300000Y-103825000I0J50000D01*
G01*
G37*
G36*
G01*
X100900000Y-103825000D02*
X100900000Y-103050000D01*
G75*
G02*
X100950000Y-103000000I50000J0D01*
G01*
X101050000Y-103000000D01*
G75*
G02*
X101100000Y-103050000I0J-50000D01*
G01*
X101100000Y-103825000D01*
G75*
G02*
X101050000Y-103875000I-50000J0D01*
G01*
X100950000Y-103875000D01*
G75*
G02*
X100900000Y-103825000I0J50000D01*
G01*
G37*
G36*
G01*
X100500000Y-103825000D02*
X100500000Y-103050000D01*
G75*
G02*
X100550000Y-103000000I50000J0D01*
G01*
X100650000Y-103000000D01*
G75*
G02*
X100700000Y-103050000I0J-50000D01*
G01*
X100700000Y-103825000D01*
G75*
G02*
X100650000Y-103875000I-50000J0D01*
G01*
X100550000Y-103875000D01*
G75*
G02*
X100500000Y-103825000I0J50000D01*
G01*
G37*
G36*
G01*
X100100000Y-103825000D02*
X100100000Y-103050000D01*
G75*
G02*
X100150000Y-103000000I50000J0D01*
G01*
X100250000Y-103000000D01*
G75*
G02*
X100300000Y-103050000I0J-50000D01*
G01*
X100300000Y-103825000D01*
G75*
G02*
X100250000Y-103875000I-50000J0D01*
G01*
X100150000Y-103875000D01*
G75*
G02*
X100100000Y-103825000I0J50000D01*
G01*
G37*
G36*
G01*
X99700000Y-103825000D02*
X99700000Y-103050000D01*
G75*
G02*
X99750000Y-103000000I50000J0D01*
G01*
X99850000Y-103000000D01*
G75*
G02*
X99900000Y-103050000I0J-50000D01*
G01*
X99900000Y-103825000D01*
G75*
G02*
X99850000Y-103875000I-50000J0D01*
G01*
X99750000Y-103875000D01*
G75*
G02*
X99700000Y-103825000I0J50000D01*
G01*
G37*
G36*
G01*
X99300000Y-103825000D02*
X99300000Y-103050000D01*
G75*
G02*
X99350000Y-103000000I50000J0D01*
G01*
X99450000Y-103000000D01*
G75*
G02*
X99500000Y-103050000I0J-50000D01*
G01*
X99500000Y-103825000D01*
G75*
G02*
X99450000Y-103875000I-50000J0D01*
G01*
X99350000Y-103875000D01*
G75*
G02*
X99300000Y-103825000I0J50000D01*
G01*
G37*
G36*
G01*
X98900000Y-103825000D02*
X98900000Y-103050000D01*
G75*
G02*
X98950000Y-103000000I50000J0D01*
G01*
X99050000Y-103000000D01*
G75*
G02*
X99100000Y-103050000I0J-50000D01*
G01*
X99100000Y-103825000D01*
G75*
G02*
X99050000Y-103875000I-50000J0D01*
G01*
X98950000Y-103875000D01*
G75*
G02*
X98900000Y-103825000I0J50000D01*
G01*
G37*
G36*
G01*
X98500000Y-103825000D02*
X98500000Y-103050000D01*
G75*
G02*
X98550000Y-103000000I50000J0D01*
G01*
X98650000Y-103000000D01*
G75*
G02*
X98700000Y-103050000I0J-50000D01*
G01*
X98700000Y-103825000D01*
G75*
G02*
X98650000Y-103875000I-50000J0D01*
G01*
X98550000Y-103875000D01*
G75*
G02*
X98500000Y-103825000I0J50000D01*
G01*
G37*
G36*
G01*
X98100000Y-103825000D02*
X98100000Y-103050000D01*
G75*
G02*
X98150000Y-103000000I50000J0D01*
G01*
X98250000Y-103000000D01*
G75*
G02*
X98300000Y-103050000I0J-50000D01*
G01*
X98300000Y-103825000D01*
G75*
G02*
X98250000Y-103875000I-50000J0D01*
G01*
X98150000Y-103875000D01*
G75*
G02*
X98100000Y-103825000I0J50000D01*
G01*
G37*
G36*
G01*
X97700000Y-103825000D02*
X97700000Y-103050000D01*
G75*
G02*
X97750000Y-103000000I50000J0D01*
G01*
X97850000Y-103000000D01*
G75*
G02*
X97900000Y-103050000I0J-50000D01*
G01*
X97900000Y-103825000D01*
G75*
G02*
X97850000Y-103875000I-50000J0D01*
G01*
X97750000Y-103875000D01*
G75*
G02*
X97700000Y-103825000I0J50000D01*
G01*
G37*
G36*
G01*
X97300000Y-103825000D02*
X97300000Y-103050000D01*
G75*
G02*
X97350000Y-103000000I50000J0D01*
G01*
X97450000Y-103000000D01*
G75*
G02*
X97500000Y-103050000I0J-50000D01*
G01*
X97500000Y-103825000D01*
G75*
G02*
X97450000Y-103875000I-50000J0D01*
G01*
X97350000Y-103875000D01*
G75*
G02*
X97300000Y-103825000I0J50000D01*
G01*
G37*
G36*
G01*
X96125000Y-102650000D02*
X96125000Y-102550000D01*
G75*
G02*
X96175000Y-102500000I50000J0D01*
G01*
X96950000Y-102500000D01*
G75*
G02*
X97000000Y-102550000I0J-50000D01*
G01*
X97000000Y-102650000D01*
G75*
G02*
X96950000Y-102700000I-50000J0D01*
G01*
X96175000Y-102700000D01*
G75*
G02*
X96125000Y-102650000I0J50000D01*
G01*
G37*
G36*
G01*
X96125000Y-102250000D02*
X96125000Y-102150000D01*
G75*
G02*
X96175000Y-102100000I50000J0D01*
G01*
X96950000Y-102100000D01*
G75*
G02*
X97000000Y-102150000I0J-50000D01*
G01*
X97000000Y-102250000D01*
G75*
G02*
X96950000Y-102300000I-50000J0D01*
G01*
X96175000Y-102300000D01*
G75*
G02*
X96125000Y-102250000I0J50000D01*
G01*
G37*
G36*
G01*
X96125000Y-101850000D02*
X96125000Y-101750000D01*
G75*
G02*
X96175000Y-101700000I50000J0D01*
G01*
X96950000Y-101700000D01*
G75*
G02*
X97000000Y-101750000I0J-50000D01*
G01*
X97000000Y-101850000D01*
G75*
G02*
X96950000Y-101900000I-50000J0D01*
G01*
X96175000Y-101900000D01*
G75*
G02*
X96125000Y-101850000I0J50000D01*
G01*
G37*
G36*
G01*
X96125000Y-101450000D02*
X96125000Y-101350000D01*
G75*
G02*
X96175000Y-101300000I50000J0D01*
G01*
X96950000Y-101300000D01*
G75*
G02*
X97000000Y-101350000I0J-50000D01*
G01*
X97000000Y-101450000D01*
G75*
G02*
X96950000Y-101500000I-50000J0D01*
G01*
X96175000Y-101500000D01*
G75*
G02*
X96125000Y-101450000I0J50000D01*
G01*
G37*
G36*
G01*
X96125000Y-101050000D02*
X96125000Y-100950000D01*
G75*
G02*
X96175000Y-100900000I50000J0D01*
G01*
X96950000Y-100900000D01*
G75*
G02*
X97000000Y-100950000I0J-50000D01*
G01*
X97000000Y-101050000D01*
G75*
G02*
X96950000Y-101100000I-50000J0D01*
G01*
X96175000Y-101100000D01*
G75*
G02*
X96125000Y-101050000I0J50000D01*
G01*
G37*
G36*
G01*
X96125000Y-100650000D02*
X96125000Y-100550000D01*
G75*
G02*
X96175000Y-100500000I50000J0D01*
G01*
X96950000Y-100500000D01*
G75*
G02*
X97000000Y-100550000I0J-50000D01*
G01*
X97000000Y-100650000D01*
G75*
G02*
X96950000Y-100700000I-50000J0D01*
G01*
X96175000Y-100700000D01*
G75*
G02*
X96125000Y-100650000I0J50000D01*
G01*
G37*
G36*
G01*
X96125000Y-100250000D02*
X96125000Y-100150000D01*
G75*
G02*
X96175000Y-100100000I50000J0D01*
G01*
X96950000Y-100100000D01*
G75*
G02*
X97000000Y-100150000I0J-50000D01*
G01*
X97000000Y-100250000D01*
G75*
G02*
X96950000Y-100300000I-50000J0D01*
G01*
X96175000Y-100300000D01*
G75*
G02*
X96125000Y-100250000I0J50000D01*
G01*
G37*
G36*
G01*
X96125000Y-99850000D02*
X96125000Y-99750000D01*
G75*
G02*
X96175000Y-99700000I50000J0D01*
G01*
X96950000Y-99700000D01*
G75*
G02*
X97000000Y-99750000I0J-50000D01*
G01*
X97000000Y-99850000D01*
G75*
G02*
X96950000Y-99900000I-50000J0D01*
G01*
X96175000Y-99900000D01*
G75*
G02*
X96125000Y-99850000I0J50000D01*
G01*
G37*
G36*
G01*
X96125000Y-99450000D02*
X96125000Y-99350000D01*
G75*
G02*
X96175000Y-99300000I50000J0D01*
G01*
X96950000Y-99300000D01*
G75*
G02*
X97000000Y-99350000I0J-50000D01*
G01*
X97000000Y-99450000D01*
G75*
G02*
X96950000Y-99500000I-50000J0D01*
G01*
X96175000Y-99500000D01*
G75*
G02*
X96125000Y-99450000I0J50000D01*
G01*
G37*
G36*
G01*
X96125000Y-99050000D02*
X96125000Y-98950000D01*
G75*
G02*
X96175000Y-98900000I50000J0D01*
G01*
X96950000Y-98900000D01*
G75*
G02*
X97000000Y-98950000I0J-50000D01*
G01*
X97000000Y-99050000D01*
G75*
G02*
X96950000Y-99100000I-50000J0D01*
G01*
X96175000Y-99100000D01*
G75*
G02*
X96125000Y-99050000I0J50000D01*
G01*
G37*
G36*
G01*
X96125000Y-98650000D02*
X96125000Y-98550000D01*
G75*
G02*
X96175000Y-98500000I50000J0D01*
G01*
X96950000Y-98500000D01*
G75*
G02*
X97000000Y-98550000I0J-50000D01*
G01*
X97000000Y-98650000D01*
G75*
G02*
X96950000Y-98700000I-50000J0D01*
G01*
X96175000Y-98700000D01*
G75*
G02*
X96125000Y-98650000I0J50000D01*
G01*
G37*
G36*
G01*
X96125000Y-98250000D02*
X96125000Y-98150000D01*
G75*
G02*
X96175000Y-98100000I50000J0D01*
G01*
X96950000Y-98100000D01*
G75*
G02*
X97000000Y-98150000I0J-50000D01*
G01*
X97000000Y-98250000D01*
G75*
G02*
X96950000Y-98300000I-50000J0D01*
G01*
X96175000Y-98300000D01*
G75*
G02*
X96125000Y-98250000I0J50000D01*
G01*
G37*
G36*
G01*
X96125000Y-97850000D02*
X96125000Y-97750000D01*
G75*
G02*
X96175000Y-97700000I50000J0D01*
G01*
X96950000Y-97700000D01*
G75*
G02*
X97000000Y-97750000I0J-50000D01*
G01*
X97000000Y-97850000D01*
G75*
G02*
X96950000Y-97900000I-50000J0D01*
G01*
X96175000Y-97900000D01*
G75*
G02*
X96125000Y-97850000I0J50000D01*
G01*
G37*
G36*
G01*
X96125000Y-97450000D02*
X96125000Y-97350000D01*
G75*
G02*
X96175000Y-97300000I50000J0D01*
G01*
X96950000Y-97300000D01*
G75*
G02*
X97000000Y-97350000I0J-50000D01*
G01*
X97000000Y-97450000D01*
G75*
G02*
X96950000Y-97500000I-50000J0D01*
G01*
X96175000Y-97500000D01*
G75*
G02*
X96125000Y-97450000I0J50000D01*
G01*
G37*
G36*
G01*
X100095283Y-100929717D02*
X100095283Y-100345283D01*
G75*
G02*
X100345283Y-100095283I250000J0D01*
G01*
X100929717Y-100095283D01*
G75*
G02*
X101179717Y-100345283I0J-250000D01*
G01*
X101179717Y-100929717D01*
G75*
G02*
X100929717Y-101179717I-250000J0D01*
G01*
X100345283Y-101179717D01*
G75*
G02*
X100095283Y-100929717I0J250000D01*
G01*
G37*
G36*
G01*
X100095283Y-99654717D02*
X100095283Y-99070283D01*
G75*
G02*
X100345283Y-98820283I250000J0D01*
G01*
X100929717Y-98820283D01*
G75*
G02*
X101179717Y-99070283I0J-250000D01*
G01*
X101179717Y-99654717D01*
G75*
G02*
X100929717Y-99904717I-250000J0D01*
G01*
X100345283Y-99904717D01*
G75*
G02*
X100095283Y-99654717I0J250000D01*
G01*
G37*
G36*
G01*
X98820283Y-100929717D02*
X98820283Y-100345283D01*
G75*
G02*
X99070283Y-100095283I250000J0D01*
G01*
X99654717Y-100095283D01*
G75*
G02*
X99904717Y-100345283I0J-250000D01*
G01*
X99904717Y-100929717D01*
G75*
G02*
X99654717Y-101179717I-250000J0D01*
G01*
X99070283Y-101179717D01*
G75*
G02*
X98820283Y-100929717I0J250000D01*
G01*
G37*
G36*
G01*
X98820283Y-99654717D02*
X98820283Y-99070283D01*
G75*
G02*
X99070283Y-98820283I250000J0D01*
G01*
X99654717Y-98820283D01*
G75*
G02*
X99904717Y-99070283I0J-250000D01*
G01*
X99904717Y-99654717D01*
G75*
G02*
X99654717Y-99904717I-250000J0D01*
G01*
X99070283Y-99904717D01*
G75*
G02*
X98820283Y-99654717I0J250000D01*
G01*
G37*
G36*
G01*
X98527500Y-107305000D02*
X98872500Y-107305000D01*
G75*
G02*
X99020000Y-107452500I0J-147500D01*
G01*
X99020000Y-107747500D01*
G75*
G02*
X98872500Y-107895000I-147500J0D01*
G01*
X98527500Y-107895000D01*
G75*
G02*
X98380000Y-107747500I0J147500D01*
G01*
X98380000Y-107452500D01*
G75*
G02*
X98527500Y-107305000I147500J0D01*
G01*
G37*
G36*
G01*
X98527500Y-106335000D02*
X98872500Y-106335000D01*
G75*
G02*
X99020000Y-106482500I0J-147500D01*
G01*
X99020000Y-106777500D01*
G75*
G02*
X98872500Y-106925000I-147500J0D01*
G01*
X98527500Y-106925000D01*
G75*
G02*
X98380000Y-106777500I0J147500D01*
G01*
X98380000Y-106482500D01*
G75*
G02*
X98527500Y-106335000I147500J0D01*
G01*
G37*
G36*
G01*
X101827500Y-93705000D02*
X102172500Y-93705000D01*
G75*
G02*
X102320000Y-93852500I0J-147500D01*
G01*
X102320000Y-94147500D01*
G75*
G02*
X102172500Y-94295000I-147500J0D01*
G01*
X101827500Y-94295000D01*
G75*
G02*
X101680000Y-94147500I0J147500D01*
G01*
X101680000Y-93852500D01*
G75*
G02*
X101827500Y-93705000I147500J0D01*
G01*
G37*
G36*
G01*
X101827500Y-92735000D02*
X102172500Y-92735000D01*
G75*
G02*
X102320000Y-92882500I0J-147500D01*
G01*
X102320000Y-93177500D01*
G75*
G02*
X102172500Y-93325000I-147500J0D01*
G01*
X101827500Y-93325000D01*
G75*
G02*
X101680000Y-93177500I0J147500D01*
G01*
X101680000Y-92882500D01*
G75*
G02*
X101827500Y-92735000I147500J0D01*
G01*
G37*
G36*
G01*
X100827500Y-93705000D02*
X101172500Y-93705000D01*
G75*
G02*
X101320000Y-93852500I0J-147500D01*
G01*
X101320000Y-94147500D01*
G75*
G02*
X101172500Y-94295000I-147500J0D01*
G01*
X100827500Y-94295000D01*
G75*
G02*
X100680000Y-94147500I0J147500D01*
G01*
X100680000Y-93852500D01*
G75*
G02*
X100827500Y-93705000I147500J0D01*
G01*
G37*
G36*
G01*
X100827500Y-92735000D02*
X101172500Y-92735000D01*
G75*
G02*
X101320000Y-92882500I0J-147500D01*
G01*
X101320000Y-93177500D01*
G75*
G02*
X101172500Y-93325000I-147500J0D01*
G01*
X100827500Y-93325000D01*
G75*
G02*
X100680000Y-93177500I0J147500D01*
G01*
X100680000Y-92882500D01*
G75*
G02*
X100827500Y-92735000I147500J0D01*
G01*
G37*
G36*
G01*
X89327500Y-82505000D02*
X89672500Y-82505000D01*
G75*
G02*
X89820000Y-82652500I0J-147500D01*
G01*
X89820000Y-82947500D01*
G75*
G02*
X89672500Y-83095000I-147500J0D01*
G01*
X89327500Y-83095000D01*
G75*
G02*
X89180000Y-82947500I0J147500D01*
G01*
X89180000Y-82652500D01*
G75*
G02*
X89327500Y-82505000I147500J0D01*
G01*
G37*
G36*
G01*
X89327500Y-81535000D02*
X89672500Y-81535000D01*
G75*
G02*
X89820000Y-81682500I0J-147500D01*
G01*
X89820000Y-81977500D01*
G75*
G02*
X89672500Y-82125000I-147500J0D01*
G01*
X89327500Y-82125000D01*
G75*
G02*
X89180000Y-81977500I0J147500D01*
G01*
X89180000Y-81682500D01*
G75*
G02*
X89327500Y-81535000I147500J0D01*
G01*
G37*
G36*
G01*
X91172500Y-82125000D02*
X90827500Y-82125000D01*
G75*
G02*
X90680000Y-81977500I0J147500D01*
G01*
X90680000Y-81682500D01*
G75*
G02*
X90827500Y-81535000I147500J0D01*
G01*
X91172500Y-81535000D01*
G75*
G02*
X91320000Y-81682500I0J-147500D01*
G01*
X91320000Y-81977500D01*
G75*
G02*
X91172500Y-82125000I-147500J0D01*
G01*
G37*
G36*
G01*
X91172500Y-83095000D02*
X90827500Y-83095000D01*
G75*
G02*
X90680000Y-82947500I0J147500D01*
G01*
X90680000Y-82652500D01*
G75*
G02*
X90827500Y-82505000I147500J0D01*
G01*
X91172500Y-82505000D01*
G75*
G02*
X91320000Y-82652500I0J-147500D01*
G01*
X91320000Y-82947500D01*
G75*
G02*
X91172500Y-83095000I-147500J0D01*
G01*
G37*
G36*
G01*
X106675000Y-94772500D02*
X106675000Y-94427500D01*
G75*
G02*
X106822500Y-94280000I147500J0D01*
G01*
X107117500Y-94280000D01*
G75*
G02*
X107265000Y-94427500I0J-147500D01*
G01*
X107265000Y-94772500D01*
G75*
G02*
X107117500Y-94920000I-147500J0D01*
G01*
X106822500Y-94920000D01*
G75*
G02*
X106675000Y-94772500I0J147500D01*
G01*
G37*
G36*
G01*
X105705000Y-94772500D02*
X105705000Y-94427500D01*
G75*
G02*
X105852500Y-94280000I147500J0D01*
G01*
X106147500Y-94280000D01*
G75*
G02*
X106295000Y-94427500I0J-147500D01*
G01*
X106295000Y-94772500D01*
G75*
G02*
X106147500Y-94920000I-147500J0D01*
G01*
X105852500Y-94920000D01*
G75*
G02*
X105705000Y-94772500I0J147500D01*
G01*
G37*
G36*
G01*
X106675000Y-96172500D02*
X106675000Y-95827500D01*
G75*
G02*
X106822500Y-95680000I147500J0D01*
G01*
X107117500Y-95680000D01*
G75*
G02*
X107265000Y-95827500I0J-147500D01*
G01*
X107265000Y-96172500D01*
G75*
G02*
X107117500Y-96320000I-147500J0D01*
G01*
X106822500Y-96320000D01*
G75*
G02*
X106675000Y-96172500I0J147500D01*
G01*
G37*
G36*
G01*
X105705000Y-96172500D02*
X105705000Y-95827500D01*
G75*
G02*
X105852500Y-95680000I147500J0D01*
G01*
X106147500Y-95680000D01*
G75*
G02*
X106295000Y-95827500I0J-147500D01*
G01*
X106295000Y-96172500D01*
G75*
G02*
X106147500Y-96320000I-147500J0D01*
G01*
X105852500Y-96320000D01*
G75*
G02*
X105705000Y-96172500I0J147500D01*
G01*
G37*
G36*
G01*
X100208500Y-106675000D02*
X100553500Y-106675000D01*
G75*
G02*
X100701000Y-106822500I0J-147500D01*
G01*
X100701000Y-107117500D01*
G75*
G02*
X100553500Y-107265000I-147500J0D01*
G01*
X100208500Y-107265000D01*
G75*
G02*
X100061000Y-107117500I0J147500D01*
G01*
X100061000Y-106822500D01*
G75*
G02*
X100208500Y-106675000I147500J0D01*
G01*
G37*
G36*
G01*
X100208500Y-105705000D02*
X100553500Y-105705000D01*
G75*
G02*
X100701000Y-105852500I0J-147500D01*
G01*
X100701000Y-106147500D01*
G75*
G02*
X100553500Y-106295000I-147500J0D01*
G01*
X100208500Y-106295000D01*
G75*
G02*
X100061000Y-106147500I0J147500D01*
G01*
X100061000Y-105852500D01*
G75*
G02*
X100208500Y-105705000I147500J0D01*
G01*
G37*
G36*
G01*
X93325000Y-101027500D02*
X93325000Y-101372500D01*
G75*
G02*
X93177500Y-101520000I-147500J0D01*
G01*
X92882500Y-101520000D01*
G75*
G02*
X92735000Y-101372500I0J147500D01*
G01*
X92735000Y-101027500D01*
G75*
G02*
X92882500Y-100880000I147500J0D01*
G01*
X93177500Y-100880000D01*
G75*
G02*
X93325000Y-101027500I0J-147500D01*
G01*
G37*
G36*
G01*
X94295000Y-101027500D02*
X94295000Y-101372500D01*
G75*
G02*
X94147500Y-101520000I-147500J0D01*
G01*
X93852500Y-101520000D01*
G75*
G02*
X93705000Y-101372500I0J147500D01*
G01*
X93705000Y-101027500D01*
G75*
G02*
X93852500Y-100880000I147500J0D01*
G01*
X94147500Y-100880000D01*
G75*
G02*
X94295000Y-101027500I0J-147500D01*
G01*
G37*
G36*
G01*
X106675000Y-101372500D02*
X106675000Y-101027500D01*
G75*
G02*
X106822500Y-100880000I147500J0D01*
G01*
X107117500Y-100880000D01*
G75*
G02*
X107265000Y-101027500I0J-147500D01*
G01*
X107265000Y-101372500D01*
G75*
G02*
X107117500Y-101520000I-147500J0D01*
G01*
X106822500Y-101520000D01*
G75*
G02*
X106675000Y-101372500I0J147500D01*
G01*
G37*
G36*
G01*
X105705000Y-101372500D02*
X105705000Y-101027500D01*
G75*
G02*
X105852500Y-100880000I147500J0D01*
G01*
X106147500Y-100880000D01*
G75*
G02*
X106295000Y-101027500I0J-147500D01*
G01*
X106295000Y-101372500D01*
G75*
G02*
X106147500Y-101520000I-147500J0D01*
G01*
X105852500Y-101520000D01*
G75*
G02*
X105705000Y-101372500I0J147500D01*
G01*
G37*
G36*
G01*
X93325000Y-96827500D02*
X93325000Y-97172500D01*
G75*
G02*
X93177500Y-97320000I-147500J0D01*
G01*
X92882500Y-97320000D01*
G75*
G02*
X92735000Y-97172500I0J147500D01*
G01*
X92735000Y-96827500D01*
G75*
G02*
X92882500Y-96680000I147500J0D01*
G01*
X93177500Y-96680000D01*
G75*
G02*
X93325000Y-96827500I0J-147500D01*
G01*
G37*
G36*
G01*
X94295000Y-96827500D02*
X94295000Y-97172500D01*
G75*
G02*
X94147500Y-97320000I-147500J0D01*
G01*
X93852500Y-97320000D01*
G75*
G02*
X93705000Y-97172500I0J147500D01*
G01*
X93705000Y-96827500D01*
G75*
G02*
X93852500Y-96680000I147500J0D01*
G01*
X94147500Y-96680000D01*
G75*
G02*
X94295000Y-96827500I0J-147500D01*
G01*
G37*
G36*
G01*
X104172500Y-93325000D02*
X103827500Y-93325000D01*
G75*
G02*
X103680000Y-93177500I0J147500D01*
G01*
X103680000Y-92882500D01*
G75*
G02*
X103827500Y-92735000I147500J0D01*
G01*
X104172500Y-92735000D01*
G75*
G02*
X104320000Y-92882500I0J-147500D01*
G01*
X104320000Y-93177500D01*
G75*
G02*
X104172500Y-93325000I-147500J0D01*
G01*
G37*
G36*
G01*
X104172500Y-94295000D02*
X103827500Y-94295000D01*
G75*
G02*
X103680000Y-94147500I0J147500D01*
G01*
X103680000Y-93852500D01*
G75*
G02*
X103827500Y-93705000I147500J0D01*
G01*
X104172500Y-93705000D01*
G75*
G02*
X104320000Y-93852500I0J-147500D01*
G01*
X104320000Y-94147500D01*
G75*
G02*
X104172500Y-94295000I-147500J0D01*
G01*
G37*
G36*
G01*
X100172500Y-92325000D02*
X99827500Y-92325000D01*
G75*
G02*
X99680000Y-92177500I0J147500D01*
G01*
X99680000Y-91882500D01*
G75*
G02*
X99827500Y-91735000I147500J0D01*
G01*
X100172500Y-91735000D01*
G75*
G02*
X100320000Y-91882500I0J-147500D01*
G01*
X100320000Y-92177500D01*
G75*
G02*
X100172500Y-92325000I-147500J0D01*
G01*
G37*
G36*
G01*
X100172500Y-93295000D02*
X99827500Y-93295000D01*
G75*
G02*
X99680000Y-93147500I0J147500D01*
G01*
X99680000Y-92852500D01*
G75*
G02*
X99827500Y-92705000I147500J0D01*
G01*
X100172500Y-92705000D01*
G75*
G02*
X100320000Y-92852500I0J-147500D01*
G01*
X100320000Y-93147500D01*
G75*
G02*
X100172500Y-93295000I-147500J0D01*
G01*
G37*
G36*
G01*
X103172500Y-93325000D02*
X102827500Y-93325000D01*
G75*
G02*
X102680000Y-93177500I0J147500D01*
G01*
X102680000Y-92882500D01*
G75*
G02*
X102827500Y-92735000I147500J0D01*
G01*
X103172500Y-92735000D01*
G75*
G02*
X103320000Y-92882500I0J-147500D01*
G01*
X103320000Y-93177500D01*
G75*
G02*
X103172500Y-93325000I-147500J0D01*
G01*
G37*
G36*
G01*
X103172500Y-94295000D02*
X102827500Y-94295000D01*
G75*
G02*
X102680000Y-94147500I0J147500D01*
G01*
X102680000Y-93852500D01*
G75*
G02*
X102827500Y-93705000I147500J0D01*
G01*
X103172500Y-93705000D01*
G75*
G02*
X103320000Y-93852500I0J-147500D01*
G01*
X103320000Y-94147500D01*
G75*
G02*
X103172500Y-94295000I-147500J0D01*
G01*
G37*
G36*
G01*
X101327500Y-106675000D02*
X101672500Y-106675000D01*
G75*
G02*
X101820000Y-106822500I0J-147500D01*
G01*
X101820000Y-107117500D01*
G75*
G02*
X101672500Y-107265000I-147500J0D01*
G01*
X101327500Y-107265000D01*
G75*
G02*
X101180000Y-107117500I0J147500D01*
G01*
X101180000Y-106822500D01*
G75*
G02*
X101327500Y-106675000I147500J0D01*
G01*
G37*
G36*
G01*
X101327500Y-105705000D02*
X101672500Y-105705000D01*
G75*
G02*
X101820000Y-105852500I0J-147500D01*
G01*
X101820000Y-106147500D01*
G75*
G02*
X101672500Y-106295000I-147500J0D01*
G01*
X101327500Y-106295000D01*
G75*
G02*
X101180000Y-106147500I0J147500D01*
G01*
X101180000Y-105852500D01*
G75*
G02*
X101327500Y-105705000I147500J0D01*
G01*
G37*
G36*
G01*
X99172500Y-92325000D02*
X98827500Y-92325000D01*
G75*
G02*
X98680000Y-92177500I0J147500D01*
G01*
X98680000Y-91882500D01*
G75*
G02*
X98827500Y-91735000I147500J0D01*
G01*
X99172500Y-91735000D01*
G75*
G02*
X99320000Y-91882500I0J-147500D01*
G01*
X99320000Y-92177500D01*
G75*
G02*
X99172500Y-92325000I-147500J0D01*
G01*
G37*
G36*
G01*
X99172500Y-93295000D02*
X98827500Y-93295000D01*
G75*
G02*
X98680000Y-93147500I0J147500D01*
G01*
X98680000Y-92852500D01*
G75*
G02*
X98827500Y-92705000I147500J0D01*
G01*
X99172500Y-92705000D01*
G75*
G02*
X99320000Y-92852500I0J-147500D01*
G01*
X99320000Y-93147500D01*
G75*
G02*
X99172500Y-93295000I-147500J0D01*
G01*
G37*
G36*
G01*
X95995000Y-82657500D02*
X95995000Y-83002500D01*
G75*
G02*
X95847500Y-83150000I-147500J0D01*
G01*
X95552500Y-83150000D01*
G75*
G02*
X95405000Y-83002500I0J147500D01*
G01*
X95405000Y-82657500D01*
G75*
G02*
X95552500Y-82510000I147500J0D01*
G01*
X95847500Y-82510000D01*
G75*
G02*
X95995000Y-82657500I0J-147500D01*
G01*
G37*
G36*
G01*
X96965000Y-82657500D02*
X96965000Y-83002500D01*
G75*
G02*
X96817500Y-83150000I-147500J0D01*
G01*
X96522500Y-83150000D01*
G75*
G02*
X96375000Y-83002500I0J147500D01*
G01*
X96375000Y-82657500D01*
G75*
G02*
X96522500Y-82510000I147500J0D01*
G01*
X96817500Y-82510000D01*
G75*
G02*
X96965000Y-82657500I0J-147500D01*
G01*
G37*
G36*
G01*
X99675000Y-109172500D02*
X99675000Y-108827500D01*
G75*
G02*
X99822500Y-108680000I147500J0D01*
G01*
X100117500Y-108680000D01*
G75*
G02*
X100265000Y-108827500I0J-147500D01*
G01*
X100265000Y-109172500D01*
G75*
G02*
X100117500Y-109320000I-147500J0D01*
G01*
X99822500Y-109320000D01*
G75*
G02*
X99675000Y-109172500I0J147500D01*
G01*
G37*
G36*
G01*
X98705000Y-109172500D02*
X98705000Y-108827500D01*
G75*
G02*
X98852500Y-108680000I147500J0D01*
G01*
X99147500Y-108680000D01*
G75*
G02*
X99295000Y-108827500I0J-147500D01*
G01*
X99295000Y-109172500D01*
G75*
G02*
X99147500Y-109320000I-147500J0D01*
G01*
X98852500Y-109320000D01*
G75*
G02*
X98705000Y-109172500I0J147500D01*
G01*
G37*
G36*
G01*
X96325000Y-108827500D02*
X96325000Y-109172500D01*
G75*
G02*
X96177500Y-109320000I-147500J0D01*
G01*
X95882500Y-109320000D01*
G75*
G02*
X95735000Y-109172500I0J147500D01*
G01*
X95735000Y-108827500D01*
G75*
G02*
X95882500Y-108680000I147500J0D01*
G01*
X96177500Y-108680000D01*
G75*
G02*
X96325000Y-108827500I0J-147500D01*
G01*
G37*
G36*
G01*
X97295000Y-108827500D02*
X97295000Y-109172500D01*
G75*
G02*
X97147500Y-109320000I-147500J0D01*
G01*
X96852500Y-109320000D01*
G75*
G02*
X96705000Y-109172500I0J147500D01*
G01*
X96705000Y-108827500D01*
G75*
G02*
X96852500Y-108680000I147500J0D01*
G01*
X97147500Y-108680000D01*
G75*
G02*
X97295000Y-108827500I0J-147500D01*
G01*
G37*
G36*
G01*
X108387500Y-76956250D02*
X108387500Y-76043750D01*
G75*
G02*
X108631250Y-75800000I243750J0D01*
G01*
X109118750Y-75800000D01*
G75*
G02*
X109362500Y-76043750I0J-243750D01*
G01*
X109362500Y-76956250D01*
G75*
G02*
X109118750Y-77200000I-243750J0D01*
G01*
X108631250Y-77200000D01*
G75*
G02*
X108387500Y-76956250I0J243750D01*
G01*
G37*
G36*
G01*
X106512500Y-76956250D02*
X106512500Y-76043750D01*
G75*
G02*
X106756250Y-75800000I243750J0D01*
G01*
X107243750Y-75800000D01*
G75*
G02*
X107487500Y-76043750I0J-243750D01*
G01*
X107487500Y-76956250D01*
G75*
G02*
X107243750Y-77200000I-243750J0D01*
G01*
X106756250Y-77200000D01*
G75*
G02*
X106512500Y-76956250I0J243750D01*
G01*
G37*
G36*
G01*
X95850000Y-85520000D02*
X95850000Y-85220000D01*
G75*
G02*
X96000000Y-85070000I150000J0D01*
G01*
X97300000Y-85070000D01*
G75*
G02*
X97450000Y-85220000I0J-150000D01*
G01*
X97450000Y-85520000D01*
G75*
G02*
X97300000Y-85670000I-150000J0D01*
G01*
X96000000Y-85670000D01*
G75*
G02*
X95850000Y-85520000I0J150000D01*
G01*
G37*
G36*
G01*
X95850000Y-86790000D02*
X95850000Y-86490000D01*
G75*
G02*
X96000000Y-86340000I150000J0D01*
G01*
X97300000Y-86340000D01*
G75*
G02*
X97450000Y-86490000I0J-150000D01*
G01*
X97450000Y-86790000D01*
G75*
G02*
X97300000Y-86940000I-150000J0D01*
G01*
X96000000Y-86940000D01*
G75*
G02*
X95850000Y-86790000I0J150000D01*
G01*
G37*
G36*
G01*
X95850000Y-88060000D02*
X95850000Y-87760000D01*
G75*
G02*
X96000000Y-87610000I150000J0D01*
G01*
X97300000Y-87610000D01*
G75*
G02*
X97450000Y-87760000I0J-150000D01*
G01*
X97450000Y-88060000D01*
G75*
G02*
X97300000Y-88210000I-150000J0D01*
G01*
X96000000Y-88210000D01*
G75*
G02*
X95850000Y-88060000I0J150000D01*
G01*
G37*
G36*
G01*
X95850000Y-89330000D02*
X95850000Y-89030000D01*
G75*
G02*
X96000000Y-88880000I150000J0D01*
G01*
X97300000Y-88880000D01*
G75*
G02*
X97450000Y-89030000I0J-150000D01*
G01*
X97450000Y-89330000D01*
G75*
G02*
X97300000Y-89480000I-150000J0D01*
G01*
X96000000Y-89480000D01*
G75*
G02*
X95850000Y-89330000I0J150000D01*
G01*
G37*
G36*
G01*
X88650000Y-89330000D02*
X88650000Y-89030000D01*
G75*
G02*
X88800000Y-88880000I150000J0D01*
G01*
X90100000Y-88880000D01*
G75*
G02*
X90250000Y-89030000I0J-150000D01*
G01*
X90250000Y-89330000D01*
G75*
G02*
X90100000Y-89480000I-150000J0D01*
G01*
X88800000Y-89480000D01*
G75*
G02*
X88650000Y-89330000I0J150000D01*
G01*
G37*
G36*
G01*
X88650000Y-88060000D02*
X88650000Y-87760000D01*
G75*
G02*
X88800000Y-87610000I150000J0D01*
G01*
X90100000Y-87610000D01*
G75*
G02*
X90250000Y-87760000I0J-150000D01*
G01*
X90250000Y-88060000D01*
G75*
G02*
X90100000Y-88210000I-150000J0D01*
G01*
X88800000Y-88210000D01*
G75*
G02*
X88650000Y-88060000I0J150000D01*
G01*
G37*
G36*
G01*
X88650000Y-86790000D02*
X88650000Y-86490000D01*
G75*
G02*
X88800000Y-86340000I150000J0D01*
G01*
X90100000Y-86340000D01*
G75*
G02*
X90250000Y-86490000I0J-150000D01*
G01*
X90250000Y-86790000D01*
G75*
G02*
X90100000Y-86940000I-150000J0D01*
G01*
X88800000Y-86940000D01*
G75*
G02*
X88650000Y-86790000I0J150000D01*
G01*
G37*
G36*
G01*
X88650000Y-85520000D02*
X88650000Y-85220000D01*
G75*
G02*
X88800000Y-85070000I150000J0D01*
G01*
X90100000Y-85070000D01*
G75*
G02*
X90250000Y-85220000I0J-150000D01*
G01*
X90250000Y-85520000D01*
G75*
G02*
X90100000Y-85670000I-150000J0D01*
G01*
X88800000Y-85670000D01*
G75*
G02*
X88650000Y-85520000I0J150000D01*
G01*
G37*
D11*
X110300000Y-79700000D03*
X105700000Y-79700000D03*
X108000000Y-79700000D03*
D12*
X108000000Y-86000000D03*
M02*
