G04 #@! TF.GenerationSoftware,KiCad,Pcbnew,(5.1.9)-1*
G04 #@! TF.CreationDate,2022-01-10T11:00:18-07:00*
G04 #@! TF.ProjectId,RP2040_minimal,52503230-3430-45f6-9d69-6e696d616c2e,REV1*
G04 #@! TF.SameCoordinates,Original*
G04 #@! TF.FileFunction,Soldermask,Bot*
G04 #@! TF.FilePolarity,Negative*
%FSLAX46Y46*%
G04 Gerber Fmt 4.6, Leading zero omitted, Abs format (unit mm)*
G04 Created by KiCad (PCBNEW (5.1.9)-1) date 2022-01-10 11:00:18*
%MOMM*%
%LPD*%
G01*
G04 APERTURE LIST*
%ADD10C,1.802000*%
%ADD11C,3.702000*%
%ADD12C,7.102000*%
%ADD13C,2.802000*%
%ADD14O,1.802000X1.802000*%
G04 APERTURE END LIST*
D10*
X101340000Y-65855000D03*
X98840000Y-65855000D03*
X98840000Y-67855000D03*
X101340000Y-67855000D03*
D11*
X106206000Y-63145000D03*
X93974000Y-63145000D03*
D12*
X27070000Y-137910000D03*
X54070000Y-137910000D03*
X81070000Y-137910000D03*
X69070000Y-137910000D03*
X96070000Y-137910000D03*
X123070000Y-137910000D03*
X54070000Y-211910000D03*
X81070000Y-211910000D03*
X96070000Y-211910000D03*
X27070000Y-211910000D03*
X69070000Y-211910000D03*
X123070000Y-211910000D03*
D13*
X86030000Y-117180000D03*
X113970000Y-117180000D03*
X113970000Y-74000000D03*
X86030000Y-74000000D03*
D14*
X124130000Y-117180000D03*
X121590000Y-117180000D03*
X124130000Y-114640000D03*
X121590000Y-114640000D03*
X124130000Y-112100000D03*
X121590000Y-112100000D03*
X124130000Y-109560000D03*
X121590000Y-109560000D03*
X124130000Y-107020000D03*
X121590000Y-107020000D03*
X124130000Y-104480000D03*
X121590000Y-104480000D03*
X124130000Y-101940000D03*
X121590000Y-101940000D03*
X124130000Y-99400000D03*
X121590000Y-99400000D03*
X124130000Y-96860000D03*
X121590000Y-96860000D03*
X124130000Y-94320000D03*
X121590000Y-94320000D03*
X124130000Y-91780000D03*
X121590000Y-91780000D03*
X124130000Y-89240000D03*
X121590000Y-89240000D03*
X124130000Y-86700000D03*
X121590000Y-86700000D03*
X124130000Y-84160000D03*
X121590000Y-84160000D03*
X124130000Y-81620000D03*
X121590000Y-81620000D03*
X124130000Y-79080000D03*
X121590000Y-79080000D03*
X124130000Y-76540000D03*
X121590000Y-76540000D03*
X124130000Y-74000000D03*
G36*
G01*
X120689000Y-74850000D02*
X120689000Y-73150000D01*
G75*
G02*
X120740000Y-73099000I51000J0D01*
G01*
X122440000Y-73099000D01*
G75*
G02*
X122491000Y-73150000I0J-51000D01*
G01*
X122491000Y-74850000D01*
G75*
G02*
X122440000Y-74901000I-51000J0D01*
G01*
X120740000Y-74901000D01*
G75*
G02*
X120689000Y-74850000I0J51000D01*
G01*
G37*
X78410000Y-117180000D03*
X75870000Y-117180000D03*
X78410000Y-114640000D03*
X75870000Y-114640000D03*
X78410000Y-112100000D03*
X75870000Y-112100000D03*
X78410000Y-109560000D03*
X75870000Y-109560000D03*
X78410000Y-107020000D03*
X75870000Y-107020000D03*
X78410000Y-104480000D03*
X75870000Y-104480000D03*
X78410000Y-101940000D03*
X75870000Y-101940000D03*
X78410000Y-99400000D03*
X75870000Y-99400000D03*
X78410000Y-96860000D03*
X75870000Y-96860000D03*
X78410000Y-94320000D03*
X75870000Y-94320000D03*
X78410000Y-91780000D03*
X75870000Y-91780000D03*
X78410000Y-89240000D03*
X75870000Y-89240000D03*
X78410000Y-86700000D03*
X75870000Y-86700000D03*
X78410000Y-84160000D03*
X75870000Y-84160000D03*
X78410000Y-81620000D03*
X75870000Y-81620000D03*
X78410000Y-79080000D03*
X75870000Y-79080000D03*
X78410000Y-76540000D03*
X75870000Y-76540000D03*
X78410000Y-74000000D03*
G36*
G01*
X74969000Y-74850000D02*
X74969000Y-73150000D01*
G75*
G02*
X75020000Y-73099000I51000J0D01*
G01*
X76720000Y-73099000D01*
G75*
G02*
X76771000Y-73150000I0J-51000D01*
G01*
X76771000Y-74850000D01*
G75*
G02*
X76720000Y-74901000I-51000J0D01*
G01*
X75020000Y-74901000D01*
G75*
G02*
X74969000Y-74850000I0J51000D01*
G01*
G37*
X91110000Y-74000000D03*
G36*
G01*
X92011000Y-75690000D02*
X92011000Y-77390000D01*
G75*
G02*
X91960000Y-77441000I-51000J0D01*
G01*
X90260000Y-77441000D01*
G75*
G02*
X90209000Y-77390000I0J51000D01*
G01*
X90209000Y-75690000D01*
G75*
G02*
X90260000Y-75639000I51000J0D01*
G01*
X91960000Y-75639000D01*
G75*
G02*
X92011000Y-75690000I0J-51000D01*
G01*
G37*
M02*
