M48
; DRILL file {KiCad (5.1.5-0)} date Monday, January 10, 2022 at 01:43:53 PM
; FORMAT={-:-/ absolute / inch / decimal}
; #@! TF.CreationDate,2022-01-10T13:43:53-07:00
; #@! TF.GenerationSoftware,Kicad,Pcbnew,(5.1.5-0)
; #@! TF.FileFunction,Plated,1,2,PTH
FMAT,2
INCH
T1C0.0402
T2C0.0433
T3C0.0827
T4C0.0945
T5C0.1378
%
G90
G05
T1
X0.9Y-4.4681
X1.0Y-4.4681
X1.1Y-4.4681
X1.2Y-4.4681
X1.3Y-4.4681
X1.4Y-4.4681
X1.5Y-4.4681
X0.8976Y-5.0681
X0.9976Y-5.0681
X1.0976Y-5.0681
X1.1976Y-5.0681
X1.2976Y-5.0681
X1.3976Y-5.0681
X1.4976Y-5.0681
T2
X1.3287Y-5.8285
X1.3287Y-5.9073
X1.4272Y-5.8285
X1.4272Y-5.9073
X1.9152Y-4.626
X1.9152Y-4.7244
X1.9152Y-4.8031
X1.9152Y-4.9016
T3
X2.0219Y-4.4882
X2.0219Y-5.0394
T4
X1.1372Y-6.014
X1.6187Y-6.014
T5
X0.4724Y-3.0709
X1.5354Y-3.0709
X4.252Y-3.0709
X3.189Y-3.0709
X3.189Y-0.1575
X2.5984Y-3.0709
X2.126Y-3.0709
X2.126Y-0.1575
X4.252Y-0.1575
X0.4724Y-0.1575
X2.5984Y-0.1575
X1.5354Y-0.1575
T0
M30
