M48
; DRILL file {KiCad (5.1.9)-1} date 01/10/22 15:29:56
; FORMAT={-:-/ absolute / metric / decimal}
; #@! TF.CreationDate,2022-01-10T15:29:56-07:00
; #@! TF.GenerationSoftware,Kicad,Pcbnew,(5.1.9)-1
; #@! TF.FileFunction,Plated,1,2,PTH
FMAT,2
METRIC
T1C1.020
T2C1.100
T3C2.100
T4C2.400
T5C3.500
%
G90
G05
T1
X22.8Y-128.73
X22.86Y-113.49
X25.34Y-128.73
X25.4Y-113.49
X27.88Y-128.73
X27.94Y-113.49
X30.42Y-128.73
X30.48Y-113.49
X32.96Y-128.73
X33.02Y-113.49
X35.5Y-128.73
X35.56Y-113.49
X38.04Y-128.73
X38.1Y-113.49
T2
X33.75Y-148.045
X33.75Y-150.045
X36.25Y-148.045
X36.25Y-150.045
X48.645Y-117.5
X48.645Y-120.0
X48.645Y-122.0
X48.645Y-124.5
T3
X51.355Y-114.0
X51.355Y-128.0
T4
X28.884Y-152.755
X41.116Y-152.755
T5
X12.0Y-4.0
X12.0Y-78.0
X39.0Y-4.0
X39.0Y-78.0
X54.0Y-4.0
X54.0Y-78.0
X66.0Y-4.0
X66.0Y-78.0
X81.0Y-4.0
X81.0Y-78.0
X108.0Y-4.0
X108.0Y-78.0
T0
M30
