M48
; DRILL file {KiCad (5.1.5-0)} date Monday, January 10, 2022 at 01:55:33 PM
; FORMAT={-:-/ absolute / inch / decimal}
; #@! TF.CreationDate,2022-01-10T13:55:33-07:00
; #@! TF.GenerationSoftware,Kicad,Pcbnew,(5.1.5-0)
; #@! TF.FileFunction,Plated,1,2,PTH
FMAT,2
INCH
T1C0.0402
T2C0.1378
%
G90
G05
T1
X1.4465Y-5.6606
X1.4465Y-5.7606
X1.4465Y-5.8606
X1.4465Y-5.9606
X1.4465Y-6.0606
X1.4465Y-6.1606
X1.4465Y-6.2606
X0.8465Y-5.6606
X0.8465Y-5.7606
X0.8465Y-5.8606
X0.8465Y-5.9606
X0.8465Y-6.0606
X0.8465Y-6.1606
X0.8465Y-6.2606
T2
X0.4724Y-0.1575
X2.126Y-0.1575
X1.5354Y-0.1575
X2.5984Y-0.1575
X3.189Y-0.1575
X4.252Y-0.1575
X0.4724Y-3.0709
X1.5354Y-3.0709
X2.126Y-3.0709
X2.5984Y-3.0709
X3.189Y-3.0709
X4.252Y-3.0709
T0
M30
