%TF.GenerationSoftware,KiCad,Pcbnew,(5.1.5-0)*%
%TF.CreationDate,2022-01-10T13:55:22-07:00*%
%TF.ProjectId,PCB_02,5043425f-3032-42e6-9b69-6361645f7063,rev?*%
%TF.SameCoordinates,Original*%
%TF.FileFunction,Legend,Top*%
%TF.FilePolarity,Positive*%
%FSLAX46Y46*%
G04 Gerber Fmt 4.6, Leading zero omitted, Abs format (unit mm)*
G04 Created by KiCad (PCBNEW (5.1.5-0)) date 2022-01-10 13:55:22*
%MOMM*%
%LPD*%
G04 APERTURE LIST*
%ADD10C,0.120000*%
%ADD11C,0.150000*%
G04 APERTURE END LIST*
D10*
X62000000Y-82000000D02*
X112000000Y-82000000D01*
X8000000Y-82000000D02*
X58000000Y-82000000D01*
X58000000Y0D02*
X8000000Y0D01*
X112000000Y0D02*
X62000000Y0D01*
X112000000Y0D02*
X112000000Y-82000000D01*
X62000000Y0D02*
X62000000Y-82000000D01*
X58000000Y0D02*
X58000000Y-82000000D01*
X8000000Y0D02*
X8000000Y-82000000D01*
%TO.C,H1*%
D11*
X11238095Y47619D02*
X11238095Y1047619D01*
X11238095Y571428D02*
X11809523Y571428D01*
X11809523Y47619D02*
X11809523Y1047619D01*
X12809523Y47619D02*
X12238095Y47619D01*
X12523809Y47619D02*
X12523809Y1047619D01*
X12428571Y904761D01*
X12333333Y809523D01*
X12238095Y761904D01*
%TO.C,H2*%
X38238095Y47619D02*
X38238095Y1047619D01*
X38238095Y571428D02*
X38809523Y571428D01*
X38809523Y47619D02*
X38809523Y1047619D01*
X39238095Y952380D02*
X39285714Y1000000D01*
X39380952Y1047619D01*
X39619047Y1047619D01*
X39714285Y1000000D01*
X39761904Y952380D01*
X39809523Y857142D01*
X39809523Y761904D01*
X39761904Y619047D01*
X39190476Y47619D01*
X39809523Y47619D01*
%TO.C,H3*%
X53238095Y47619D02*
X53238095Y1047619D01*
X53238095Y571428D02*
X53809523Y571428D01*
X53809523Y47619D02*
X53809523Y1047619D01*
X54190476Y1047619D02*
X54809523Y1047619D01*
X54476190Y666666D01*
X54619047Y666666D01*
X54714285Y619047D01*
X54761904Y571428D01*
X54809523Y476190D01*
X54809523Y238095D01*
X54761904Y142857D01*
X54714285Y95238D01*
X54619047Y47619D01*
X54333333Y47619D01*
X54238095Y95238D01*
X54190476Y142857D01*
%TO.C,H4*%
X65238095Y47619D02*
X65238095Y1047619D01*
X65238095Y571428D02*
X65809523Y571428D01*
X65809523Y47619D02*
X65809523Y1047619D01*
X66714285Y714285D02*
X66714285Y47619D01*
X66476190Y1095238D02*
X66238095Y380952D01*
X66857142Y380952D01*
%TO.C,H5*%
X80238095Y47619D02*
X80238095Y1047619D01*
X80238095Y571428D02*
X80809523Y571428D01*
X80809523Y47619D02*
X80809523Y1047619D01*
X81761904Y1047619D02*
X81285714Y1047619D01*
X81238095Y571428D01*
X81285714Y619047D01*
X81380952Y666666D01*
X81619047Y666666D01*
X81714285Y619047D01*
X81761904Y571428D01*
X81809523Y476190D01*
X81809523Y238095D01*
X81761904Y142857D01*
X81714285Y95238D01*
X81619047Y47619D01*
X81380952Y47619D01*
X81285714Y95238D01*
X81238095Y142857D01*
%TO.C,H6*%
X107238095Y47619D02*
X107238095Y1047619D01*
X107238095Y571428D02*
X107809523Y571428D01*
X107809523Y47619D02*
X107809523Y1047619D01*
X108714285Y1047619D02*
X108523809Y1047619D01*
X108428571Y1000000D01*
X108380952Y952380D01*
X108285714Y809523D01*
X108238095Y619047D01*
X108238095Y238095D01*
X108285714Y142857D01*
X108333333Y95238D01*
X108428571Y47619D01*
X108619047Y47619D01*
X108714285Y95238D01*
X108761904Y142857D01*
X108809523Y238095D01*
X108809523Y476190D01*
X108761904Y571428D01*
X108714285Y619047D01*
X108619047Y666666D01*
X108428571Y666666D01*
X108333333Y619047D01*
X108285714Y571428D01*
X108238095Y476190D01*
%TO.C,H7*%
X11238095Y-73952380D02*
X11238095Y-72952380D01*
X11238095Y-73428571D02*
X11809523Y-73428571D01*
X11809523Y-73952380D02*
X11809523Y-72952380D01*
X12190476Y-72952380D02*
X12857142Y-72952380D01*
X12428571Y-73952380D01*
%TO.C,H8*%
X38238095Y-73952380D02*
X38238095Y-72952380D01*
X38238095Y-73428571D02*
X38809523Y-73428571D01*
X38809523Y-73952380D02*
X38809523Y-72952380D01*
X39428571Y-73380952D02*
X39333333Y-73333333D01*
X39285714Y-73285714D01*
X39238095Y-73190476D01*
X39238095Y-73142857D01*
X39285714Y-73047619D01*
X39333333Y-73000000D01*
X39428571Y-72952380D01*
X39619047Y-72952380D01*
X39714285Y-73000000D01*
X39761904Y-73047619D01*
X39809523Y-73142857D01*
X39809523Y-73190476D01*
X39761904Y-73285714D01*
X39714285Y-73333333D01*
X39619047Y-73380952D01*
X39428571Y-73380952D01*
X39333333Y-73428571D01*
X39285714Y-73476190D01*
X39238095Y-73571428D01*
X39238095Y-73761904D01*
X39285714Y-73857142D01*
X39333333Y-73904761D01*
X39428571Y-73952380D01*
X39619047Y-73952380D01*
X39714285Y-73904761D01*
X39761904Y-73857142D01*
X39809523Y-73761904D01*
X39809523Y-73571428D01*
X39761904Y-73476190D01*
X39714285Y-73428571D01*
X39619047Y-73380952D01*
%TO.C,H9*%
X53238095Y-73952380D02*
X53238095Y-72952380D01*
X53238095Y-73428571D02*
X53809523Y-73428571D01*
X53809523Y-73952380D02*
X53809523Y-72952380D01*
X54333333Y-73952380D02*
X54523809Y-73952380D01*
X54619047Y-73904761D01*
X54666666Y-73857142D01*
X54761904Y-73714285D01*
X54809523Y-73523809D01*
X54809523Y-73142857D01*
X54761904Y-73047619D01*
X54714285Y-73000000D01*
X54619047Y-72952380D01*
X54428571Y-72952380D01*
X54333333Y-73000000D01*
X54285714Y-73047619D01*
X54238095Y-73142857D01*
X54238095Y-73380952D01*
X54285714Y-73476190D01*
X54333333Y-73523809D01*
X54428571Y-73571428D01*
X54619047Y-73571428D01*
X54714285Y-73523809D01*
X54761904Y-73476190D01*
X54809523Y-73380952D01*
%TO.C,H10*%
X64761904Y-73952380D02*
X64761904Y-72952380D01*
X64761904Y-73428571D02*
X65333333Y-73428571D01*
X65333333Y-73952380D02*
X65333333Y-72952380D01*
X66333333Y-73952380D02*
X65761904Y-73952380D01*
X66047619Y-73952380D02*
X66047619Y-72952380D01*
X65952380Y-73095238D01*
X65857142Y-73190476D01*
X65761904Y-73238095D01*
X66952380Y-72952380D02*
X67047619Y-72952380D01*
X67142857Y-73000000D01*
X67190476Y-73047619D01*
X67238095Y-73142857D01*
X67285714Y-73333333D01*
X67285714Y-73571428D01*
X67238095Y-73761904D01*
X67190476Y-73857142D01*
X67142857Y-73904761D01*
X67047619Y-73952380D01*
X66952380Y-73952380D01*
X66857142Y-73904761D01*
X66809523Y-73857142D01*
X66761904Y-73761904D01*
X66714285Y-73571428D01*
X66714285Y-73333333D01*
X66761904Y-73142857D01*
X66809523Y-73047619D01*
X66857142Y-73000000D01*
X66952380Y-72952380D01*
%TO.C,H11*%
X79761904Y-73952380D02*
X79761904Y-72952380D01*
X79761904Y-73428571D02*
X80333333Y-73428571D01*
X80333333Y-73952380D02*
X80333333Y-72952380D01*
X81333333Y-73952380D02*
X80761904Y-73952380D01*
X81047619Y-73952380D02*
X81047619Y-72952380D01*
X80952380Y-73095238D01*
X80857142Y-73190476D01*
X80761904Y-73238095D01*
X82285714Y-73952380D02*
X81714285Y-73952380D01*
X82000000Y-73952380D02*
X82000000Y-72952380D01*
X81904761Y-73095238D01*
X81809523Y-73190476D01*
X81714285Y-73238095D01*
%TO.C,H12*%
X106761904Y-73952380D02*
X106761904Y-72952380D01*
X106761904Y-73428571D02*
X107333333Y-73428571D01*
X107333333Y-73952380D02*
X107333333Y-72952380D01*
X108333333Y-73952380D02*
X107761904Y-73952380D01*
X108047619Y-73952380D02*
X108047619Y-72952380D01*
X107952380Y-73095238D01*
X107857142Y-73190476D01*
X107761904Y-73238095D01*
X108714285Y-73047619D02*
X108761904Y-73000000D01*
X108857142Y-72952380D01*
X109095238Y-72952380D01*
X109190476Y-73000000D01*
X109238095Y-73047619D01*
X109285714Y-73142857D01*
X109285714Y-73238095D01*
X109238095Y-73380952D01*
X108666666Y-73952380D01*
X109285714Y-73952380D01*
%TO.C,J1*%
X29454380Y-144113333D02*
X30168666Y-144113333D01*
X30311523Y-144160952D01*
X30406761Y-144256190D01*
X30454380Y-144399047D01*
X30454380Y-144494285D01*
X30454380Y-143113333D02*
X30454380Y-143684761D01*
X30454380Y-143399047D02*
X29454380Y-143399047D01*
X29597238Y-143494285D01*
X29692476Y-143589523D01*
X29740095Y-143684761D01*
%TO.C,J2*%
X44694380Y-144113333D02*
X45408666Y-144113333D01*
X45551523Y-144160952D01*
X45646761Y-144256190D01*
X45694380Y-144399047D01*
X45694380Y-144494285D01*
X44789619Y-143684761D02*
X44742000Y-143637142D01*
X44694380Y-143541904D01*
X44694380Y-143303809D01*
X44742000Y-143208571D01*
X44789619Y-143160952D01*
X44884857Y-143113333D01*
X44980095Y-143113333D01*
X45122952Y-143160952D01*
X45694380Y-143732380D01*
X45694380Y-143113333D01*
%TD*%
M02*
