%TF.GenerationSoftware,KiCad,Pcbnew,(5.1.9)-1*%
%TF.CreationDate,2022-01-10T15:25:02-07:00*%
%TF.ProjectId,Kicad_Back_Plate_3x_DB9,4b696361-645f-4426-9163-6b5f506c6174,rev?*%
%TF.SameCoordinates,Original*%
%TF.FileFunction,Profile,NP*%
%FSLAX46Y46*%
G04 Gerber Fmt 4.6, Leading zero omitted, Abs format (unit mm)*
G04 Created by KiCad (PCBNEW (5.1.9)-1) date 2022-01-10 15:25:02*
%MOMM*%
%LPD*%
G01*
G04 APERTURE LIST*
%TA.AperFunction,Profile*%
%ADD10C,0.050000*%
%TD*%
G04 APERTURE END LIST*
D10*
X46440000Y-34880000D02*
X77690000Y-34880000D01*
X77690000Y-34880000D02*
X77690000Y-46130000D01*
X46440000Y-46130000D02*
X77690000Y-46130000D01*
X46440000Y-34880000D02*
X46440000Y-46130000D01*
X74030000Y-5130000D02*
X105280000Y-5130000D01*
X105280000Y-5130000D02*
X105280000Y-16380000D01*
X74030000Y-16380000D02*
X105280000Y-16380000D01*
X74030000Y-5130000D02*
X74030000Y-16380000D01*
X121900000Y-47200000D02*
G75*
G03*
X121900000Y-47200000I-1750000J0D01*
G01*
X121900000Y-3700000D02*
G75*
G03*
X121900000Y-3700000I-1750000J0D01*
G01*
X6400000Y-47200000D02*
G75*
G03*
X6400000Y-47200000I-1750000J0D01*
G01*
X6400000Y-3700000D02*
G75*
G03*
X6400000Y-3700000I-1750000J0D01*
G01*
X4100000Y-50900000D02*
G75*
G02*
X0Y-47000000I-100000J4000000D01*
G01*
X0Y-4000000D02*
X0Y-47000000D01*
X120800000Y0D02*
G75*
G02*
X124800000Y-4000000I0J-4000000D01*
G01*
X4000000Y0D02*
X120800000Y0D01*
X124800000Y-46900000D02*
X124800000Y-4000000D01*
X4100000Y-50900000D02*
X120800000Y-50900000D01*
X51280000Y-5120000D02*
X51280000Y-16370000D01*
X0Y-4000000D02*
G75*
G02*
X4000000Y0I4000000J0D01*
G01*
X20030000Y-5120000D02*
X20030000Y-16370000D01*
X20030000Y-16370000D02*
X51280000Y-16370000D01*
X20030000Y-5120000D02*
X51280000Y-5120000D01*
X124800000Y-46900000D02*
G75*
G02*
X120800000Y-50900000I-4000000J0D01*
G01*
M02*
