G04 #@! TF.GenerationSoftware,KiCad,Pcbnew,(5.1.9)-1*
G04 #@! TF.CreationDate,2022-01-12T10:50:52-07:00*
G04 #@! TF.ProjectId,KICAD_Front_Plate_01,4b494341-445f-4467-926f-6e745f506c61,rev?*
G04 #@! TF.SameCoordinates,Original*
G04 #@! TF.FileFunction,Copper,L1,Top*
G04 #@! TF.FilePolarity,Positive*
%FSLAX46Y46*%
G04 Gerber Fmt 4.6, Leading zero omitted, Abs format (unit mm)*
G04 Created by KiCad (PCBNEW (5.1.9)-1) date 2022-01-12 10:50:52*
%MOMM*%
%LPD*%
G01*
G04 APERTURE LIST*
G04 #@! TA.AperFunction,ComponentPad*
%ADD10C,7.000000*%
G04 #@! TD*
G04 #@! TA.AperFunction,Conductor*
%ADD11C,0.250000*%
G04 #@! TD*
G04 #@! TA.AperFunction,Conductor*
%ADD12C,0.254000*%
G04 #@! TD*
G04 #@! TA.AperFunction,Conductor*
%ADD13C,0.100000*%
G04 #@! TD*
G04 APERTURE END LIST*
D10*
X4650000Y-3700000D03*
X4650000Y-47200000D03*
X120150000Y-47200000D03*
X120150000Y-3700000D03*
D11*
X4650000Y-46193031D02*
X4301222Y-45844253D01*
X4301222Y-45844253D02*
X4236612Y-45862537D01*
X4650000Y-47200000D02*
X4650000Y-46193031D01*
D12*
X117415450Y-785845D02*
X120150000Y-3520395D01*
X120164143Y-3506253D01*
X120343748Y-3685858D01*
X120329605Y-3700000D01*
X123064155Y-6434550D01*
X123584550Y-6038366D01*
X123974748Y-5323388D01*
X124140001Y-4795208D01*
X124140000Y-46111585D01*
X124002415Y-45643403D01*
X123624715Y-44921744D01*
X123584550Y-44861634D01*
X123064155Y-44465450D01*
X120329605Y-47200000D01*
X120343748Y-47214143D01*
X120164143Y-47393748D01*
X120150000Y-47379605D01*
X117415450Y-50114155D01*
X117511258Y-50240000D01*
X7288742Y-50240000D01*
X7384550Y-50114155D01*
X4650000Y-47379605D01*
X4635858Y-47393748D01*
X4456253Y-47214143D01*
X4470395Y-47200000D01*
X4829605Y-47200000D01*
X7564155Y-49934550D01*
X8084550Y-49538366D01*
X8474748Y-48823388D01*
X8717964Y-48046024D01*
X8804851Y-47236147D01*
X8798366Y-47163853D01*
X115995149Y-47163853D01*
X116067931Y-47975118D01*
X116297585Y-48756597D01*
X116675285Y-49478256D01*
X116715450Y-49538366D01*
X117235845Y-49934550D01*
X119970395Y-47200000D01*
X117235845Y-44465450D01*
X116715450Y-44861634D01*
X116325252Y-45576612D01*
X116082036Y-46353976D01*
X115995149Y-47163853D01*
X8798366Y-47163853D01*
X8732069Y-46424882D01*
X8502415Y-45643403D01*
X8124715Y-44921744D01*
X8084550Y-44861634D01*
X7564155Y-44465450D01*
X4829605Y-47200000D01*
X4470395Y-47200000D01*
X1735845Y-44465450D01*
X1215450Y-44861634D01*
X825252Y-45576612D01*
X660000Y-46104788D01*
X660000Y-44285845D01*
X1915450Y-44285845D01*
X4650000Y-47020395D01*
X7384550Y-44285845D01*
X117415450Y-44285845D01*
X120150000Y-47020395D01*
X122884550Y-44285845D01*
X122488366Y-43765450D01*
X121773388Y-43375252D01*
X120996024Y-43132036D01*
X120186147Y-43045149D01*
X119374882Y-43117931D01*
X118593403Y-43347585D01*
X117871744Y-43725285D01*
X117811634Y-43765450D01*
X117415450Y-44285845D01*
X7384550Y-44285845D01*
X6988366Y-43765450D01*
X6273388Y-43375252D01*
X5496024Y-43132036D01*
X4686147Y-43045149D01*
X3874882Y-43117931D01*
X3093403Y-43347585D01*
X2371744Y-43725285D01*
X2311634Y-43765450D01*
X1915450Y-44285845D01*
X660000Y-44285845D01*
X660000Y-12985000D01*
X30621807Y-12985000D01*
X30625000Y-13017419D01*
X30625001Y-25052571D01*
X30621807Y-25085000D01*
X30634550Y-25214383D01*
X30672290Y-25338793D01*
X30733575Y-25453450D01*
X30816052Y-25553948D01*
X30916550Y-25636425D01*
X31031207Y-25697710D01*
X31155617Y-25735450D01*
X31252581Y-25745000D01*
X31285000Y-25748193D01*
X31317419Y-25745000D01*
X43852581Y-25745000D01*
X43885000Y-25748193D01*
X43917419Y-25745000D01*
X44014383Y-25735450D01*
X44138793Y-25697710D01*
X44253450Y-25636425D01*
X44353948Y-25553948D01*
X44436425Y-25453450D01*
X44497710Y-25338793D01*
X44535450Y-25214383D01*
X44548193Y-25085000D01*
X44545000Y-25052581D01*
X44545000Y-13017419D01*
X44548193Y-12985000D01*
X44535450Y-12855617D01*
X44497710Y-12731207D01*
X44436425Y-12616550D01*
X44353948Y-12516052D01*
X44253450Y-12433575D01*
X44138793Y-12372290D01*
X44014383Y-12334550D01*
X43917419Y-12325000D01*
X43885000Y-12321807D01*
X43852581Y-12325000D01*
X31317419Y-12325000D01*
X31285000Y-12321807D01*
X31252581Y-12325000D01*
X31155617Y-12334550D01*
X31031207Y-12372290D01*
X30916550Y-12433575D01*
X30816052Y-12516052D01*
X30733575Y-12616550D01*
X30672290Y-12731207D01*
X30634550Y-12855617D01*
X30621807Y-12985000D01*
X660000Y-12985000D01*
X660000Y-6614155D01*
X1915450Y-6614155D01*
X2311634Y-7134550D01*
X3026612Y-7524748D01*
X3803976Y-7767964D01*
X4613853Y-7854851D01*
X5425118Y-7782069D01*
X6206597Y-7552415D01*
X6928256Y-7174715D01*
X6988366Y-7134550D01*
X7384550Y-6614155D01*
X117415450Y-6614155D01*
X117811634Y-7134550D01*
X118526612Y-7524748D01*
X119303976Y-7767964D01*
X120113853Y-7854851D01*
X120925118Y-7782069D01*
X121706597Y-7552415D01*
X122428256Y-7174715D01*
X122488366Y-7134550D01*
X122884550Y-6614155D01*
X120150000Y-3879605D01*
X117415450Y-6614155D01*
X7384550Y-6614155D01*
X4650000Y-3879605D01*
X1915450Y-6614155D01*
X660000Y-6614155D01*
X660000Y-4788415D01*
X797585Y-5256597D01*
X1175285Y-5978256D01*
X1215450Y-6038366D01*
X1735845Y-6434550D01*
X4470395Y-3700000D01*
X4829605Y-3700000D01*
X7564155Y-6434550D01*
X8084550Y-6038366D01*
X8474748Y-5323388D01*
X8717964Y-4546024D01*
X8804851Y-3736147D01*
X8798366Y-3663853D01*
X115995149Y-3663853D01*
X116067931Y-4475118D01*
X116297585Y-5256597D01*
X116675285Y-5978256D01*
X116715450Y-6038366D01*
X117235845Y-6434550D01*
X119970395Y-3700000D01*
X117235845Y-965450D01*
X116715450Y-1361634D01*
X116325252Y-2076612D01*
X116082036Y-2853976D01*
X115995149Y-3663853D01*
X8798366Y-3663853D01*
X8732069Y-2924882D01*
X8502415Y-2143403D01*
X8124715Y-1421744D01*
X8084550Y-1361634D01*
X7564155Y-965450D01*
X4829605Y-3700000D01*
X4470395Y-3700000D01*
X4456253Y-3685858D01*
X4635858Y-3506253D01*
X4650000Y-3520395D01*
X7384550Y-785845D01*
X7288742Y-660000D01*
X117511258Y-660000D01*
X117415450Y-785845D01*
G04 #@! TA.AperFunction,Conductor*
D13*
G36*
X117415450Y-785845D02*
G01*
X120150000Y-3520395D01*
X120164143Y-3506253D01*
X120343748Y-3685858D01*
X120329605Y-3700000D01*
X123064155Y-6434550D01*
X123584550Y-6038366D01*
X123974748Y-5323388D01*
X124140001Y-4795208D01*
X124140000Y-46111585D01*
X124002415Y-45643403D01*
X123624715Y-44921744D01*
X123584550Y-44861634D01*
X123064155Y-44465450D01*
X120329605Y-47200000D01*
X120343748Y-47214143D01*
X120164143Y-47393748D01*
X120150000Y-47379605D01*
X117415450Y-50114155D01*
X117511258Y-50240000D01*
X7288742Y-50240000D01*
X7384550Y-50114155D01*
X4650000Y-47379605D01*
X4635858Y-47393748D01*
X4456253Y-47214143D01*
X4470395Y-47200000D01*
X4829605Y-47200000D01*
X7564155Y-49934550D01*
X8084550Y-49538366D01*
X8474748Y-48823388D01*
X8717964Y-48046024D01*
X8804851Y-47236147D01*
X8798366Y-47163853D01*
X115995149Y-47163853D01*
X116067931Y-47975118D01*
X116297585Y-48756597D01*
X116675285Y-49478256D01*
X116715450Y-49538366D01*
X117235845Y-49934550D01*
X119970395Y-47200000D01*
X117235845Y-44465450D01*
X116715450Y-44861634D01*
X116325252Y-45576612D01*
X116082036Y-46353976D01*
X115995149Y-47163853D01*
X8798366Y-47163853D01*
X8732069Y-46424882D01*
X8502415Y-45643403D01*
X8124715Y-44921744D01*
X8084550Y-44861634D01*
X7564155Y-44465450D01*
X4829605Y-47200000D01*
X4470395Y-47200000D01*
X1735845Y-44465450D01*
X1215450Y-44861634D01*
X825252Y-45576612D01*
X660000Y-46104788D01*
X660000Y-44285845D01*
X1915450Y-44285845D01*
X4650000Y-47020395D01*
X7384550Y-44285845D01*
X117415450Y-44285845D01*
X120150000Y-47020395D01*
X122884550Y-44285845D01*
X122488366Y-43765450D01*
X121773388Y-43375252D01*
X120996024Y-43132036D01*
X120186147Y-43045149D01*
X119374882Y-43117931D01*
X118593403Y-43347585D01*
X117871744Y-43725285D01*
X117811634Y-43765450D01*
X117415450Y-44285845D01*
X7384550Y-44285845D01*
X6988366Y-43765450D01*
X6273388Y-43375252D01*
X5496024Y-43132036D01*
X4686147Y-43045149D01*
X3874882Y-43117931D01*
X3093403Y-43347585D01*
X2371744Y-43725285D01*
X2311634Y-43765450D01*
X1915450Y-44285845D01*
X660000Y-44285845D01*
X660000Y-12985000D01*
X30621807Y-12985000D01*
X30625000Y-13017419D01*
X30625001Y-25052571D01*
X30621807Y-25085000D01*
X30634550Y-25214383D01*
X30672290Y-25338793D01*
X30733575Y-25453450D01*
X30816052Y-25553948D01*
X30916550Y-25636425D01*
X31031207Y-25697710D01*
X31155617Y-25735450D01*
X31252581Y-25745000D01*
X31285000Y-25748193D01*
X31317419Y-25745000D01*
X43852581Y-25745000D01*
X43885000Y-25748193D01*
X43917419Y-25745000D01*
X44014383Y-25735450D01*
X44138793Y-25697710D01*
X44253450Y-25636425D01*
X44353948Y-25553948D01*
X44436425Y-25453450D01*
X44497710Y-25338793D01*
X44535450Y-25214383D01*
X44548193Y-25085000D01*
X44545000Y-25052581D01*
X44545000Y-13017419D01*
X44548193Y-12985000D01*
X44535450Y-12855617D01*
X44497710Y-12731207D01*
X44436425Y-12616550D01*
X44353948Y-12516052D01*
X44253450Y-12433575D01*
X44138793Y-12372290D01*
X44014383Y-12334550D01*
X43917419Y-12325000D01*
X43885000Y-12321807D01*
X43852581Y-12325000D01*
X31317419Y-12325000D01*
X31285000Y-12321807D01*
X31252581Y-12325000D01*
X31155617Y-12334550D01*
X31031207Y-12372290D01*
X30916550Y-12433575D01*
X30816052Y-12516052D01*
X30733575Y-12616550D01*
X30672290Y-12731207D01*
X30634550Y-12855617D01*
X30621807Y-12985000D01*
X660000Y-12985000D01*
X660000Y-6614155D01*
X1915450Y-6614155D01*
X2311634Y-7134550D01*
X3026612Y-7524748D01*
X3803976Y-7767964D01*
X4613853Y-7854851D01*
X5425118Y-7782069D01*
X6206597Y-7552415D01*
X6928256Y-7174715D01*
X6988366Y-7134550D01*
X7384550Y-6614155D01*
X117415450Y-6614155D01*
X117811634Y-7134550D01*
X118526612Y-7524748D01*
X119303976Y-7767964D01*
X120113853Y-7854851D01*
X120925118Y-7782069D01*
X121706597Y-7552415D01*
X122428256Y-7174715D01*
X122488366Y-7134550D01*
X122884550Y-6614155D01*
X120150000Y-3879605D01*
X117415450Y-6614155D01*
X7384550Y-6614155D01*
X4650000Y-3879605D01*
X1915450Y-6614155D01*
X660000Y-6614155D01*
X660000Y-4788415D01*
X797585Y-5256597D01*
X1175285Y-5978256D01*
X1215450Y-6038366D01*
X1735845Y-6434550D01*
X4470395Y-3700000D01*
X4829605Y-3700000D01*
X7564155Y-6434550D01*
X8084550Y-6038366D01*
X8474748Y-5323388D01*
X8717964Y-4546024D01*
X8804851Y-3736147D01*
X8798366Y-3663853D01*
X115995149Y-3663853D01*
X116067931Y-4475118D01*
X116297585Y-5256597D01*
X116675285Y-5978256D01*
X116715450Y-6038366D01*
X117235845Y-6434550D01*
X119970395Y-3700000D01*
X117235845Y-965450D01*
X116715450Y-1361634D01*
X116325252Y-2076612D01*
X116082036Y-2853976D01*
X115995149Y-3663853D01*
X8798366Y-3663853D01*
X8732069Y-2924882D01*
X8502415Y-2143403D01*
X8124715Y-1421744D01*
X8084550Y-1361634D01*
X7564155Y-965450D01*
X4829605Y-3700000D01*
X4470395Y-3700000D01*
X4456253Y-3685858D01*
X4635858Y-3506253D01*
X4650000Y-3520395D01*
X7384550Y-785845D01*
X7288742Y-660000D01*
X117511258Y-660000D01*
X117415450Y-785845D01*
G37*
G04 #@! TD.AperFunction*
M02*
