%TF.GenerationSoftware,KiCad,Pcbnew,(5.1.9)-1*%
%TF.CreationDate,2022-01-12T09:50:31-07:00*%
%TF.ProjectId,KICAD_Front_Plate_01,4b494341-445f-4467-926f-6e745f506c61,rev?*%
%TF.SameCoordinates,Original*%
%TF.FileFunction,Copper,L1,Top*%
%TF.FilePolarity,Positive*%
%FSLAX46Y46*%
G04 Gerber Fmt 4.6, Leading zero omitted, Abs format (unit mm)*
G04 Created by KiCad (PCBNEW (5.1.9)-1) date 2022-01-12 09:50:31*
%MOMM*%
%LPD*%
G01*
G04 APERTURE LIST*
%TA.AperFunction,NonConductor*%
%ADD10C,0.254000*%
%TD*%
%TA.AperFunction,NonConductor*%
%ADD11C,0.100000*%
%TD*%
G04 APERTURE END LIST*
D10*
X121448126Y-726714D02*
X122071572Y-914943D01*
X122646579Y-1220681D01*
X123151247Y-1632279D01*
X123566362Y-2134067D01*
X123876105Y-2706924D01*
X124068682Y-3329039D01*
X124140001Y-4007594D01*
X124140000Y-46867721D01*
X124073286Y-47548126D01*
X123885057Y-48171570D01*
X123579323Y-48746573D01*
X123167721Y-49251248D01*
X122665933Y-49666362D01*
X122093077Y-49976104D01*
X121470961Y-50168682D01*
X120792417Y-50240000D01*
X4124022Y-50240000D01*
X3433667Y-50189692D01*
X2805481Y-50017039D01*
X2222800Y-49725663D01*
X1707804Y-49326653D01*
X1280117Y-48835211D01*
X956032Y-48270063D01*
X747891Y-47652728D01*
X660000Y-46978957D01*
X660000Y-46961818D01*
X2231701Y-46961818D01*
X2231701Y-47438182D01*
X2324635Y-47905392D01*
X2506931Y-48345494D01*
X2771585Y-48741576D01*
X3108424Y-49078415D01*
X3504506Y-49343069D01*
X3944608Y-49525365D01*
X4411818Y-49618299D01*
X4888182Y-49618299D01*
X5355392Y-49525365D01*
X5795494Y-49343069D01*
X6191576Y-49078415D01*
X6528415Y-48741576D01*
X6793069Y-48345494D01*
X6975365Y-47905392D01*
X7068299Y-47438182D01*
X7068299Y-46961818D01*
X117731701Y-46961818D01*
X117731701Y-47438182D01*
X117824635Y-47905392D01*
X118006931Y-48345494D01*
X118271585Y-48741576D01*
X118608424Y-49078415D01*
X119004506Y-49343069D01*
X119444608Y-49525365D01*
X119911818Y-49618299D01*
X120388182Y-49618299D01*
X120855392Y-49525365D01*
X121295494Y-49343069D01*
X121691576Y-49078415D01*
X122028415Y-48741576D01*
X122293069Y-48345494D01*
X122475365Y-47905392D01*
X122568299Y-47438182D01*
X122568299Y-46961818D01*
X122475365Y-46494608D01*
X122293069Y-46054506D01*
X122028415Y-45658424D01*
X121691576Y-45321585D01*
X121295494Y-45056931D01*
X120855392Y-44874635D01*
X120388182Y-44781701D01*
X119911818Y-44781701D01*
X119444608Y-44874635D01*
X119004506Y-45056931D01*
X118608424Y-45321585D01*
X118271585Y-45658424D01*
X118006931Y-46054506D01*
X117824635Y-46494608D01*
X117731701Y-46961818D01*
X7068299Y-46961818D01*
X6975365Y-46494608D01*
X6793069Y-46054506D01*
X6528415Y-45658424D01*
X6191576Y-45321585D01*
X5795494Y-45056931D01*
X5355392Y-44874635D01*
X4888182Y-44781701D01*
X4411818Y-44781701D01*
X3944608Y-44874635D01*
X3504506Y-45056931D01*
X3108424Y-45321585D01*
X2771585Y-45658424D01*
X2506931Y-46054506D01*
X2324635Y-46494608D01*
X2231701Y-46961818D01*
X660000Y-46961818D01*
X660000Y-12985000D01*
X30621807Y-12985000D01*
X30625000Y-13017419D01*
X30625001Y-25052571D01*
X30621807Y-25085000D01*
X30634550Y-25214383D01*
X30672290Y-25338793D01*
X30733575Y-25453450D01*
X30816052Y-25553948D01*
X30916550Y-25636425D01*
X31031207Y-25697710D01*
X31155617Y-25735450D01*
X31252581Y-25745000D01*
X31285000Y-25748193D01*
X31317419Y-25745000D01*
X43852581Y-25745000D01*
X43885000Y-25748193D01*
X43917419Y-25745000D01*
X44014383Y-25735450D01*
X44138793Y-25697710D01*
X44253450Y-25636425D01*
X44353948Y-25553948D01*
X44436425Y-25453450D01*
X44497710Y-25338793D01*
X44535450Y-25214383D01*
X44548193Y-25085000D01*
X44545000Y-25052581D01*
X44545000Y-13017419D01*
X44548193Y-12985000D01*
X44535450Y-12855617D01*
X44497710Y-12731207D01*
X44436425Y-12616550D01*
X44353948Y-12516052D01*
X44253450Y-12433575D01*
X44138793Y-12372290D01*
X44014383Y-12334550D01*
X43917419Y-12325000D01*
X43885000Y-12321807D01*
X43852581Y-12325000D01*
X31317419Y-12325000D01*
X31285000Y-12321807D01*
X31252581Y-12325000D01*
X31155617Y-12334550D01*
X31031207Y-12372290D01*
X30916550Y-12433575D01*
X30816052Y-12516052D01*
X30733575Y-12616550D01*
X30672290Y-12731207D01*
X30634550Y-12855617D01*
X30621807Y-12985000D01*
X660000Y-12985000D01*
X660000Y-4032278D01*
X715933Y-3461818D01*
X2231701Y-3461818D01*
X2231701Y-3938182D01*
X2324635Y-4405392D01*
X2506931Y-4845494D01*
X2771585Y-5241576D01*
X3108424Y-5578415D01*
X3504506Y-5843069D01*
X3944608Y-6025365D01*
X4411818Y-6118299D01*
X4888182Y-6118299D01*
X5355392Y-6025365D01*
X5795494Y-5843069D01*
X6191576Y-5578415D01*
X6528415Y-5241576D01*
X6793069Y-4845494D01*
X6975365Y-4405392D01*
X7068299Y-3938182D01*
X7068299Y-3461818D01*
X117731701Y-3461818D01*
X117731701Y-3938182D01*
X117824635Y-4405392D01*
X118006931Y-4845494D01*
X118271585Y-5241576D01*
X118608424Y-5578415D01*
X119004506Y-5843069D01*
X119444608Y-6025365D01*
X119911818Y-6118299D01*
X120388182Y-6118299D01*
X120855392Y-6025365D01*
X121295494Y-5843069D01*
X121691576Y-5578415D01*
X122028415Y-5241576D01*
X122293069Y-4845494D01*
X122475365Y-4405392D01*
X122568299Y-3938182D01*
X122568299Y-3461818D01*
X122475365Y-2994608D01*
X122293069Y-2554506D01*
X122028415Y-2158424D01*
X121691576Y-1821585D01*
X121295494Y-1556931D01*
X120855392Y-1374635D01*
X120388182Y-1281701D01*
X119911818Y-1281701D01*
X119444608Y-1374635D01*
X119004506Y-1556931D01*
X118608424Y-1821585D01*
X118271585Y-2158424D01*
X118006931Y-2554506D01*
X117824635Y-2994608D01*
X117731701Y-3461818D01*
X7068299Y-3461818D01*
X6975365Y-2994608D01*
X6793069Y-2554506D01*
X6528415Y-2158424D01*
X6191576Y-1821585D01*
X5795494Y-1556931D01*
X5355392Y-1374635D01*
X4888182Y-1281701D01*
X4411818Y-1281701D01*
X3944608Y-1374635D01*
X3504506Y-1556931D01*
X3108424Y-1821585D01*
X2771585Y-2158424D01*
X2506931Y-2554506D01*
X2324635Y-2994608D01*
X2231701Y-3461818D01*
X715933Y-3461818D01*
X726714Y-3351874D01*
X914943Y-2728428D01*
X1220681Y-2153421D01*
X1632279Y-1648753D01*
X2134067Y-1233638D01*
X2706924Y-923895D01*
X3329039Y-731318D01*
X4007584Y-660000D01*
X120767722Y-660000D01*
X121448126Y-726714D01*
%TA.AperFunction,NonConductor*%
D11*
G36*
X121448126Y-726714D02*
G01*
X122071572Y-914943D01*
X122646579Y-1220681D01*
X123151247Y-1632279D01*
X123566362Y-2134067D01*
X123876105Y-2706924D01*
X124068682Y-3329039D01*
X124140001Y-4007594D01*
X124140000Y-46867721D01*
X124073286Y-47548126D01*
X123885057Y-48171570D01*
X123579323Y-48746573D01*
X123167721Y-49251248D01*
X122665933Y-49666362D01*
X122093077Y-49976104D01*
X121470961Y-50168682D01*
X120792417Y-50240000D01*
X4124022Y-50240000D01*
X3433667Y-50189692D01*
X2805481Y-50017039D01*
X2222800Y-49725663D01*
X1707804Y-49326653D01*
X1280117Y-48835211D01*
X956032Y-48270063D01*
X747891Y-47652728D01*
X660000Y-46978957D01*
X660000Y-46961818D01*
X2231701Y-46961818D01*
X2231701Y-47438182D01*
X2324635Y-47905392D01*
X2506931Y-48345494D01*
X2771585Y-48741576D01*
X3108424Y-49078415D01*
X3504506Y-49343069D01*
X3944608Y-49525365D01*
X4411818Y-49618299D01*
X4888182Y-49618299D01*
X5355392Y-49525365D01*
X5795494Y-49343069D01*
X6191576Y-49078415D01*
X6528415Y-48741576D01*
X6793069Y-48345494D01*
X6975365Y-47905392D01*
X7068299Y-47438182D01*
X7068299Y-46961818D01*
X117731701Y-46961818D01*
X117731701Y-47438182D01*
X117824635Y-47905392D01*
X118006931Y-48345494D01*
X118271585Y-48741576D01*
X118608424Y-49078415D01*
X119004506Y-49343069D01*
X119444608Y-49525365D01*
X119911818Y-49618299D01*
X120388182Y-49618299D01*
X120855392Y-49525365D01*
X121295494Y-49343069D01*
X121691576Y-49078415D01*
X122028415Y-48741576D01*
X122293069Y-48345494D01*
X122475365Y-47905392D01*
X122568299Y-47438182D01*
X122568299Y-46961818D01*
X122475365Y-46494608D01*
X122293069Y-46054506D01*
X122028415Y-45658424D01*
X121691576Y-45321585D01*
X121295494Y-45056931D01*
X120855392Y-44874635D01*
X120388182Y-44781701D01*
X119911818Y-44781701D01*
X119444608Y-44874635D01*
X119004506Y-45056931D01*
X118608424Y-45321585D01*
X118271585Y-45658424D01*
X118006931Y-46054506D01*
X117824635Y-46494608D01*
X117731701Y-46961818D01*
X7068299Y-46961818D01*
X6975365Y-46494608D01*
X6793069Y-46054506D01*
X6528415Y-45658424D01*
X6191576Y-45321585D01*
X5795494Y-45056931D01*
X5355392Y-44874635D01*
X4888182Y-44781701D01*
X4411818Y-44781701D01*
X3944608Y-44874635D01*
X3504506Y-45056931D01*
X3108424Y-45321585D01*
X2771585Y-45658424D01*
X2506931Y-46054506D01*
X2324635Y-46494608D01*
X2231701Y-46961818D01*
X660000Y-46961818D01*
X660000Y-12985000D01*
X30621807Y-12985000D01*
X30625000Y-13017419D01*
X30625001Y-25052571D01*
X30621807Y-25085000D01*
X30634550Y-25214383D01*
X30672290Y-25338793D01*
X30733575Y-25453450D01*
X30816052Y-25553948D01*
X30916550Y-25636425D01*
X31031207Y-25697710D01*
X31155617Y-25735450D01*
X31252581Y-25745000D01*
X31285000Y-25748193D01*
X31317419Y-25745000D01*
X43852581Y-25745000D01*
X43885000Y-25748193D01*
X43917419Y-25745000D01*
X44014383Y-25735450D01*
X44138793Y-25697710D01*
X44253450Y-25636425D01*
X44353948Y-25553948D01*
X44436425Y-25453450D01*
X44497710Y-25338793D01*
X44535450Y-25214383D01*
X44548193Y-25085000D01*
X44545000Y-25052581D01*
X44545000Y-13017419D01*
X44548193Y-12985000D01*
X44535450Y-12855617D01*
X44497710Y-12731207D01*
X44436425Y-12616550D01*
X44353948Y-12516052D01*
X44253450Y-12433575D01*
X44138793Y-12372290D01*
X44014383Y-12334550D01*
X43917419Y-12325000D01*
X43885000Y-12321807D01*
X43852581Y-12325000D01*
X31317419Y-12325000D01*
X31285000Y-12321807D01*
X31252581Y-12325000D01*
X31155617Y-12334550D01*
X31031207Y-12372290D01*
X30916550Y-12433575D01*
X30816052Y-12516052D01*
X30733575Y-12616550D01*
X30672290Y-12731207D01*
X30634550Y-12855617D01*
X30621807Y-12985000D01*
X660000Y-12985000D01*
X660000Y-4032278D01*
X715933Y-3461818D01*
X2231701Y-3461818D01*
X2231701Y-3938182D01*
X2324635Y-4405392D01*
X2506931Y-4845494D01*
X2771585Y-5241576D01*
X3108424Y-5578415D01*
X3504506Y-5843069D01*
X3944608Y-6025365D01*
X4411818Y-6118299D01*
X4888182Y-6118299D01*
X5355392Y-6025365D01*
X5795494Y-5843069D01*
X6191576Y-5578415D01*
X6528415Y-5241576D01*
X6793069Y-4845494D01*
X6975365Y-4405392D01*
X7068299Y-3938182D01*
X7068299Y-3461818D01*
X117731701Y-3461818D01*
X117731701Y-3938182D01*
X117824635Y-4405392D01*
X118006931Y-4845494D01*
X118271585Y-5241576D01*
X118608424Y-5578415D01*
X119004506Y-5843069D01*
X119444608Y-6025365D01*
X119911818Y-6118299D01*
X120388182Y-6118299D01*
X120855392Y-6025365D01*
X121295494Y-5843069D01*
X121691576Y-5578415D01*
X122028415Y-5241576D01*
X122293069Y-4845494D01*
X122475365Y-4405392D01*
X122568299Y-3938182D01*
X122568299Y-3461818D01*
X122475365Y-2994608D01*
X122293069Y-2554506D01*
X122028415Y-2158424D01*
X121691576Y-1821585D01*
X121295494Y-1556931D01*
X120855392Y-1374635D01*
X120388182Y-1281701D01*
X119911818Y-1281701D01*
X119444608Y-1374635D01*
X119004506Y-1556931D01*
X118608424Y-1821585D01*
X118271585Y-2158424D01*
X118006931Y-2554506D01*
X117824635Y-2994608D01*
X117731701Y-3461818D01*
X7068299Y-3461818D01*
X6975365Y-2994608D01*
X6793069Y-2554506D01*
X6528415Y-2158424D01*
X6191576Y-1821585D01*
X5795494Y-1556931D01*
X5355392Y-1374635D01*
X4888182Y-1281701D01*
X4411818Y-1281701D01*
X3944608Y-1374635D01*
X3504506Y-1556931D01*
X3108424Y-1821585D01*
X2771585Y-2158424D01*
X2506931Y-2554506D01*
X2324635Y-2994608D01*
X2231701Y-3461818D01*
X715933Y-3461818D01*
X726714Y-3351874D01*
X914943Y-2728428D01*
X1220681Y-2153421D01*
X1632279Y-1648753D01*
X2134067Y-1233638D01*
X2706924Y-923895D01*
X3329039Y-731318D01*
X4007584Y-660000D01*
X120767722Y-660000D01*
X121448126Y-726714D01*
G37*
%TD.AperFunction*%
M02*
